<?xml version="1.0" encoding="UTF-8" standalone="no"?>
<svg
   xmlns:dc="http://purl.org/dc/elements/1.1/"
   xmlns:cc="http://creativecommons.org/ns#"
   xmlns:rdf="http://www.w3.org/1999/02/22-rdf-syntax-ns#"
   xmlns:svg="http://www.w3.org/2000/svg"
   xmlns="http://www.w3.org/2000/svg"
   viewBox="0 0 1280 720"
   height="720"
   width="1280"
   xml:space="preserve"
   id="svg2"
   version="1.1"><metadata
     id="metadata8"><rdf:RDF><cc:Work
         rdf:about=""><dc:format>image/svg+xml</dc:format><dc:type
           rdf:resource="http://purl.org/dc/dcmitype/StillImage" /></cc:Work></rdf:RDF></metadata><defs
     id="defs6"><clipPath
       id="clipPath18"
       clipPathUnits="userSpaceOnUse"><path
         style="clip-rule:evenodd"
         id="path16"
         d="M 0,1.2207e-4 H 960 V 540.00012 H 0 Z" /></clipPath></defs><g
     transform="matrix(1.3333333,0,0,-1.3333333,0,720)"
     id="g10"><g
       id="g12"><g
         clip-path="url(#clipPath18)"
         id="g14"><path
           id="path20"
           style="fill:#ffffff;fill-opacity:1;fill-rule:evenodd;stroke:none"
           d="M 0,6.1035e-5 H 960 V 540.00006 H 0 Z" /></g></g><path
       id="path22"
       style="fill:#c8f9fb;fill-opacity:1;fill-rule:evenodd;stroke:none"
       d="M 959.88,539.88 H 0.12 V 280.14 l 10.931,-5.97 5.554,-2.72 5.687,-2.69 5.732,-2.65 5.865,-2.62 5.91,-2.59 6.043,-2.54 6.132,-2.52 6.176,-2.47 6.309,-2.44 6.354,-2.41 6.443,-2.37 6.532,-2.33 6.621,-2.29 6.709,-2.26 6.752,-2.22 6.89,-2.18 6.93,-2.14 7.02,-2.09 7.07,-2.06 7.15,-2.02 7.24,-1.97 7.33,-1.95 7.38,-1.89 7.42,-1.85 7.55,-1.81 7.56,-1.77 7.68,-1.71 7.69,-1.68 7.82,-1.63 7.82,-1.6 7.96,-1.54 7.95,-1.5 8.04,-1.45 8.09,-1.41 8.17,-1.36 8.22,-1.31 8.27,-1.27 8.35,-1.21 8.4,-1.17 8.44,-1.12 8.49,-1.07 8.53,-1.02 8.62,-0.97 8.67,-0.93 8.66,-0.87 8.75,-0.81 8.8,-0.77 8.84,-0.71 8.89,-0.66 8.98,-0.61 8.97,-0.56 9.02,-0.51 9.02,-0.45 9.11,-0.39 9.15,-0.33 9.2,-0.28 9.2,-0.23 9.24,-0.19 9.29,-0.11 9.33,-0.05 h 9.37 l 9.29,0.05 9.29,0.11 9.28,0.19 9.2,0.23 9.2,0.28 9.11,0.33 9.11,0.39 9.06,0.45 9.02,0.51 8.98,0.56 8.93,0.61 8.88,0.66 8.85,0.71 8.79,0.77 8.76,0.81 8.71,0.87 8.66,0.93 8.58,0.97 8.57,1.02 8.49,1.07 8.44,1.12 8.4,1.17 8.35,1.21 8.27,1.27 8.22,1.31 8.13,1.36 8.13,1.41 8.04,1.45 7.96,1.5 7.9,1.54 7.87,1.6 7.78,1.63 7.73,1.68 7.68,1.71 7.56,1.77 7.55,1.81 7.42,1.85 7.38,1.89 7.33,1.95 7.24,1.97 7.16,2.02 7.06,2.06 7.02,2.09 6.93,2.14 6.84,2.18 6.8,2.22 6.71,2.26 6.62,2.29 6.53,2.33 6.45,2.37 6.35,2.41 6.31,2.44 6.18,2.47 6.13,2.52 6,2.54 5.95,2.59 5.87,2.62 5.73,2.65 5.69,2.69 5.55,2.72 11.42,6.25 z" /></g></svg>