<svg
xmlns="http://www.w3.org/2000/svg"
viewBox="0 0 1920 1080"
>
<defs>
<clipPath id="a">
<path d="M0 0h1920v1080H0z" />
</clipPath>
</defs>
<g clip-path="url(#a)">
<g opacity=".12">
<clipPath id="b">
    <path
    d="M880.662 689.39c-91.989 216.478 9.282 467.499 225.781 559.497 216.499 91.998 467.496-9.332 559.485-225.811 92.007-216.52-9.282-467.498-225.781-559.496-216.499-91.998-467.478 9.29-559.485 225.81zm78.794 33.482c73.543-173.07 274.181-254.025 447.209-180.499 173.05 73.535 254.013 274.151 180.469 447.221-73.534 173.05-274.133 253.972-447.183 180.437-173.028-73.526-254.03-274.11-180.495-447.159z"
    fill="#FFF"
    />
</clipPath>
<g clip-path="url(#b)">
    <linearGradient
    id="c"
    x1="0"
    y1=".5"
    x2="1"
    y2=".5"
    gradientTransform="matrix(1029.843 437.616 -437.623 1029.859 977.189 122.493)"
    gradientUnits="userSpaceOnUse"
    >
    <stop offset="0%" stop-color="#00a781" />
    <stop offset="100%" stop-color="#0080c3" />
    </linearGradient>
    <path
    d="M880.662 689.39c-91.989 216.478 9.282 467.499 225.781 559.497 216.499 91.998 467.496-9.332 559.485-225.811 92.007-216.52-9.282-467.498-225.781-559.496-216.499-91.998-467.478 9.29-559.485 225.81zm78.794 33.482c73.543-173.07 274.181-254.025 447.209-180.499 173.05 73.535 254.013 274.151 180.469 447.221-73.534 173.05-274.133 253.972-447.183 180.437-173.028-73.526-254.03-274.11-180.495-447.159z"
    fill-rule="evenodd"
    fill="url(#c)"
    />
</g>
<g>
    <path
    d="M1079.567 1312.134c-251.405-106.831-368.995-398.245-262.173-649.629 106.831-251.405 398.233-369.024 649.638-262.193 251.405 106.83 369.036 398.262 262.205 649.667-106.821 251.384-398.265 368.986-649.67 262.155zm418.069-983.843c-49.431-21.005-101.67-34.937-155.355-41.414l-30.379-3.658 27.484-13.44 386.032-188.683c9.376-4.578 16.388-12.571 19.753-22.458 3.386-9.878 2.667-20.517-1.911-29.892-4.174-8.416-11.139-15.066-19.621-18.67a45.097 45.097 0 00-2.828-1.104c-9.946-3.341-20.558-2.684-29.942 1.915l-683.613 337.456c-117.203 61.251-210.232 161.952-261.903 283.549-123.691 291.083 12.476 628.574 303.601 752.283 291.125 123.709 628.592-12.518 752.283-303.601 123.7-291.104-12.476-628.574-303.601-752.283z"
    fill-rule="evenodd"
    fill="#009F87"
    />
    <path
    d="M1646.768 265.256l-14.229-8.605 14.971-7.268 388.666-189.262c19.308-9.484 27.328-32.99 17.823-52.308l-.122-.175-1.79-2.851-.651-1.015-.328-1.197c-3.08-10.756-10.593-19.361-20.617-23.621l-765.364-325.23c-18.547-7.881-40.034.825-47.897 19.33-7.882 18.547.774 40.037 19.321 47.919L1921.83 12.171l18.276 7.767-17.857 8.674-384.161 187.289q-35.407 16.749-35.407 40.75 0 25.499 33.827 39.101c155.176 69.163 276.844 200.969 333.888 361.652 57.907 163.167 46.446 338.237-32.339 492.843-144.272 283.124-488.932 413.294-784.698 296.395-5.037-2.042-10.074-4.083-15.054-6.2-180.906-76.873-312.518-230.323-361.088-420.963-3.06-12.076-11.221-21.473-22.933-26.45-12.104-4.922-25.205-3.674-36.313 3.243-14.006 8.587-20.64 26.631-16.247 43.85 54.912 213.927 202.484 385.919 404.917 471.94a739.504 739.504 0 0044.335 17.191c318.867 112.15 682.357-26.378 845.514-322.218 180.188-326.711 68.138-749.213-249.722-941.779z"
    fill-rule="evenodd"
    fill="#0076BF"
    />
</g>
</g>
<clipPath id="d">
<path
    d="M668.808 212.189c0 33.291 27.087 60.384 60.381 60.384s60.38-27.093 60.38-60.384c0-33.297-27.086-60.383-60.38-60.383-33.294 0-60.381 27.086-60.381 60.383zm12.117 0c0-26.615 21.655-48.266 48.264-48.266 26.612 0 48.263 21.651 48.263 48.266 0 26.612-21.651 48.257-48.263 48.257-26.609 0-48.264-21.645-48.264-48.257z"
    fill="#FFF"
/>
</clipPath>
<!-- <g clip-path="url(#d)">
<linearGradient
    id="e"
    x1="0"
    y1=".5"
    x2="1"
    y2=".5"
    gradientTransform="matrix(120.761 0 0 120.767 668.808 151.806)"
    gradientUnits="userSpaceOnUse"
>
    <stop offset="0%" stop-color="#00a781" />
    <stop offset="100%" stop-color="#0080c3" />
</linearGradient>
<path
    d="M668.808 212.189c0 33.291 27.087 60.384 60.381 60.384s60.38-27.093 60.38-60.384c0-33.297-27.086-60.383-60.38-60.383-33.294 0-60.381 27.086-60.381 60.383zm12.117 0c0-26.615 21.655-48.266 48.264-48.266 26.612 0 48.263 21.651 48.263 48.266 0 26.612-21.651 48.257-48.263 48.257-26.609 0-48.264-21.645-48.264-48.257z"
    fill-rule="evenodd"
    fill="url(#e)"
/>
</g>
<path
d="M729.189 282.299c-38.662 0-70.11-31.451-70.11-70.11 0-38.662 31.448-70.113 70.11-70.113s70.116 31.451 70.116 70.113c0 38.659-31.454 70.11-70.116 70.11zm0-151.299a80.992 80.992 0 00-22.53 3.205l-4.159 1.205 2.836-3.272 39.841-45.946a5.475 5.475 0 001.33-4.019 5.516 5.516 0 00-1.904-3.788 5.53 5.53 0 00-4.018-1.333 5.545 5.545 0 00-3.795 1.907l-70.369 81.797C654.544 175.222 648 193.489 648 212.189c0 44.764 36.419 81.189 81.189 81.189 44.77 0 81.188-36.425 81.188-81.189 0-44.767-36.418-81.189-81.188-81.189z"
fill-rule="evenodd"
fill="#009F87"
/>
<path
d="M745.126 114.534l-2.33-.333 1.548-1.775 40.152-46.168a5.54 5.54 0 00-.574-7.8l-.025-.016-.391-.272-.141-.097-.109-.137c-.997-1.231-2.452-1.936-3.993-1.936H661.562a5.176 5.176 0 00-5.169 5.169 5.176 5.176 0 005.169 5.173H769.757l-1.845 2.118-39.675 45.661Q725.18 117.82 726 121q.773 2.82 6.451 3.61c24.042.42 47.187 10.855 63.512 28.628 16.574 18.049 24.772 41.488 23.067 65.989-3.121 44.866-40.812 80.9-85.81 82.044-.769.013-1.538.026-2.304.026-27.82 0-53.458-12.704-70.337-34.849-1.068-1.403-2.651-2.176-4.452-2.176-1.849.029-3.487.917-4.551 2.433-1.349 1.894-1.214 4.611.311 6.611 18.995 24.827 47.738 39.063 78.869 39.063a104.8 104.8 0 006.727-.215c47.744-3.041 87.425-41.207 92.302-88.774 5.387-52.532-32.595-101.366-84.659-108.856z"
fill-rule="evenodd"
fill="#0076BF"
/>
<path
d="M846.319 102.949h51.887v7.076h-44.725v17.3h37.476v7.249h-37.476v26.468h-7.162v-58.093zM907.224 139.554v-36.605h7.163v35.118c0 11.095 7.249 17.821 21.052 17.821 13.713 0 21.052-6.726 21.052-17.821v-35.118h7.162v36.605c0 14.062-10.569 23.583-28.214 23.583-17.645 0-28.215-9.521-28.215-23.583zM1038.971 161.042h-7.512l-43.241-47.084v47.084h-7.163v-58.093h7.252l43.501 47.61v-47.61h7.163v58.093zM1082.62 154.142c14.584 0 23.493-9.701 23.493-23.587 0-12.665-9.082-20.876-23.407-20.876-8.473 0-16.597.17-19.568.17v44.379l19.482-.086zm31.271-23.85c0 17.645-11.444 30.75-29.176 30.75h-28.74v-58.093l28.827-.173c17.296-.086 29.089 11.268 29.089 27.516zM848.251 249.306h7.163v-58.089h-7.163v58.089zM937.089 249.306h-7.512l-43.241-47.084v47.084h-7.163v-58.092h7.253l43.501 47.61v-47.61h7.162v58.092zM955.783 234.193l6.204-2.445c2.621 10.136 13.45 12.315 23.234 12.315 8.563 0 21.924-2.445 21.924-12.402 0-17.382-51.013.436-51.013-23.673 0-14.502 17.559-18.694 28.74-18.694 12.405 0 26.205 2.795 28.913 17.293l-6.201 2.449c-2.618-10.134-13.367-12.842-23.148-12.842-8.826 0-20.004 2.708-20.004 11.182 0 15.286 50.491-.526 50.491 23.759 0 15.64-16.248 20.354-29.003 20.354-12.406 0-27.433-2.795-30.137-17.296zM1033.526 249.306h7.163v-58.089h-7.163v58.089zM1067.333 220.13c0 14.675 10.22 23.847 24.721 23.847 11.967 0 20.267-7.599 21.837-19.482h-22.535v-6.464h30.31c-.436 25.074-15.197 33.198-30.483 33.198-18.607 0-31.538-12.844-31.538-31.099 0-19.478 13.277-30.836 31.711-30.836 12.405 0 26.205 5.154 28.913 19.655l-6.201 2.445c-2.619-10.133-13.105-15.023-22.885-15.023-14.415 0-23.85 8.995-23.85 23.759zM1195.74 249.306h-7.159v-26.291h-40.973v26.291h-7.159v-58.092h7.159v24.548h40.973v-24.548h7.159v58.092zM1272 198.293h-27.17v51.013h-7.159v-51.013h-27.167v-7.076H1272v7.076z"
fill-rule="evenodd"
/> -->
</g>
</svg>