<svg id="Layer_1" data-name="Layer 1" xmlns="http://www.w3.org/2000/svg" viewBox="0 0 261.8 132.88"><defs><style>.cls-1{fill:none;}.cls-2{fill:#e72c49;}.cls-3{fill:#2b3180;}</style></defs><title>punter-southall-horizontal-RGB</title><rect class="cls-1" width="261.8" height="132.88"/><path d="M128.51,47.12h-4.27v7.73h-2.45V34.2h6.75c4.66,0,7.36,2.7,7.36,6.46s-2.7,6.46-7.39,6.46m-4.27-10.67v8.43h4.3c3.14,0,4.89-1.72,4.89-4.22s-1.66-4.21-4.89-4.21Z"/><path d="M149.44,41.17h2.31V54.85h-1.47l-.5-2a5.18,5.18,0,0,1-4.33,2.3c-3.88,0-5.84-2.5-5.84-6.35V41.17h2.33v7.61c0,2.7,1.09,4.16,3.71,4.16,2.25,0,3.82-1.49,3.79-4.1Z"/><path d="M158.88,54.85h-2.33V41.08h1.07l.92,2.11A5.58,5.58,0,0,1,163,40.91a5.67,5.67,0,0,1,5.87,6v7.9h-2.31v-7.7c0-2.36-1.23-4-3.68-4a4.49,4.49,0,0,0-4,2.64Z"/><path d="M171.84,41.2h2.55l.48-4.16,1.74,0V41.2h4.08v2h-4.08v7.28c0,1.63.85,2.47,2,2.47h2.05l.08,1.94a12.42,12.42,0,0,1-2.13.17c-2.93,0-4.33-2-4.33-4.58V43.16h-2.47Z"/><path d="M194.29,51.2l1.93,1a6.9,6.9,0,0,1-5.84,2.92,6.76,6.76,0,0,1-7-7.11c0-3.9,2.5-7.11,6.66-7.11a6.47,6.47,0,0,1,6.52,6.78,8.39,8.39,0,0,1-.06,1.12H185.74a4.38,4.38,0,0,0,4.64,4.27,4.6,4.6,0,0,0,3.91-1.88m-8.49-4.3h8.32v0A4.08,4.08,0,0,0,190,43a4.15,4.15,0,0,0-4.22,3.94"/><path d="M203.08,54.85h-2.33V41.08h1.07l.84,2.19a4.8,4.8,0,0,1,4.16-2.36,6.08,6.08,0,0,1,3.79,1.35L209.4,44a4.37,4.37,0,0,0-2.67-.92,3.79,3.79,0,0,0-3.65,3.25Z"/><path d="M132.17,68.75a6.35,6.35,0,0,0-4.44-1.88c-2.92,0-4,1.63-4,3.17s1.18,2.64,3.32,3.21l2.72.75c3.57,1,5.48,3,5.48,5.9,0,3.12-2.58,6-7.33,6a9.58,9.58,0,0,1-7-3.26l1.77-1.51a7.07,7.07,0,0,0,5.26,2.52c3.28,0,4.8-1.77,4.8-3.71,0-1.65-.9-2.92-3.51-3.7-1-.31-1.85-.54-2.87-.85-3.31-.92-5.11-2.58-5.11-5.34s2.47-5.36,6.52-5.36a8.67,8.67,0,0,1,6,2.47Z"/><path d="M145.21,71.64a7.11,7.11,0,1,1-6.86,7.11,6.82,6.82,0,0,1,6.86-7.11m0,12c2.72,0,4.49-2.19,4.49-4.89s-1.77-4.89-4.49-4.89-4.47,2.2-4.47,4.89,1.74,4.89,4.47,4.89"/><path d="M165.61,71.9h2.3V85.58h-1.46l-.51-2a5.16,5.16,0,0,1-4.32,2.3c-3.88,0-5.85-2.5-5.85-6.35V71.9h2.33v7.61c0,2.7,1.1,4.16,3.71,4.16,2.25,0,3.82-1.49,3.8-4.1Z"/><path d="M171.17,71.93h2.56l.47-4.16,1.75,0v4.14H180v2H176v7.28c0,1.63.84,2.47,2,2.47H180l.08,1.94a12.34,12.34,0,0,1-2.13.17c-2.92,0-4.33-2-4.33-4.58V73.89h-2.47Z"/><path d="M186.4,85.58h-2.33V64.37h2.33v9.19a5.6,5.6,0,0,1,4.21-1.92c3.26,0,5.76,2.31,5.76,6v7.92h-2.3V77.85c0-2.33-1.15-4-3.6-4a4.64,4.64,0,0,0-4.07,2.64Z"/><path d="M207,71.64a6.47,6.47,0,0,1,5,2.48l.87-2.28h1V85.58h-2l-.11-2.3a6.09,6.09,0,0,1-4.92,2.58A7.12,7.12,0,0,1,207,71.64m0,12a4.66,4.66,0,0,0,4.58-5v-.26A4.61,4.61,0,1,0,207,83.67"/><rect x="218.68" y="64.37" width="2.33" height="21.21"/><rect x="225.82" y="64.37" width="2.33" height="21.21"/><path class="cls-2" d="M44.67,39.38a5.17,5.17,0,1,1-5.17-5.16,5.17,5.17,0,0,1,5.17,5.16"/><path d="M67.45,67.33a10.33,10.33,0,0,1-14.6,0l-34,34h82.59Z"/><path class="cls-3" d="M67.45,52.73a10.33,10.33,0,0,1,0,14.6l34,34V18.74Z"/><rect class="cls-1" width="147.15" height="194.88"/></svg>