<?xml version="1.0" encoding="UTF-8"?>
<svg width="113px" height="24px" viewBox="0 0 113 24" version="1.1" xmlns="http://www.w3.org/2000/svg"
     xmlns:xlink="http://www.w3.org/1999/xlink">
  <!-- Generator: Sketch 60 (88103) - https://sketch.com -->
  <title>Group 2 Copy 5</title>
  <desc>Created with Sketch.</desc>
  <g id="Page-1" stroke="none" stroke-width="1" fill="none" fill-rule="evenodd">
    <g id="Group-3" transform="translate(-394.000000, -24.000000)" fill-rule="nonzero">
      <g id="Group-2-Copy-5" transform="translate(394.000000, 24.000000)">
        <polygon id="Path" fill="#007FA3"
                 points="6.39488462e-14 6.39131988 3.38435994 6.39131988 3.38435994 23.6395196 6.39488462e-14 23.6395196"></polygon>
        <path
          d="M23.5109996,23.6395196 L20.1245996,23.6395196 L20.1245996,15.0154197 C20.1245996,13.2579598 19.8316896,11.9887398 19.2458696,11.2077598 C18.5298297,10.2316198 17.2718297,9.74354982 15.4718697,9.74354982 C13.6719097,9.74354982 12.4026898,10.2316198 11.6642098,11.2077598 C11.0787298,11.9897598 10.7858198,13.2589798 10.7854798,15.0154197 L10.7854798,23.6395196 L7.40009986,23.6395196 L7.40009986,15.0317397 C7.40009986,9.27179983 10.0903498,6.39165988 15.4708497,6.39131988 C20.8309496,6.39131988 23.5109996,9.27145983 23.5109996,15.0317397 L23.5109996,23.6395196 Z"
          id="Path" fill="#007FA3"></path>
        <polygon id="Path" fill="#007FA3"
                 points="41.8592692 6.39131988 34.9604993 23.8679996 31.8035994 23.8679996 24.9048295 6.39131988 28.5492895 6.39131988 33.3657294 18.6277497 38.2148093 6.39131988"></polygon>
        <path
          d="M59.3323789,23.6395196 L51.294269,23.6395196 C45.9137691,23.6395196 43.2236892,20.7702596 43.2240292,15.0317397 C43.2240292,9.27179983 45.9141091,6.39165988 51.294269,6.39131988 C56.6523289,6.39131988 59.3316989,9.26771983 59.3323789,15.0205197 L59.3323789,16.7075997 L46.7057991,16.7075997 C47.0525991,19.0943996 48.5825991,20.2876296 51.295799,20.2872896 L59.3339089,20.2872896 L59.3323789,23.6395196 Z M55.850609,13.3558798 C55.503469,10.9476598 53.984689,9.74354982 51.294269,9.74354982 C48.5820891,9.74354982 47.0520891,10.9476598 46.7042691,13.3558798 L55.850609,13.3558798 Z"
          id="Shape" fill="#007FA3"></path>
        <path
          d="M71.8028987,9.74354982 C69.6982987,9.74354982 68.2446287,10.0364598 67.4418887,10.6222798 C66.8564087,11.0561198 66.5636688,11.7286398 66.5636688,12.6398398 L66.5636688,23.6395196 L63.1787988,23.6395196 L63.1787988,12.6607498 C63.1787988,8.48146984 66.0534988,6.39165988 71.8028987,6.39131988 L71.8028987,9.74354982 Z"
          id="Path" fill="#007FA3"></path>
        <path
          d="M88.1422784,11.5331398 L84.7579184,11.5331398 C84.7579184,11.0125998 84.6059384,10.6329898 84.3019784,10.3943098 C83.7810984,9.96080981 82.7396785,9.74388982 81.1777185,9.74354982 C79.6157585,9.74320982 78.5745085,9.96216981 78.0539685,10.4004298 C77.7479685,10.6414898 77.5959885,11.0244998 77.5980285,11.5494598 C77.5980285,12.2063398 77.8096785,12.6440898 78.2329785,12.8627098 C78.6562785,13.0813298 79.6812085,13.2457198 81.3077685,13.3558798 C83.2821484,13.4860997 84.7466984,13.7781597 85.7014184,14.2320597 C87.3286584,15.0538397 88.1422784,16.4818397 88.1422784,18.5160597 C88.1422784,21.9548196 85.8207584,23.6740296 81.1777185,23.6736896 C76.5346786,23.6733496 74.2133286,21.9480196 74.2136686,18.4976997 L77.5980285,18.4976997 C77.5980285,19.0280996 77.7500085,19.4146796 78.0539685,19.6574396 C78.5748485,20.0994396 79.6160985,20.3204396 81.1777185,20.3204396 C82.7393385,20.3204396 83.7810984,20.1013096 84.3029984,19.6630496 C84.6066184,19.4223296 84.7585984,19.0393196 84.7589384,18.5140197 C84.7589384,17.8792397 84.5636084,17.4521997 84.1729484,17.2328997 C83.7173484,16.9928597 82.6868085,16.8177597 81.0813285,16.7075997 C79.0851885,16.5780597 77.6208085,16.2859997 76.6881886,15.8314197 C75.0391886,15.0317397 74.2146886,13.6037397 74.2146886,11.5474198 C74.2146886,8.10899985 76.5360386,6.38961988 81.1787385,6.38927988 C85.8214384,6.38893988 88.1426184,8.10355985 88.1422784,11.5331398 Z"
          id="Path" fill="#007FA3"></path>
        <polygon id="Path" fill="#007FA3"
                 points="91.7382883 6.39131988 95.1226482 6.39131988 95.1226482 23.6395196 91.7382883 23.6395196"></polygon>
        <path
          d="M112.646758,11.5331398 L109.262398,11.5331398 C109.262398,11.0125998 109.110418,10.6329898 108.806458,10.3943098 C108.286258,9.96080981 107.245008,9.74388982 105.682708,9.74354982 C104.120408,9.74320982 103.079838,9.96216981 102.560998,10.4004298 C102.254998,10.6408098 102.101998,11.0238198 102.101998,11.5494598 C102.101998,12.2063398 102.313478,12.6440898 102.736438,12.8627098 C103.159398,13.0813298 104.184498,13.2457198 105.811738,13.3558798 C107.783738,13.4860997 109.248118,13.7781597 110.204878,14.2320597 C111.832118,15.0538397 112.645738,16.4818397 112.645738,18.5160597 C112.645738,21.9548196 110.324388,23.6740296 105.681688,23.6736896 C101.038988,23.6733496 98.7178082,21.9480196 98.7181482,18.4976997 L102.101998,18.4976997 C102.101998,19.0280996 102.253808,19.4146796 102.557428,19.6574396 C103.078308,20.0994396 104.119728,20.3204396 105.681688,20.3204396 C107.243648,20.3204396 108.284898,20.1014796 108.805438,19.6635596 C109.108718,19.4228396 109.260698,19.0398296 109.261378,18.5145297 C109.261378,17.8797497 109.066048,17.4527097 108.675388,17.2334097 C108.220128,16.9933697 107.189758,16.8182697 105.584278,16.7081097 C103.587458,16.5785697 102.122908,16.2865097 101.190628,15.8319297 C99.5416281,15.0322497 98.7171282,13.6042497 98.7171282,11.5479298 C98.7171282,8.10950985 101.038648,6.39012988 105.681688,6.38978988 C110.324728,6.38944988 112.646418,8.10389985 112.646758,11.5331398 Z"
          id="Path" fill="#007FA3"></path>
        <path
          d="M54.757169,0 C54.2883793,0.000840039515 53.9084018,0.380361701 53.906999,0.849149984 L53.906999,1.07405998 C53.9083993,1.54245132 54.2877576,1.92180968 54.756149,1.92320996 L59.7031489,1.92320996 C60.0301622,1.92320996 60.2952589,2.18830664 60.2952589,2.51531995 L60.2952589,7.46537986 C60.2974977,7.93317359 60.6766118,8.31160461 61.1444089,8.31299984 L61.3693189,8.31299984 C61.837713,8.31244427 62.2177554,7.933769 62.2199988,7.46537986 L62.2240788,0.849149984 C62.222675,0.380163016 61.8423876,0.000559562516 61.3733989,0 L54.757169,0 Z"
          id="Path" fill="#29B5CF"></path>
      </g>
    </g>
  </g>
</svg>
