<svg width="78" height="122" xmlns="http://www.w3.org/2000/svg" xmlns:xlink="http://www.w3.org/1999/xlink" xml:space="preserve" overflow="hidden"><defs><clipPath id="clip0"><rect x="230" y="324" width="78" height="122"/></clipPath></defs><g clip-path="url(#clip0)" transform="translate(-230 -324)"><path d="M37.9196 121.151C37.8722 121.056 37.7205 120.554 37.5784 120.033 37.1708 118.526 37.0666 118.327 36.5548 118.204 35.9388 118.043 35.4459 117.559 35.4459 117.104 35.4459 116.659 35.9956 116.043 36.7254 115.664 37.2846 115.37 37.3225 115.275 36.9529 115.067 36.6117 114.877 36.3368 114.981 35.5881 115.578 34.7162 116.28 34.5361 116.365 34.3371 116.166 34.1949 116.033 34.1949 115.891 34.2802 114.943 34.3371 114.356 34.3655 113.863 34.356 113.844 34.3371 113.825 34.0717 113.986 33.7589 114.195 33.0007 114.716 32.868 114.697 32.6122 114.1 32.2804 113.351 32.3847 112.982 33.1524 112.195 33.6452 111.674 33.7495 111.531 33.6547 111.418 33.3893 111.105 33.1618 111.162 32.5648 111.73 31.7971 112.46 31.617 112.555 31.3137 112.365 31.1905 112.28 31.0673 112.11 31.0294 111.977 30.9536 111.683 31.0294 110.328 31.1337 110.091 31.3043 109.693 30.9346 110.015 30.5555 110.584 30.0153 111.408 29.7689 111.645 29.4656 111.645 29.077 111.645 28.9064 111.304 28.9064 110.489 28.9064 109.409 29.3614 108.082 30.2049 106.707 30.3849 106.414 30.5934 105.949 30.6598 105.665 30.8304 105.049 30.8399 103.694 30.6977 102.86 30.5934 102.272 30.584 102.253 30.3375 102.3 29.1813 102.518 28.4041 102.424 28.2335 102.035 28.0629 101.665 28.3473 101.286 29.2097 100.708 30.4513 99.8741 30.4134 99.9215 30.148 99.7225 29.6552 99.3623 29.314 99.2296 28.897 99.2296 28.5463 99.2296 28.3757 99.296 27.9587 99.6087 27.3711 100.054 26.9446 100.102 26.3475 99.7983 25.5324 99.3813 25.1818 98.4241 25.5704 97.6564 25.6746 97.4574 25.8547 97.1825 25.9684 97.0498 26.2053 96.775 26.4707 96.2916 26.4139 96.2347 26.3759 96.1968 25.8926 96.358 24.8311 96.756 24.4899 96.8887 24.0919 96.955 23.6748 96.955 23.0967 96.955 23.0209 96.9266 22.8787 96.7181 22.765 96.538 22.7461 96.358 22.7934 95.8746L22.8598 95.268 22.4049 95.2017C21.7225 95.1069 21.514 94.9363 21.514 94.5004 21.514 94.017 21.8931 93.6758 22.5375 93.5905 23.8454 93.4104 24.0255 93.1451 23.4474 92.2447 23.0399 91.6287 22.6418 91.4581 21.6182 91.4581 21.078 91.4581 20.6231 91.4107 20.4241 91.3254 20.1303 91.2022 20.0923 91.1453 20.0923 90.8326 20.0923 90.3303 20.6231 89.8185 21.3718 89.61 22.0826 89.4015 23.4853 89.4678 24.4331 89.7427 25.6651 90.1123 26.158 90.5293 27.3047 92.1405 27.7881 92.8134 28.8022 93.6474 29.8637 94.235 30.4418 94.5572 30.4987 94.5667 30.5461 94.4056 30.584 94.2634 30.366 94.0739 29.4846 93.4768L28.3852 92.7375 28.0061 91.9509C27.7028 91.3254 27.4564 90.9937 26.8403 90.3776L26.0632 89.6005 26.0632 88.7096C26.0632 88.2168 26.0158 87.4775 25.9495 87.051L25.8452 86.2834 24.7458 85.6199C23.9497 85.1366 23.6464 84.9091 23.6464 84.7764 23.6464 84.6058 23.7317 84.5774 24.3572 84.5395L25.068 84.4921 24.5278 83.914C24.2245 83.6012 23.9781 83.2979 23.9781 83.2505 23.9781 83.2032 24.1582 82.9852 24.3667 82.7577 24.5847 82.5303 24.7458 82.3407 24.7269 82.3312 23.8265 81.7531 23.1157 80.7769 22.9356 79.8765 22.6702 78.5497 22.2817 77.7631 21.4666 76.8722 20.879 76.2467 20.7463 75.8202 20.9832 75.3652 21.1917 74.9577 21.6751 74.825 22.3954 74.9577 23.0304 75.0714 23.817 75.3937 24.0066 75.6117 24.0824 75.7064 24.452 76.73 24.8311 77.9052 25.2102 79.0804 25.5609 80.1419 25.6083 80.2746 25.6557 80.4073 25.9305 80.6727 26.2527 80.8717 26.556 81.0707 26.8593 81.2887 26.9162 81.3645 26.973 81.4309 27.0678 81.8668 27.1247 82.3312 27.21 83.0799 27.2005 83.2316 27.0299 83.8002L26.8403 84.4352 27.2858 84.7196C28.1103 85.2408 30.783 86.8141 30.8399 86.8141 30.8683 86.8141 30.8967 86.4634 30.8967 86.0369 30.9062 84.5111 31.1147 83.6581 31.617 83.1084L31.8445 82.8714 31.2853 82.9094 30.7261 82.9473 30.1954 81.3361C29.9016 80.4452 29.6646 79.6491 29.6741 79.5448 29.6741 79.4501 29.9869 78.7582 30.366 78L31.0673 76.6258 29.9111 75.3937C28.8591 74.2753 28.1198 73.3086 27.0488 71.6974 26.7266 71.2141 26.6508 71.0056 26.5465 70.2758 26.4802 69.8114 26.4139 69.4134 26.4044 69.3944 26.3854 69.3849 26.1011 69.3281 25.7694 69.2712 24.9354 69.1385 24.7553 68.9679 25.0965 68.6457 25.7409 68.0202 27.4564 66.627 27.5796 66.627 27.6838 66.627 27.9303 66.8734 28.0629 67.1103 28.1198 67.2146 28.2051 67.2904 28.2525 67.2714 28.3094 67.2525 28.8211 66.5417 29.4087 65.6792 29.9964 64.8168 30.5366 64.106 30.6124 64.087 30.7072 64.068 30.9536 64.3239 31.2474 64.7125L31.7402 65.3665 31.6549 66.1626C31.617 66.5985 31.5886 66.9682 31.5981 66.9776 31.6075 66.9871 32.034 66.4659 32.5458 65.8119 33.5789 64.4945 33.503 64.5419 34.6119 64.7789 35.0763 64.8736 35.3891 65.0158 35.7492 65.2812 36.3558 65.7361 36.9813 66.0583 37.2561 66.0583 37.3604 66.0583 37.5594 65.973 37.6921 65.8688 37.8437 65.7456 38.0807 65.6792 38.3176 65.6792 38.6588 65.6792 38.7536 65.7361 39.1706 66.1721L39.6255 66.6554 40.2226 66.4564C40.5638 66.3427 41.0566 66.2479 41.3599 66.2479 41.72 66.2479 41.8906 66.21 41.8906 66.1341 41.8906 66.0394 41.6348 66.0109 40.9239 66.0109 39.7961 66.0109 39.2938 65.8309 39.0474 65.3475 38.6778 64.5988 38.2134 63.8974 37.2467 62.6085L36.1947 61.1964 36.3652 60.9499C37.4931 59.225 37.8437 57.9077 37.4457 56.8651 37.332 56.5808 37.2467 56.306 37.2467 56.268 37.2467 56.1164 37.8627 55.633 38.0522 55.633 38.1565 55.6425 38.3461 55.6994 38.4787 55.7752 38.6114 55.851 38.7441 55.9079 38.782 55.9174 38.8105 55.9174 38.8199 55.5004 38.7915 54.9886 38.7252 53.9081 38.7252 53.9081 39.6445 53.6712L40.2795 53.5006 40.7344 54.0219C40.9903 54.3062 41.3125 54.6758 41.4452 54.8275 41.6537 55.0644 41.7106 55.0928 41.7959 54.9696 41.9475 54.7327 41.9096 54.6474 41.322 53.8797 41.0092 53.4722 40.7533 53.0836 40.7533 53.0078 40.7533 52.9414 40.8481 52.7519 40.9524 52.6002 41.104 52.4107 41.1419 52.2591 41.0945 52.079 41.0377 51.842 40.9998 51.8231 40.6301 51.88 40.4122 51.9084 39.9478 51.9558 39.5971 51.9937L38.9621 52.06 38.7536 51.3682C38.564 50.7237 38.5261 50.5436 38.564 50.2593 38.564 50.2024 38.8768 49.9276 39.2369 49.6527 40.1183 48.9988 40.1278 48.8092 39.3222 48.2311 39.0095 48.0036 38.5356 47.6435 38.2702 47.4445 37.8058 47.0843 37.7964 47.0654 37.8532 46.6768 37.9385 46.146 38.0049 45.7954 38.0902 45.3878 38.166 45.0656 38.147 45.0277 37.6637 44.6012 37.3793 44.3548 37.1519 44.08 37.1519 43.9947 37.1519 43.8999 37.3035 43.6061 37.4931 43.3312L37.8248 42.8289 37.5878 42.5446 37.3414 42.2603 37.2467 42.5256C37.1898 42.6678 37.0761 42.9806 36.9908 43.2175 36.9055 43.4544 36.7728 43.7103 36.7064 43.8051 36.5074 44.0326 35.7208 44.26 35.1237 44.26 34.6498 44.26 34.5835 44.2316 34.2518 43.8809 33.8158 43.426 33.4746 43.2838 33.1618 43.445 33.0386 43.5018 32.6785 43.8809 32.3657 44.279 32.053 44.677 31.7307 45.0087 31.6549 45.0087 31.5696 45.0182 31.2569 44.7623 30.9441 44.4496 30.3849 43.8809 30.3755 43.8809 29.8352 43.8809 29.532 43.8809 29.2855 43.9188 29.2855 43.9662 29.2855 44.0136 29.3708 44.2316 29.4751 44.4591 29.5793 44.6865 29.6646 44.9424 29.6646 45.0182 29.6646 45.1888 27.1531 47.9563 26.992 47.9563 26.8024 47.9563 25.2102 46.4209 25.2102 46.2408 25.2102 46.1366 25.5324 45.4258 25.921 44.6486L26.6224 43.2365 26.1011 42.5825C24.9448 41.1704 24.7079 40.9334 23.9402 40.4785 23.5137 40.2131 23.0399 39.9572 22.8977 39.9004 22.5849 39.7866 22.5849 39.834 23.1157 38.5735 23.3242 38.0807 23.5516 37.6352 23.6275 37.5878 23.7222 37.5215 23.9781 37.6542 24.5468 38.0617 24.9733 38.365 25.4187 38.6872 25.5324 38.7631 25.6462 38.8389 25.8926 39.019 26.0727 39.1611 26.2622 39.3128 26.4518 39.4265 26.5086 39.4265 26.556 39.4265 26.9162 39.0284 27.3047 38.5451L28.0061 37.6731 28.0629 36.7728C28.1009 36.28 28.1293 35.4175 28.1388 34.8583L28.1482 33.8537 27.845 33.5978C27.6744 33.4557 27.3616 33.1808 27.1531 32.9913 26.9446 32.8017 26.6034 32.5079 26.3949 32.3278 25.9115 31.9203 24.9922 31.1147 24.1298 30.347L23.4569 29.7499 22.7934 29.8163C22.4333 29.8447 21.912 29.9016 21.6372 29.9395 21.0685 30.0248 21.0875 30.0343 20.0639 28.7548 19.6374 28.2241 19.4763 28.0819 19.3057 28.1103 18.5949 28.2146 16.5383 28.5463 16.0549 28.6411 15.3346 28.7738 15.183 28.7169 15.1261 28.3188 15.0598 27.826 14.8702 25.6936 14.8513 25.0775L14.8323 24.5089 15.3441 24.2245C15.7896 23.9687 15.9222 23.817 16.3582 23.0778 16.8416 22.2532 16.87 22.2248 17.268 22.1584 17.4955 22.13 18.0831 22.0921 18.5854 22.0921L19.5047 22.0826 20.0923 22.7461 20.6894 23.419 21.7414 23.3905 22.7934 23.3621 22.8598 22.6039C22.964 21.3339 23.201 20.0544 23.3526 19.9502 23.4474 19.8744 23.7696 19.8744 24.3762 19.9312 25.2292 20.0165 25.2671 20.026 25.6462 20.3861L26.0348 20.7652 26.4802 20.642C27.0015 20.5094 26.9446 20.5947 27.4753 18.9361 27.6649 18.32 27.9113 17.7324 28.0156 17.6187 28.1956 17.4197 29.6173 16.1876 29.949 15.9412 30.0911 15.8369 30.2807 15.8369 31.0484 15.9507L31.9677 16.0928 32.9723 17.0974 33.9674 18.1115 34.4982 17.9694C34.792 17.903 35.19 17.7609 35.3796 17.6566L35.7303 17.486 34.7635 16.6804 33.7874 15.8748 33.3704 14.9081C32.8965 13.8087 33.0292 13.9035 31.5128 13.6002L30.4702 13.3823 29.0296 14.3016C26.6697 15.799 27.0773 15.6569 25.3903 15.5337 24.5847 15.4768 23.7507 15.4578 23.5327 15.4863 23.0399 15.5526 23.0399 15.5526 22.2153 14.2447 21.3434 12.861 21.3813 12.8894 20.8411 12.8894L20.3767 12.8894 20.045 13.5529C19.8649 13.9225 19.6564 14.2163 19.59 14.2163 19.5237 14.2163 19.1256 13.9035 18.7181 13.5149L17.9694 12.8231 18.2442 11.8374C18.3864 11.2972 18.5286 10.8044 18.5475 10.7475 18.5665 10.6906 17.903 10.1504 17.069 9.53439L15.5431 8.42552 14.965 8.54872C14.3964 8.66245 14.3774 8.66245 14.2068 8.44447 14.1026 8.32126 13.9035 7.96112 13.7614 7.65784 13.5055 7.09866 13.4865 7.08919 12.5861 6.62479 12.0744 6.36889 11.6574 6.10352 11.6574 6.04666 11.6574 5.95188 11.4109 5.2695 11.2309 4.86197 11.2214 4.84301 10.1599 4.79563 8.85201 4.73876 7.55358 4.69137 6.34046 4.60608 6.16039 4.56817L5.82868 4.49234 5.83815 3.61094C5.84763 2.66318 5.89502 2.55893 6.35942 2.55893 6.81434 2.55893 8.12224 2.12296 8.67193 1.79125 9.25954 1.44058 9.63864 0.91932 9.73341 0.341191 9.7808 0.0379101 9.81871 0 10.0651 0 10.6338 0 11.8564 1.28894 12.2734 2.34095 12.3966 2.64423 12.6051 2.97594 12.7378 3.07072 12.9652 3.24131 12.9842 3.24131 13.477 3.08019 13.7519 2.9949 14.0931 2.84326 14.2258 2.739 14.7186 2.39781 14.8418 2.47363 15.3252 3.4593 15.7137 4.23645 15.799 4.35018 15.9696 4.30279 16.3108 4.19854 19.1162 2.85273 21.8362 1.50693 23.2863 0.777157 24.5563 0.18955 24.651 0.18955 24.8785 0.18955 25.2386 0.653949 25.9021 1.81021 26.3759 2.64423 26.4423 2.83378 26.4423 3.27922 26.4423 3.7531 26.4518 3.78153 26.7077 3.80996 26.9351 3.8384 27.0394 3.99004 27.627 5.12734L28.2904 6.41628 30.1859 5.85711C36.1473 4.08481 39.9951 3.03281 40.488 3.03281 40.8481 3.03281 41.0377 3.46877 41.0377 4.28384L41.0377 4.88092 41.957 4.85249C42.4688 4.84301 43.4355 4.78615 44.1084 4.73876 45.8807 4.60608 46.9043 4.61555 46.9706 4.77667 46.999 4.84301 46.9137 5.31689 46.7905 5.8192 46.6578 6.32151 46.5725 6.72904 46.601 6.72904 46.6199 6.72904 46.8853 6.54897 47.1791 6.32151 47.4729 6.10352 47.8141 5.85711 47.9278 5.78129 48.0321 5.70547 48.7808 5.17473 49.5674 4.5966 50.3541 4.02795 51.0838 3.49721 51.1786 3.43086 51.3113 3.32661 51.5861 3.32661 52.5244 3.40243 54.9981 3.61094 56.268 3.69623 56.8746 3.69623L57.5001 3.69623 58.7985 2.84326C60.5803 1.66804 60.3718 1.65857 63.67 3.08019 65.0727 3.67728 66.2479 4.17011 66.3047 4.17011 66.3521 4.17011 66.4943 4.01847 66.6175 3.8384 66.9397 3.35504 67.1577 3.40243 67.7074 4.06586 67.9538 4.36914 68.3329 4.78615 68.532 4.98518 68.9016 5.34532 68.949 5.3548 69.8778 5.46853 70.4085 5.52539 71.0151 5.58226 71.233 5.58226 71.7354 5.59174 71.8965 5.78129 72.0197 6.4921 72.0671 6.80486 72.1998 7.53463 72.3135 8.10328 72.721 10.2262 72.74 10.34 72.5883 10.4348 72.5125 10.4821 72.304 10.5011 72.1239 10.4632 71.9439 10.4348 71.5363 10.3684 71.2236 10.321 69.4418 10.0746 68.0202 9.84715 67.9444 9.80923 67.8591 9.75237 67.8117 9.92297 67.4705 11.3162 67.3473 11.8279 67.2051 12.2639 67.1482 12.2734 67.1009 12.2923 66.6365 12.3397 66.1247 12.3682 65.6129 12.4061 65.2148 12.4535 65.2338 12.4724 65.2622 12.5009 65.992 12.5482 66.8734 12.5861L68.4751 12.6525 69.1101 13.8372C69.4608 14.4911 69.7451 15.1072 69.7546 15.2209 69.7546 15.3631 69.6693 15.4484 69.4513 15.5242 69.1764 15.6095 69.2523 15.619 69.9725 15.6284L70.816 15.6379 71.6122 16.1592C72.0481 16.4435 72.4083 16.6994 72.4083 16.7278 72.4083 16.8416 72.1903 17.2017 71.9154 17.5618 71.5932 17.9694 71.6216 17.9789 72.5315 17.7609L73.1759 17.5998 73.6119 18.0168C75.1757 19.5332 76.9101 21.9879 77.6493 23.7033 77.9337 24.3857 77.9431 24.452 77.981 26.0727 78.019 27.7312 78.0095 27.7502 77.7631 28.2525 76.4931 30.7735 73.4224 32.8586 69.8209 33.6357 67.6695 34.1001 66.1341 33.7115 65.5939 32.5553 65.4897 32.3183 65.3949 31.9866 65.3949 31.8066 65.3949 31.4843 65.3949 31.4843 65.0916 31.5601 64.6556 31.6928 64.0775 32.1193 63.8121 32.5269L63.5752 32.8775 63.8595 33.2945C64.2197 33.8063 64.5798 34.0906 65.4612 34.5266 66.4374 35.0289 66.5796 35.2564 66.5701 36.3937 66.5701 37.095 66.5038 37.4836 66.3047 38.147 66.0204 39.0853 65.2622 40.8481 64.7599 41.758 64.305 42.5825 64.3334 42.6868 64.9968 42.8289 66.4374 43.1512 66.3047 43.9188 64.2102 47.4824 63.1013 49.3589 63.1203 49.5201 64.4187 50.4015 64.7315 50.61 65.0158 50.8564 65.0537 50.9417 65.3001 51.6051 64.8168 52.2306 62.7601 53.8608 62.1725 54.3346 62.0209 54.5242 61.6892 55.1876 60.7983 56.9694 60.0496 57.9835 59.1871 58.5711 58.7227 58.8933 57.756 59.2345 57.3295 59.2345 56.8462 59.2345 56.2965 59.443 56.0121 59.7179 54.6 61.1395 54.3631 66.5606 55.4625 72.3893 55.6046 73.1475 55.633 73.5456 55.5762 73.7162 55.5193 73.8868 55.216 74.1521 54.7043 74.4933 54.2683 74.7776 53.7849 75.1852 53.6238 75.3937 53.1689 75.9908 52.7234 77.0049 52.3159 78.3696 51.7378 80.2557 51.2544 81.0992 50.4488 81.573 50.0413 81.81 49.9181 81.8384 49.1883 81.8289 48.7429 81.8194 48.2122 81.7626 48.0036 81.7057 47.7951 81.6488 47.3592 81.6015 47.0369 81.6015 46.7242 81.6015 46.0418 81.5162 45.5205 81.4119 44.0326 81.1181 43.3123 81.0707 42.9047 81.2697 42.5256 81.4498 42.3645 81.8005 42.5541 82.0279 42.791 82.3123 43.3123 82.3881 44.6865 82.3217 46.2124 82.2459 46.184 82.2365 46.4778 83.0515 46.601 83.3738 46.6957 83.497 46.8284 83.497 46.9232 83.497 47.4255 83.2885 47.9278 83.0231 48.9704 82.4829 49.5011 82.4071 49.8044 82.7388 50.1645 83.1368 50.0792 84.6627 49.6527 85.4967 49.4821 85.8379 48.8851 86.435 48.7145 86.435 48.6576 86.435 48.6197 86.4729 48.6197 86.5203 48.6197 86.5582 49.5674 87.5533 50.7332 88.7191 53.6143 91.6097 55.2445 93.5242 56.2112 95.1543 56.7704 96.0831 56.9694 96.6233 57.0642 97.5047 57.1874 98.5947 57.4148 98.9643 58.3341 99.5235 58.9217 99.8741 59.1397 100.064 59.3103 100.376 59.7937 101.296 59.443 102.054 58.1635 102.86 57.4906 103.286 54.9317 104.101 53.4532 104.357 52.278 104.556 50.8185 104.727 50.2119 104.727 49.6053 104.727 49.4821 104.765 48.4491 105.295 46.9801 106.044 46.7052 106.053 45.6911 105.4 44.279 104.499 44.3643 104.518 42.2792 104.49 41.2651 104.48 40.3742 104.49 40.3079 104.509 39.9098 104.66 40.469 105.674 41.1324 106.006L41.5874 106.234 41.8527 106.025C42.0707 105.854 42.2413 105.817 42.7721 105.817L43.426 105.817 44.1747 106.594C44.6107 107.049 44.9235 107.456 44.9235 107.57 44.9235 107.892 44.4022 108.139 43.6914 108.139 43.0564 108.139 42.7152 108.252 42.8858 108.404 42.9426 108.451 43.6819 108.973 44.5443 109.57 47.1696 111.37 50.2498 113.541 50.7521 113.939 51.3776 114.432 52.5055 116.223 52.7424 117.095L52.913 117.711 52.7045 117.938C52.4391 118.223 51.4061 118.507 50.1361 118.649 49.6433 118.706 48.8756 118.801 48.4396 118.848 47.5582 118.952 43.3218 118.981 42.8479 118.886 42.6299 118.839 42.4972 118.725 42.3645 118.478 42.2697 118.289 42.0802 118.014 41.957 117.862L41.7295 117.588 41.6158 118.194C41.5495 118.526 41.4357 118.943 41.3599 119.113 41.1609 119.606 40.4311 120.488 39.8719 120.914 39.3791 121.293 39.3317 121.312 38.6872 121.312 38.1375 121.312 37.9954 121.284 37.9196 121.151ZM40.6491 43.2554C40.6965 43.2175 40.251 42.6583 40.1657 42.6583 40.1089 42.6488 38.8294 44.279 38.6304 44.6202 38.583 44.7055 40.3553 43.5113 40.6491 43.2554Z" fill="#17406D" transform="matrix(1 0 0 -1.00517 230 445.97)"/><path d="M14.1215 75.7254C13.9414 75.5643 13.7424 75.4411 13.6761 75.4411 13.6097 75.4411 13.2306 75.5548 12.8326 75.6875 12.4345 75.8202 12.0175 75.9149 11.9132 75.896 11.7616 75.877 11.5815 75.6401 11.2593 75.0241 11.0129 74.5691 10.8044 74.1806 10.7854 74.1616 10.6812 74.0574 9.61968 74.3512 9.07947 74.6355 8.57716 74.9008 8.39708 74.9577 8.29283 74.8724 8.14119 74.7492 7.65784 73.9341 6.81434 72.3798L6.20778 71.271 5.57278 71.3183C5.21264 71.3468 4.63451 71.3847 4.27436 71.4131 3.43086 71.4889 3.39295 71.3942 3.89526 70.399 4.10377 69.982 4.25541 69.6219 4.23645 69.6029 4.2175 69.5745 3.6678 69.4134 3.02333 69.2238 2.37886 69.0437 1.74386 68.8542 1.61118 68.8068 1.47849 68.7594 1.06148 68.6362 0.691859 68.5225 0.00947752 68.3234 0 68.3234 0 68.0107 0 67.7453 0.161118 67.4894 0.815067 66.6554 1.26051 66.0962 1.99028 65.1674 2.4452 64.5893 2.89064 64.0207 3.48773 63.2625 3.76258 62.9118L4.27436 62.2673 5.58226 62.2673C6.52053 62.2673 6.91859 62.3052 6.99441 62.3905 7.08919 62.5043 7.17448 62.8549 7.4209 64.2102L7.54411 64.8642 8.06537 64.9874C8.3497 65.0537 8.74775 65.1485 8.95626 65.1959 9.16476 65.2433 9.34484 65.2812 9.35431 65.2622 9.39222 65.2338 9.56282 63.9448 9.62916 63.2909L9.67655 62.6559 10.52 62.0304 11.3635 61.3954 11.0413 60.7414C10.8612 60.3908 10.7096 60.0306 10.7096 59.9548 10.7096 59.86 10.9465 59.7463 11.4015 59.6136 11.7711 59.4999 12.207 59.3767 12.3587 59.3198 12.8894 59.1492 13.0505 59.2061 13.3159 59.6515L13.5623 60.078 14.4153 59.4525 15.2683 58.827 15.9507 58.8933C16.3298 58.9312 16.6899 59.0165 16.7752 59.0923 16.8605 59.1776 17.1543 59.661 17.4197 60.1728L17.9125 61.1111 18.4622 61.1774C18.756 61.2153 19.4858 61.2722 20.0734 61.3101 20.661 61.348 21.1823 61.4238 21.2486 61.4902 21.3055 61.547 21.3908 62.0304 21.4287 62.5706 21.4666 63.1108 21.5519 64.1439 21.6087 64.8831 21.6656 65.6129 21.6846 66.2858 21.6467 66.3806 21.5803 66.5512 21.495 66.5512 19.9691 66.2953 19.41 66.2005 19.1635 66.2005 18.9456 66.2763 18.7939 66.3332 18.6707 66.409 18.6707 66.4469 18.6707 66.5132 19.2394 67.044 20.1682 67.8401 20.7368 68.3329 20.7558 68.3614 20.7463 68.7878 20.7179 69.6882 20.68 69.764 19.9028 70.181L19.192 70.5601 19.0593 71.271C18.955 71.8586 18.955 72.1429 19.0498 72.8821 19.2488 74.3796 19.2868 74.2659 18.5286 74.7303 18.1684 74.9577 17.5429 75.3368 17.1448 75.5738L16.4245 76.0097 15.4389 76.0097C14.4911 76.0002 14.4437 75.9908 14.1215 75.7254Z" fill="#17406D" transform="matrix(1 0 0 -1.00517 230 445.97)"/></g></svg>