<svg xmlns="http://www.w3.org/2000/svg" xmlns:xlink="http://www.w3.org/1999/xlink" style="isolation:isolate" viewBox="0 0 100 100" width="100pt" height="100pt"><defs><clipPath id="_clipPath_ZKCTstPMZADYiIWwmHLkIRy0mS0bQSdv"><rect width="100" height="100"/></clipPath></defs><g clip-path="url(#_clipPath_ZKCTstPMZADYiIWwmHLkIRy0mS0bQSdv)"><g><path d=" M 50 26.54 L 31.684 22.341 M 63.048 39.135 L 53.664 29.75 M 80.829 41.357 L 69.469 41.851 M 35.389 46.296 L 27.733 41.357 M 48.23 31.479 L 39.587 45.062" fill="rgb(0,0,0)" vector-effect="non-scaling-stroke" stroke-width="0.7" stroke="rgb(170,170,170)" stroke-linejoin="miter" stroke-linecap="square" stroke-miterlimit="3"/><linearGradient id="_lgradient_11" x1="0.1460000000000008" y1="0.8540000000000001" x2="0.8014822535808271" y2="0.09711756841594055" gradientTransform="matrix(8.099,0,0,9.352,36.674,8)" gradientUnits="userSpaceOnUse"><stop offset="12.917000000000002%" stop-opacity="1" style="stop-color:rgb(0,130,198)"/><stop offset="98.333%" stop-opacity="1" style="stop-color:rgb(0,168,129)"/></linearGradient><path d=" M 44.773 15.014 L 40.724 17.352 L 36.674 15.014 L 36.674 10.338 L 40.724 8 L 44.773 10.338 L 44.773 15.014 Z " fill="url(#_lgradient_11)"/><linearGradient id="_lgradient_12" x1="0.14599999999999724" y1="0.8539999999999983" x2="0.801481125621654" y2="0.0971165915718778" gradientTransform="matrix(6.907,0,0,7.976,34.161,31.936)" gradientUnits="userSpaceOnUse"><stop offset="12.917000000000002%" stop-opacity="1" style="stop-color:rgb(0,130,198)"/><stop offset="98.333%" stop-opacity="1" style="stop-color:rgb(0,168,129)"/></linearGradient><path d=" M 41.069 37.918 L 37.615 39.912 L 34.161 37.918 L 34.161 33.93 L 37.615 31.936 L 41.069 33.93 L 41.069 37.918 Z " fill="url(#_lgradient_12)"/><linearGradient id="_lgradient_13" x1="0.14599999999999724" y1="0.8540000000000001" x2="0.8014811256216523" y2="0.09711659157187813" gradientTransform="matrix(6.907,0,0,7.976,61.08,11.183)" gradientUnits="userSpaceOnUse"><stop offset="12.917000000000002%" stop-opacity="1" style="stop-color:rgb(0,130,198)"/><stop offset="98.333%" stop-opacity="1" style="stop-color:rgb(0,168,129)"/></linearGradient><path d=" M 67.987 17.165 L 64.533 19.159 L 61.08 17.165 L 61.08 13.177 L 64.533 11.183 L 67.987 13.177 L 67.987 17.165 Z " fill="url(#_lgradient_13)"/><linearGradient id="_lgradient_14" x1="0.14599999999999724" y1="0.8540000000000001" x2="0.8014811256216555" y2="0.0971165915718778" gradientTransform="matrix(6.907,0,0,7.976,63.302,22.585)" gradientUnits="userSpaceOnUse"><stop offset="12.917000000000002%" stop-opacity="1" style="stop-color:rgb(0,130,198)"/><stop offset="98.333%" stop-opacity="1" style="stop-color:rgb(0,168,129)"/></linearGradient><path d=" M 70.21 28.567 L 66.756 30.561 L 63.302 28.567 L 63.302 24.579 L 66.756 22.585 L 70.21 24.579 L 70.21 28.567 Z " fill="url(#_lgradient_14)"/><linearGradient id="_lgradient_15" x1="0.14599999999999724" y1="0.8539999999999992" x2="0.8014811256216543" y2="0.09711659157187769" gradientTransform="matrix(9.342,0,0,10.787,43.044,49.211)" gradientUnits="userSpaceOnUse"><stop offset="12.917000000000002%" stop-opacity="1" style="stop-color:rgb(0,130,198)"/><stop offset="98.333%" stop-opacity="1" style="stop-color:rgb(0,168,129)"/></linearGradient><path d=" M 52.387 57.302 L 47.715 59.998 L 43.044 57.302 L 43.044 51.908 L 47.715 49.211 L 52.387 51.908 L 52.387 57.302 Z " fill="url(#_lgradient_15)"/><linearGradient id="_lgradient_16" x1="0.14599999999999724" y1="0.854000000000001" x2="0.8014811256216561" y2="0.09711659157187746" gradientTransform="matrix(6.907,0,0,7.976,71.445,48.256)" gradientUnits="userSpaceOnUse"><stop offset="12.917000000000002%" stop-opacity="1" style="stop-color:rgb(0,130,198)"/><stop offset="98.333%" stop-opacity="1" style="stop-color:rgb(0,168,129)"/></linearGradient><path d=" M 78.352 54.238 L 74.898 56.232 L 71.445 54.238 L 71.445 50.25 L 74.898 48.256 L 78.352 50.25 L 78.352 54.238 Z " fill="url(#_lgradient_16)"/><linearGradient id="_lgradient_17" x1="0.14599999999999902" y1="0.8539999999999992" x2="0.801480917464005" y2="0.09711641130187643" gradientTransform="matrix(8.244,0,0,9.519,22.205,48.439)" gradientUnits="userSpaceOnUse"><stop offset="12.917000000000002%" stop-opacity="1" style="stop-color:rgb(0,130,198)"/><stop offset="98.333%" stop-opacity="1" style="stop-color:rgb(0,168,129)"/></linearGradient><path d=" M 30.449 55.579 L 26.327 57.959 L 22.205 55.579 L 22.205 50.819 L 26.327 48.439 L 30.449 50.819 L 30.449 55.579 Z " fill="url(#_lgradient_17)"/><linearGradient id="_lgradient_18" x1="0.1460000000000008" y1="0.8539999999999992" x2="0.8014809174640057" y2="0.09711641130187765" gradientTransform="matrix(8.244,0,0,9.519,31.766,56.232)" gradientUnits="userSpaceOnUse"><stop offset="12.917000000000002%" stop-opacity="1" style="stop-color:rgb(0,130,198)"/><stop offset="98.333%" stop-opacity="1" style="stop-color:rgb(0,168,129)"/></linearGradient><path d=" M 40.01 63.371 L 35.888 65.751 L 31.766 63.371 L 31.766 58.612 L 35.888 56.232 L 40.01 58.612 L 40.01 63.371 Z " fill="url(#_lgradient_18)"/><linearGradient id="_lgradient_19" x1="0.14599999999999724" y1="0.8539912702144621" x2="0.8014775672337859" y2="0.09711155002601268" gradientTransform="matrix(8.244,0,0,9.52,46.407,38.92)" gradientUnits="userSpaceOnUse"><stop offset="12.917000000000002%" stop-opacity="1" style="stop-color:rgb(0,130,198)"/><stop offset="98.333%" stop-opacity="1" style="stop-color:rgb(0,168,129)"/></linearGradient><path d=" M 54.651 46.059 L 50.529 48.439 L 46.407 46.059 L 46.407 41.3 L 50.529 38.92 L 54.651 41.3 L 54.651 46.059 Z " fill="url(#_lgradient_19)"/><linearGradient id="_lgradient_20" x1="0.14599999999999547" y1="0.853988647089321" x2="0.8014753369783482" y2="0.09710902965432289" gradientTransform="matrix(6.339,0,0,7.32,11.021,33.075)" gradientUnits="userSpaceOnUse"><stop offset="12.917000000000002%" stop-opacity="1" style="stop-color:rgb(0,130,198)"/><stop offset="98.333%" stop-opacity="1" style="stop-color:rgb(0,168,129)"/></linearGradient><path d=" M 17.361 38.565 L 14.191 40.395 L 11.021 38.565 L 11.021 34.905 L 14.191 33.075 L 17.361 34.905 L 17.361 38.565 Z " fill="url(#_lgradient_20)"/><linearGradient id="_lgradient_21" x1="0.14599999999999547" y1="0.853988647089321" x2="0.8014753369783482" y2="0.09710902965432289" gradientTransform="matrix(6.339,0,0,7.32,11.021,33.075)" gradientUnits="userSpaceOnUse"><stop offset="12.917000000000002%" stop-opacity="1" style="stop-color:rgb(0,130,198)"/><stop offset="98.333%" stop-opacity="1" style="stop-color:rgb(0,168,129)"/></linearGradient><path d=" M 17.361 38.565 L 14.191 40.395 L 11.021 38.565 L 11.021 34.905 L 14.191 33.075 L 17.361 34.905 L 17.361 38.565 Z " fill="url(#_lgradient_21)"/><linearGradient id="_lgradient_22" x1="0.14600235948156026" y1="0.8540000000000001" x2="0.8014920328552141" y2="0.0971132912260877" gradientTransform="matrix(6.021,0,0,6.953,15.537,25.395)" gradientUnits="userSpaceOnUse"><stop offset="12.917000000000002%" stop-opacity="1" style="stop-color:rgb(0,130,198)"/><stop offset="98.333%" stop-opacity="1" style="stop-color:rgb(0,168,129)"/></linearGradient><path d=" M 21.559 30.609 L 18.548 32.348 L 15.537 30.609 L 15.537 27.133 L 18.548 25.395 L 21.559 27.133 L 21.559 30.609 Z " fill="url(#_lgradient_22)"/><linearGradient id="_lgradient_23" x1="0.14600235948156026" y1="0.8540000000000001" x2="0.8014920328552145" y2="0.09711329122608714" gradientTransform="matrix(6.021,0,0,6.953,73.614,19.108)" gradientUnits="userSpaceOnUse"><stop offset="12.917000000000002%" stop-opacity="1" style="stop-color:rgb(0,130,198)"/><stop offset="98.333%" stop-opacity="1" style="stop-color:rgb(0,168,129)"/></linearGradient><path d=" M 79.636 24.323 L 76.625 26.061 L 73.614 24.323 L 73.614 20.847 L 76.625 19.108 L 79.636 20.847 L 79.636 24.323 Z " fill="url(#_lgradient_23)"/><linearGradient id="_lgradient_24" x1="0.14600235948156026" y1="0.8540000000000001" x2="0.8014920328552141" y2="0.0971132912260877" gradientTransform="matrix(6.021,0,0,6.953,79.1,25.395)" gradientUnits="userSpaceOnUse"><stop offset="12.917000000000002%" stop-opacity="1" style="stop-color:rgb(0,130,198)"/><stop offset="98.333%" stop-opacity="1" style="stop-color:rgb(0,168,129)"/></linearGradient><path d=" M 85.122 30.609 L 82.111 32.348 L 79.1 30.609 L 79.1 27.133 L 82.111 25.395 L 85.122 27.133 L 85.122 30.609 Z " fill="url(#_lgradient_24)"/><linearGradient id="_lgradient_25" x1="0.1460000000000008" y1="0.854000000000001" x2="0.8014835622814855" y2="0.09711870179084792" gradientTransform="matrix(4.295,0,0,4.959,72.331,30.596)" gradientUnits="userSpaceOnUse"><stop offset="12.917000000000002%" stop-opacity="1" style="stop-color:rgb(0,130,198)"/><stop offset="98.333%" stop-opacity="1" style="stop-color:rgb(0,168,129)"/></linearGradient><path d=" M 76.625 34.315 L 74.478 35.554 L 72.331 34.315 L 72.331 31.835 L 74.478 30.596 L 76.625 31.835 L 76.625 34.315 Z " fill="url(#_lgradient_25)"/><linearGradient id="_lgradient_26" x1="0.1460000000000008" y1="0.8539999999999992" x2="0.8014835622814851" y2="0.0971187017908467" gradientTransform="matrix(9.144,0,0,10.558,49.709,5.904)" gradientUnits="userSpaceOnUse"><stop offset="12.917000000000002%" stop-opacity="1" style="stop-color:rgb(0,130,198)"/><stop offset="98.333%" stop-opacity="1" style="stop-color:rgb(0,168,129)"/></linearGradient><path d=" M 58.853 13.822 L 54.281 16.462 L 49.709 13.822 L 49.709 8.543 L 54.281 5.904 L 58.853 8.543 L 58.853 13.822 Z " fill="url(#_lgradient_26)"/><linearGradient id="_lgradient_27" x1="0.1460000000000008" y1="0.854000000000001" x2="0.8014835622814849" y2="0.09711870179084747" gradientTransform="matrix(4.295,0,0,4.959,13.628,45.486)" gradientUnits="userSpaceOnUse"><stop offset="12.917000000000002%" stop-opacity="1" style="stop-color:rgb(0,130,198)"/><stop offset="98.333%" stop-opacity="1" style="stop-color:rgb(0,168,129)"/></linearGradient><path d=" M 17.923 49.206 L 15.776 50.445 L 13.628 49.206 L 13.628 46.726 L 15.776 45.486 L 17.923 46.726 L 17.923 49.206 Z " fill="url(#_lgradient_27)"/><linearGradient id="_lgradient_28" x1="0.1460000000000008" y1="0.8540000000000028" x2="0.8014835622814858" y2="0.09711870179084825" gradientTransform="matrix(7.556,0,0,8.725,54.651,47.881)" gradientUnits="userSpaceOnUse"><stop offset="12.917000000000002%" stop-opacity="1" style="stop-color:rgb(0,130,198)"/><stop offset="98.333%" stop-opacity="1" style="stop-color:rgb(0,168,129)"/></linearGradient><path d=" M 62.207 54.425 L 58.429 56.606 L 54.651 54.425 L 54.651 50.063 L 58.429 47.881 L 62.207 50.063 L 62.207 54.425 Z " fill="url(#_lgradient_28)"/><linearGradient id="_lgradient_29" x1="0.1460000000000008" y1="0.854000000000001" x2="0.8014835622814849" y2="0.09711870179084747" gradientTransform="matrix(4.295,0,0,4.959,64.113,52.618)" gradientUnits="userSpaceOnUse"><stop offset="12.917000000000002%" stop-opacity="1" style="stop-color:rgb(0,130,198)"/><stop offset="98.333%" stop-opacity="1" style="stop-color:rgb(0,168,129)"/></linearGradient><path d=" M 68.408 56.337 L 66.26 57.577 L 64.113 56.337 L 64.113 53.858 L 66.26 52.618 L 68.408 53.858 L 68.408 56.337 Z " fill="url(#_lgradient_29)"/><linearGradient id="_lgradient_30" x1="0.1460000000000008" y1="0.8539832420870894" x2="0.8014771310856036" y2="0.09710936992515928" gradientTransform="matrix(4.295,0,0,4.959,29.619,67.041)" gradientUnits="userSpaceOnUse"><stop offset="12.917000000000002%" stop-opacity="1" style="stop-color:rgb(0,130,198)"/><stop offset="98.333%" stop-opacity="1" style="stop-color:rgb(0,168,129)"/></linearGradient><path d=" M 33.913 70.76 L 31.766 72 L 29.619 70.76 L 29.619 68.281 L 31.766 67.041 L 33.913 68.281 L 33.913 70.76 Z " fill="url(#_lgradient_30)"/><linearGradient id="_lgradient_31" x1="0.14599999999999902" y1="0.8540000000000005" x2="0.8014812971175469" y2="0.09711674009190996" gradientTransform="matrix(12.348,0,0,14.258,25.016,15.594)" gradientUnits="userSpaceOnUse"><stop offset="12.917000000000002%" stop-opacity="1" style="stop-color:rgb(0,130,198)"/><stop offset="98.333%" stop-opacity="1" style="stop-color:rgb(0,168,129)"/></linearGradient><path d=" M 37.364 26.288 L 31.19 29.852 L 25.016 26.288 L 25.016 19.159 L 31.19 15.594 L 37.364 19.159 L 37.364 26.288 Z " fill="url(#_lgradient_31)"/><linearGradient id="_lgradient_32" x1="0.1460000000000008" y1="0.8539999999999996" x2="0.8014797451057407" y2="0.09711539601064878" gradientTransform="matrix(13.336,0,0,15.399,44.279,18.874)" gradientUnits="userSpaceOnUse"><stop offset="12.917000000000002%" stop-opacity="1" style="stop-color:rgb(0,130,198)"/><stop offset="98.333%" stop-opacity="1" style="stop-color:rgb(0,168,129)"/></linearGradient><path d=" M 57.615 30.423 L 50.947 34.272 L 44.279 30.423 L 44.279 22.723 L 50.947 18.874 L 57.615 22.723 L 57.615 30.423 Z " fill="url(#_lgradient_32)"/><linearGradient id="_lgradient_33" x1="0.14600000000000257" y1="0.8540000000000001" x2="0.8014815750950873" y2="0.09711698082803955" gradientTransform="matrix(10.075,0,0,11.633,32.97,42.439)" gradientUnits="userSpaceOnUse"><stop offset="12.917000000000002%" stop-opacity="1" style="stop-color:rgb(0,130,198)"/><stop offset="98.333%" stop-opacity="1" style="stop-color:rgb(0,168,129)"/></linearGradient><path d=" M 43.044 51.164 L 38.007 54.072 L 32.97 51.164 L 32.97 45.347 L 38.007 42.439 L 43.044 45.347 L 43.044 51.164 Z " fill="url(#_lgradient_33)"/><linearGradient id="_lgradient_34" x1="0.14600000000000257" y1="0.8539924881472825" x2="0.8014778845644029" y2="0.09711209827791667" gradientTransform="matrix(9.581,0,0,11.063,20.869,34.541)" gradientUnits="userSpaceOnUse"><stop offset="12.917000000000002%" stop-opacity="1" style="stop-color:rgb(0,130,198)"/><stop offset="98.333%" stop-opacity="1" style="stop-color:rgb(0,168,129)"/></linearGradient><path d=" M 30.449 42.839 L 25.659 45.604 L 20.869 42.839 L 20.869 37.307 L 25.659 34.541 L 30.449 37.307 L 30.449 42.839 Z " fill="url(#_lgradient_34)"/><linearGradient id="_lgradient_35" x1="0.14600115059381658" y1="0.8540000000000005" x2="0.8014850305682597" y2="0.09711375767096941" gradientTransform="matrix(12.348,0,0,14.258,59.591,34.953)" gradientUnits="userSpaceOnUse"><stop offset="12.917000000000002%" stop-opacity="1" style="stop-color:rgb(0,130,198)"/><stop offset="98.333%" stop-opacity="1" style="stop-color:rgb(0,168,129)"/></linearGradient><path d=" M 71.938 45.646 L 65.765 49.211 L 59.591 45.646 L 59.591 38.517 L 65.765 34.953 L 71.938 38.517 L 71.938 45.646 Z " fill="url(#_lgradient_35)"/><linearGradient id="_lgradient_36" x1="0.14599999999999724" y1="0.8539999999999992" x2="0.8014799105552118" y2="0.09711553929378969" gradientTransform="matrix(11.36,0,0,13.118,77.619,34.848)" gradientUnits="userSpaceOnUse"><stop offset="12.917000000000002%" stop-opacity="1" style="stop-color:rgb(0,130,198)"/><stop offset="98.333%" stop-opacity="1" style="stop-color:rgb(0,168,129)"/></linearGradient><path d=" M 88.979 44.687 L 83.299 47.966 L 77.619 44.687 L 77.619 38.128 L 83.299 34.848 L 88.979 38.128 L 88.979 44.687 Z " fill="url(#_lgradient_36)"/></g><g clip-path="url(#_clipPath_KPYvpXd6rO1F8oQ0103SMHU5xAQJLgvR)"><text transform="matrix(1,0,0,1,4.55,83.776)" style="font-family:'Montserrat';font-weight:400;font-size:7px;font-style:normal;fill:#363733;stroke:none;">360 Business Intelligence</text></g><defs><clipPath id="_clipPath_KPYvpXd6rO1F8oQ0103SMHU5xAQJLgvR"><rect x="0" y="0" width="100" height="23" transform="matrix(1,0,0,1,0,77)"/></clipPath></defs></g></svg>
