<svg
  xmlns="http://www.w3.org/2000/svg"
  style="isolation:isolate"
  viewBox="0 0 100 100"
  width="100pt"
  height="100pt"
>
  <defs>
    <clipPath id="_clipPath_6VINuJypDf4oeyuZZ5fZW8kWYzfkYlHq">
      <path d="M0 0h100v100H0z" />
    </clipPath>
  </defs>
  <g clip-path="url(#_clipPath_6VINuJypDf4oeyuZZ5fZW8kWYzfkYlHq)">
    <g fill="#363733">
      <path d="M13.9 70.736h4.442v.774h-5.286v-8.299h5.146v.774H13.9v2.824h4.02v.774H13.9v3.153M23.558 68.556h3.599l-1.794-4.36-1.805 4.36zm-1.231 2.954h-.984l3.61-8.299h.821l3.61 8.299h-.985l-.914-2.18h-4.243l-.915 2.18zM39.101 64.735a3.076 3.076 0 00-1.008-.704c-.391-.171-.844-.257-1.36-.257-.531 0-1.008.097-1.43.293a3.24 3.24 0 00-1.072.785 3.447 3.447 0 00-.674 1.143 3.977 3.977 0 00-.235 1.365c0 .477.078.932.235 1.366.156.434.381.815.674 1.143.293.328.65.59 1.072.785.422.196.899.293 1.43.293.43 0 .842-.053 1.237-.158a4.425 4.425 0 001.061-.428v-2.778H37.05v-.774h2.825v4.068a6.048 6.048 0 01-1.542.627 6.37 6.37 0 01-1.6.217c-.617 0-1.189-.11-1.717-.328a4.19 4.19 0 01-1.371-.909 4.174 4.174 0 01-.909-1.377 4.544 4.544 0 01-.328-1.747c0-.633.109-1.215.328-1.746.219-.531.522-.991.909-1.377a4.19 4.19 0 011.371-.909A4.436 4.436 0 0136.733 63c.664 0 1.237.092 1.718.275.48.184.908.463 1.283.838l-.633.622zM45.396 70.736h3.868v.774h-4.712v-8.299h.844v7.525M53.718 70.736h4.443v.774h-5.287v-8.299h5.146v.774h-4.302v2.824h4.02v.774h-4.02v3.153M63.9 70.856h4.442v.774h-5.286v-8.299h5.146v.774H63.9v2.824h4.02v.774H63.9v3.153M75.129 71.63h-.844v-3.575l-3.106-4.724h1.055l2.473 3.915 2.473-3.915h1.055l-3.106 4.724v3.575M82.502 70.856h4.442v.774h-5.286v-8.299h5.146v.774h-4.302v2.824h4.02v.774h-4.02v3.153" />
    </g>
    <g fill="#0F957A">
      <path d="M18.596 75.547l-.324.023.911 1.643.917-1.643-.324-.023v-.206h.928v.206l-.287.023-1.097 1.909v.997l.377.03v.204h-1.032v-.204l.377-.03v-1.014l-1.087-1.892-.285-.023v-.206h.926v.206M21.095 77.497c0 .29.073.534.22.731.146.198.35.297.613.297a.713.713 0 00.606-.297c.147-.197.22-.441.22-.731v-.076a1.19 1.19 0 00-.221-.727.718.718 0 00-.61-.298.712.712 0 00-.608.298c-.147.199-.22.441-.22.727v.076zm-.278-.076c0-.369.101-.671.303-.907.202-.236.47-.354.803-.354.335 0 .603.118.805.354.202.236.303.538.303.907v.076c0 .37-.1.673-.302.908-.201.236-.468.353-.801.353-.337 0-.606-.117-.808-.353-.202-.235-.303-.538-.303-.908v-.076zM25.322 78.298a.859.859 0 01-.322.34.94.94 0 01-.483.12c-.264 0-.47-.089-.619-.268-.149-.179-.223-.457-.223-.833v-1.215l-.31-.03v-.206h.585v1.455c0 .306.052.525.156.658a.532.532 0 00.443.199c.21 0 .377-.047.501-.139a.736.736 0 00.263-.384v-1.553l-.356-.03v-.206h.634v2.27l.335.03v.204h-.578l-.026-.412zM26.933 76.206l.034.417v.03a.89.89 0 01.291-.363.732.732 0 01.539-.122c.033.005.06.011.082.017l-.037.259-.206-.014a.628.628 0 00-.429.147.813.813 0 00-.24.404v1.495l.378.03v.204h-1.03v-.204l.377-.03v-2.034l-.377-.03v-.206h.618zM29.679 77.527c0 .301.062.541.184.721.123.18.306.27.55.27a.78.78 0 00.45-.123.79.79 0 00.276-.338v-1.161a.876.876 0 00-.266-.358.708.708 0 00-.456-.138.609.609 0 00-.551.301c-.125.201-.187.46-.187.778v.048zm-.277-.048c0-.4.085-.72.255-.959a.823.823 0 01.71-.36.88.88 0 01.461.117.918.918 0 01.323.329l.032-.4h.234v2.471c0 .323-.087.577-.261.764-.175.186-.418.28-.729.28a1.866 1.866 0 01-.743-.164l.074-.234a1.537 1.537 0 00.664.15c.238 0 .417-.07.537-.21.12-.141.18-.336.18-.586v-.317a.863.863 0 01-.321.295.959.959 0 01-.456.103.838.838 0 01-.706-.335c-.17-.224-.254-.522-.254-.896v-.048zM33.886 78.298a.854.854 0 01-.323.34.934.934 0 01-.482.12c-.264 0-.47-.089-.619-.268-.149-.179-.224-.457-.224-.833v-1.215l-.31-.03v-.206h.586v1.455c0 .306.052.525.156.658a.532.532 0 00.443.199c.21 0 .377-.047.501-.139a.742.742 0 00.263-.384v-1.553l-.357-.03v-.206h.634v2.27l.336.03v.204h-.579l-.025-.412zM35.256 75.489h.275V75.1h-.275v.389zm-.377 3.017l.377-.03v-2.034l-.377-.03v-.206h.652v2.27l.377.03v.204h-1.029v-.204zM36.653 77.527c0 .303.061.543.182.722.121.179.304.269.547.269.178 0 .326-.04.446-.121a.795.795 0 00.278-.331v-1.184a.847.847 0 00-.267-.347.717.717 0 00-.452-.135c-.244 0-.427.1-.55.3-.122.2-.184.459-.184.779v.048zm1.46.822a.862.862 0 01-.321.303.96.96 0 01-.463.106.832.832 0 01-.702-.335c-.169-.224-.254-.522-.254-.896v-.048c0-.4.085-.72.254-.959a.815.815 0 01.707-.36.89.89 0 01.453.11.892.892 0 01.319.313v-1.247l-.377-.03V75.1h.655v3.376l.377.03v.204h-.624l-.024-.361zM40.254 76.396a.662.662 0 00-.515.235.999.999 0 00-.244.588l.004.012h1.467v-.069c0-.218-.064-.4-.192-.546a.653.653 0 00-.52-.22zm.037 2.362c-.315 0-.576-.115-.782-.346-.207-.23-.31-.524-.31-.88v-.127c0-.358.103-.655.309-.891a.954.954 0 01.746-.354c.307 0 .548.097.724.291.176.195.264.454.264.778v.236h-1.768v.067c0 .281.075.516.226.707.15.19.347.286.591.286.171 0 .318-.024.439-.072a.885.885 0 00.313-.206l.118.19a.995.995 0 01-.357.234 1.363 1.363 0 01-.513.087zM42.85 76.433v-.227h.414v-.366c0-.251.063-.445.19-.583.126-.137.303-.206.53-.206.049 0 .1.004.153.012.052.008.105.018.159.032l-.034.229a1.07 1.07 0 00-.25-.03c-.152 0-.268.048-.349.144-.081.095-.121.23-.121.402v.366h.597v.227h-.597v2.043l.377.03v.204h-1.032v-.204l.377-.03v-2.043h-.414zM44.845 77.497c0 .29.073.534.219.731a.72.72 0 00.614.297.713.713 0 00.606-.297c.146-.197.22-.441.22-.731v-.076a1.19 1.19 0 00-.221-.727.718.718 0 00-.61-.298.715.715 0 00-.609.298 1.194 1.194 0 00-.219.727v.076zm-.278-.076c0-.369.101-.671.303-.907.202-.236.47-.354.803-.354.335 0 .603.118.805.354.202.236.303.538.303.907v.076c0 .37-.1.673-.302.908-.201.236-.468.353-.801.353-.337 0-.606-.117-.808-.353-.202-.235-.303-.538-.303-.908v-.076zM47.832 76.206l.034.417v.03a.89.89 0 01.291-.363.732.732 0 01.539-.122.678.678 0 01.082.017l-.037.259-.206-.014a.628.628 0 00-.429.147.813.813 0 00-.24.404v1.495l.378.03v.204h-1.03v-.204l.377-.03v-2.034l-.377-.03v-.206h.618zM52.161 77.479c0-.32-.062-.579-.185-.779a.6.6 0 00-.546-.3.722.722 0 00-.469.144.849.849 0 00-.262.368v1.131a.783.783 0 00.276.346.783.783 0 00.46.129c.24 0 .421-.09.543-.269.122-.179.183-.419.183-.722v-.048zm.28.048c0 .375-.085.674-.254.897a.834.834 0 01-.702.334.96.96 0 01-.474-.11.848.848 0 01-.322-.316l-.03.378h-.236v-3.374l-.377-.03V75.1h.653v1.499a.904.904 0 01.319-.325.9.9 0 01.463-.114c.301 0 .536.12.706.36.169.239.254.559.254.959v.048zM53.978 76.396a.66.66 0 00-.515.235.999.999 0 00-.244.588l.004.012h1.467v-.069c0-.218-.064-.4-.192-.546a.653.653 0 00-.52-.22zm.037 2.362c-.315 0-.576-.115-.782-.346-.207-.23-.31-.524-.31-.88v-.127c0-.358.103-.655.308-.891a.957.957 0 01.747-.354c.306 0 .548.097.724.291.176.195.264.454.264.778v.236h-1.768v.067c0 .281.075.516.225.707a.72.72 0 00.592.286c.171 0 .317-.024.439-.072a.885.885 0 00.313-.206l.118.19a1.004 1.004 0 01-.357.234 1.363 1.363 0 01-.513.087zM57.277 76.979h-.227l-.032-.354a.69.69 0 00-.263-.169 1.021 1.021 0 00-.364-.06c-.202 0-.354.043-.455.13a.396.396 0 00-.151.307c0 .116.043.211.13.287.087.076.261.142.522.199.298.066.521.157.669.272a.561.561 0 01.222.468.606.606 0 01-.253.506c-.169.129-.392.193-.67.193-.185 0-.354-.026-.506-.077a1.206 1.206 0 01-.394-.219v-.504h.224l.039.356a.65.65 0 00.282.161c.113.033.231.05.355.05.2 0 .358-.044.474-.132.116-.088.174-.195.174-.32a.404.404 0 00-.145-.307c-.096-.088-.27-.16-.522-.216-.297-.064-.518-.15-.663-.258a.528.528 0 01-.216-.45c0-.191.081-.353.243-.484.162-.132.376-.198.641-.198.184 0 .351.028.503.084.152.056.276.133.372.228l.011.507zM58.469 75.565v.641h.551v.227h-.551v1.631c0 .164.03.28.089.348a.296.296 0 00.237.103 1.403 1.403 0 00.278-.025l.041.206a.723.723 0 01-.168.046 1.223 1.223 0 01-.199.016.52.52 0 01-.411-.166c-.098-.111-.147-.287-.147-.528v-1.631h-.43v-.227h.43v-.641h.28zM61.748 76.396a.66.66 0 00-.515.235.999.999 0 00-.244.588l.004.012h1.467v-.069c0-.218-.064-.4-.192-.546a.653.653 0 00-.52-.22zm.037 2.362c-.315 0-.576-.115-.782-.346-.207-.23-.311-.524-.311-.88v-.127c0-.358.103-.655.309-.891a.957.957 0 01.747-.354c.307 0 .548.097.724.291.176.195.264.454.264.778v.236h-1.768v.067c0 .281.075.516.225.707a.72.72 0 00.592.286c.171 0 .317-.024.439-.072a.885.885 0 00.313-.206l.118.19a.995.995 0 01-.357.234 1.363 1.363 0 01-.513.087zM63.175 78.506l.28-.025.792-1.046-.755-.998-.282-.025v-.206h.849v.206l-.259.014.597.803.599-.806-.256-.011v-.206h.849v.206l-.28.025-.755.998.79 1.046.282.025v.204h-.847v-.204l.257-.012-.637-.851-.634.851.257.012v.204h-.847v-.204M67.009 76.396a.66.66 0 00-.514.235c-.14.156-.221.352-.245.588l.005.012h1.467v-.069c0-.218-.064-.4-.192-.546a.655.655 0 00-.521-.22zm.037 2.362c-.314 0-.575-.115-.782-.346-.206-.23-.31-.524-.31-.88v-.127c0-.358.103-.655.309-.891a.957.957 0 01.746-.354c.307 0 .549.097.725.291.176.195.264.454.264.778v.236H66.23v.067c0 .281.075.516.225.707a.72.72 0 00.591.286 1.2 1.2 0 00.44-.072.872.872 0 00.312-.206l.119.19a1.004 1.004 0 01-.357.234 1.368 1.368 0 01-.514.087zM69.562 78.525a.793.793 0 00.486-.158c.14-.105.21-.25.21-.437h.246l.004.014a.688.688 0 01-.276.581 1.037 1.037 0 01-.67.233c-.34 0-.603-.117-.789-.35-.187-.234-.28-.534-.28-.902v-.097c0-.364.093-.663.28-.898.186-.234.449-.351.786-.351.193 0 .37.036.53.108.161.073.291.172.391.297l.012.546h-.236l-.044-.445a.78.78 0 00-.277-.197.914.914 0 00-.376-.073c-.268 0-.467.096-.595.288-.129.192-.194.434-.194.725v.097c0 .297.064.54.193.732.127.191.327.287.599.287zM72.864 78.298a.86.86 0 01-.323.34.937.937 0 01-.482.12c-.264 0-.471-.089-.619-.268-.149-.179-.224-.457-.224-.833v-1.215l-.31-.03v-.206h.586v1.455c0 .306.052.525.156.658a.531.531 0 00.443.199c.21 0 .377-.047.501-.139a.74.74 0 00.262-.384v-1.553l-.356-.03v-.206h.634v2.27l.336.03v.204h-.579l-.025-.412zM74.511 75.565v.641h.551v.227h-.551v1.631c0 .164.03.28.089.348.06.069.139.103.237.103a1.654 1.654 0 00.278-.025l.042.206a.747.747 0 01-.169.046 1.223 1.223 0 01-.199.016.52.52 0 01-.411-.166c-.098-.111-.147-.287-.147-.528v-1.631h-.43v-.227h.43v-.641h.28zM75.929 75.489h.276V75.1h-.276v.389zm-.377 3.017l.377-.03v-2.034l-.377-.03v-.206h.653v2.27l.377.03v.204h-1.03v-.204zM77.325 77.497c0 .29.073.534.22.731a.719.719 0 00.613.297c.258 0 .46-.099.606-.297.147-.197.22-.441.22-.731v-.076a1.19 1.19 0 00-.221-.727.717.717 0 00-.61-.298.712.712 0 00-.608.298c-.147.199-.22.441-.22.727v.076zm-.278-.076c0-.369.101-.671.303-.907.202-.236.47-.354.803-.354.335 0 .603.118.805.354.203.236.304.538.304.907v.076c0 .37-.101.673-.302.908-.202.236-.469.353-.802.353-.337 0-.606-.117-.808-.353-.202-.235-.303-.538-.303-.908v-.076zM79.662 78.506l.377-.03v-2.034l-.377-.03v-.206h.622l.026.437a.887.887 0 01.325-.357.905.905 0 01.485-.126c.271 0 .478.083.62.248.142.166.213.425.213.777v1.291l.377.03v.204h-1.032v-.204l.377-.03v-1.289c0-.287-.054-.49-.161-.608-.107-.119-.259-.179-.457-.179a.717.717 0 00-.475.154.856.856 0 00-.265.409v1.513l.377.03v.204h-1.032v-.204z" />
    </g>
    <linearGradient
      id="_lgradient_8"
      x1="0"
      y1=".5"
      x2="1"
      y2=".5"
      gradientTransform="matrix(61.878 0 0 19.015 19.028 19)"
      gradientUnits="userSpaceOnUse"
    >
      <stop offset="0%" stop-color="#206CA7" />
      <stop offset="100%" stop-color="#0C8E6A" />
    </linearGradient>
    <path
      d="M34.384 38.009c0-8.607 6.977-15.584 15.583-15.584S65.55 29.402 65.55 38.009v.005l15.356.001C72.492 28.194 60.822 19 49.965 19c-10.855 0-22.522 9.19-30.937 19.009l15.356.001v-.001z"
      fill="url(#_lgradient_8)"
    />
    <linearGradient
      id="_lgradient_9"
      x1="0"
      y1=".5"
      x2="1"
      y2=".5"
      gradientTransform="matrix(41.148 0 0 19.008 19.028 38.009)"
      gradientUnits="userSpaceOnUse"
    >
      <stop offset="0%" stop-color="#0C8E6A" />
      <stop offset="100%" stop-color="#197793" />
    </linearGradient>
    <path
      d="M49.967 53.592c-8.605 0-15.582-6.976-15.583-15.582l-15.356-.001c8.416 9.818 20.082 19.008 30.937 19.008 3.37 0 6.814-.881 10.211-2.386l-2.341-3.173a15.505 15.505 0 01-7.868 2.134z"
      fill="url(#_lgradient_9)"
    />
    <linearGradient
      id="_lgradient_10"
      x1="0"
      y1=".5"
      x2="1"
      y2=".5"
      gradientTransform="matrix(20.315 0 0 15.057 60.591 38.014)"
      gradientUnits="userSpaceOnUse"
    >
      <stop offset="0%" stop-color="#197793" />
      <stop offset="100%" stop-color="#206CA7" />
    </linearGradient>
    <path
      d="M80.906 38.015l-15.356-.001a15.534 15.534 0 01-4.959 11.39l2.706 3.667c6.461-3.592 12.614-9.212 17.609-15.056z"
      fill="url(#_lgradient_10)"
    />
    <path
      d="M62.449 38.009c0 6.893-5.588 12.482-12.482 12.482-6.894 0-12.482-5.589-12.482-12.482 0-6.894 5.588-12.483 12.482-12.483 6.894 0 12.482 5.589 12.482 12.483z"
      fill="#1F6CA7"
    />
  </g>
</svg>
