<svg xmlns="http://www.w3.org/2000/svg" xmlns:xlink="http://www.w3.org/1999/xlink" style="isolation:isolate" viewBox="0 0 100 100" width="100pt" height="100pt"><defs><clipPath id="_clipPath_5GHHtZto0WZLVvmliREqh1QhQ2Q9yGKk"><rect width="100" height="100"/></clipPath></defs><g clip-path="url(#_clipPath_5GHHtZto0WZLVvmliREqh1QhQ2Q9yGKk)"><g><g><g><g><g><clipPath id="_clipPath_cEOaYmPkQkYwV4zQUcfIYcar3rIbXb6U"><path d=" M 25.823 41.949 C 25.823 28.597 36.647 17.772 50 17.772 C 63.352 17.772 74.176 28.597 74.176 41.949 C 74.176 41.951 74.176 41.954 74.176 41.957 L 98 41.959 C 84.945 26.722 66.84 12.458 49.996 12.458 C 33.155 12.458 15.055 26.716 2 41.949 L 25.823 41.951 C 25.823 41.951 25.823 41.95 25.823 41.949 Z " fill="rgb(255,255,255)"/></clipPath><g clip-path="url(#_clipPath_cEOaYmPkQkYwV4zQUcfIYcar3rIbXb6U)"><linearGradient id="_lgradient_0" x1="0" y1="0.5" x2="1" y2="0.5" gradientTransform="matrix(96,0,0,29.501,2,12.458)" gradientUnits="userSpaceOnUse"><stop offset="0%" stop-opacity="1" style="stop-color:rgb(32,108,167)"/><stop offset="100%" stop-opacity="1" style="stop-color:rgb(12,142,106)"/></linearGradient><path d=" M 25.823 41.949 C 25.823 28.597 36.647 17.772 50 17.772 C 63.352 17.772 74.176 28.597 74.176 41.949 C 74.176 41.951 74.176 41.954 74.176 41.957 L 98 41.959 C 84.945 26.722 66.84 12.458 49.996 12.458 C 33.155 12.458 15.055 26.716 2 41.949 L 25.823 41.951 C 25.823 41.951 25.823 41.95 25.823 41.949 Z " fill="url(#_lgradient_0)"/></g></g></g></g><g><g><g><clipPath id="_clipPath_B6qeoqUDq0k4SjBqrNoTQJvEBpiWWj1h"><path d=" M 50 66.125 C 36.649 66.125 25.825 55.303 25.823 41.951 L 2 41.949 C 15.056 57.181 33.156 71.439 49.996 71.439 C 55.225 71.439 60.568 70.073 65.838 67.738 L 62.207 62.814 C 58.623 64.915 54.454 66.125 50 66.125 Z " fill="rgb(255,255,255)"/></clipPath><g clip-path="url(#_clipPath_B6qeoqUDq0k4SjBqrNoTQJvEBpiWWj1h)"><linearGradient id="_lgradient_1" x1="0" y1="0.5" x2="1" y2="0.5" gradientTransform="matrix(63.838,0,0,29.49,2,41.949)" gradientUnits="userSpaceOnUse"><stop offset="2.0869507652968263e-15%" stop-opacity="1" style="stop-color:rgb(12,142,106)"/><stop offset="100%" stop-opacity="1" style="stop-color:rgb(25,119,147)"/></linearGradient><path d=" M 50 66.125 C 36.649 66.125 25.825 55.303 25.823 41.951 L 2 41.949 C 15.056 57.181 33.156 71.439 49.996 71.439 C 55.225 71.439 60.568 70.073 65.838 67.738 L 62.207 62.814 C 58.623 64.915 54.454 66.125 50 66.125 Z " fill="url(#_lgradient_1)"/></g></g></g></g><g><g><g><clipPath id="_clipPath_6JVWbNsO7x1wuPMlMzaBCf1ZD5aUBDbB"><path d=" M 98 41.959 L 74.176 41.957 C 74.173 48.934 71.213 55.216 66.483 59.627 L 70.681 65.317 C 80.704 59.745 90.251 51.025 98 41.959 Z " fill="rgb(255,255,255)"/></clipPath><g clip-path="url(#_clipPath_6JVWbNsO7x1wuPMlMzaBCf1ZD5aUBDbB)"><linearGradient id="_lgradient_2" x1="0" y1="0.5" x2="1" y2="0.5" gradientTransform="matrix(31.517,0,0,23.361,66.483,41.957)" gradientUnits="userSpaceOnUse"><stop offset="0%" stop-opacity="1" style="stop-color:rgb(25,119,147)"/><stop offset="99.99999999999996%" stop-opacity="1" style="stop-color:rgb(32,108,167)"/></linearGradient><path d=" M 98 41.959 L 74.176 41.957 C 74.173 48.934 71.213 55.216 66.483 59.627 L 70.681 65.317 C 80.704 59.745 90.251 51.025 98 41.959 Z " fill="url(#_lgradient_2)"/></g></g></g></g><path d=" M 69.365 41.949 C 69.365 52.644 60.695 61.314 50 61.314 C 39.305 61.314 30.634 52.644 30.634 41.949 C 30.634 31.253 39.305 22.583 50 22.583 C 60.695 22.583 69.365 31.253 69.365 41.949 Z " fill="rgb(31,108,167)"/></g><path d=" M 11.379 86.517 L 16.007 86.517 L 16.007 87.322 L 10.5 87.322 L 10.5 78.678 L 15.86 78.678 L 15.86 79.483 L 11.379 79.483 L 11.379 82.426 L 15.567 82.426 L 15.567 83.232 L 11.379 83.232 L 11.379 86.517" fill="rgb(54,55,51)"/><path d=" M 21.44 84.245 L 25.189 84.245 L 23.32 79.703 L 21.44 84.245 Z  M 20.158 87.322 L 19.132 87.322 L 22.893 78.678 L 23.748 78.678 L 27.509 87.322 L 26.483 87.322 L 25.53 85.051 L 21.11 85.051 L 20.158 87.322 L 20.158 87.322 Z " fill="rgb(54,55,51)"/><path d=" M 37.631 80.265 C 37.338 79.956 36.988 79.711 36.581 79.532 C 36.173 79.353 35.701 79.264 35.164 79.264 C 34.61 79.264 34.114 79.365 33.674 79.569 C 33.235 79.773 32.863 80.045 32.557 80.387 C 32.252 80.729 32.018 81.126 31.855 81.578 C 31.692 82.029 31.611 82.504 31.611 83 C 31.611 83.497 31.692 83.971 31.855 84.422 C 32.018 84.874 32.252 85.271 32.557 85.613 C 32.863 85.955 33.235 86.228 33.674 86.431 C 34.114 86.635 34.61 86.736 35.164 86.736 C 35.612 86.736 36.041 86.681 36.452 86.571 C 36.863 86.462 37.232 86.313 37.557 86.126 L 37.557 83.232 L 35.494 83.232 L 35.494 82.426 L 38.436 82.426 L 38.436 86.663 C 37.948 86.948 37.413 87.166 36.831 87.316 C 36.249 87.467 35.693 87.542 35.164 87.542 C 34.521 87.542 33.925 87.428 33.375 87.2 C 32.826 86.972 32.35 86.657 31.947 86.254 C 31.544 85.851 31.228 85.373 31 84.819 C 30.773 84.266 30.659 83.659 30.659 83 C 30.659 82.341 30.773 81.734 31 81.181 C 31.228 80.627 31.544 80.149 31.947 79.746 C 32.35 79.343 32.826 79.028 33.375 78.8 C 33.925 78.572 34.521 78.458 35.164 78.458 C 35.856 78.458 36.452 78.554 36.953 78.745 C 37.453 78.936 37.899 79.227 38.29 79.618 L 37.631 80.265 Z " fill="rgb(54,55,51)"/><path d=" M 44.187 86.517 L 48.217 86.517 L 48.217 87.322 L 43.308 87.322 L 43.308 78.678 L 44.187 78.678 L 44.187 86.517" fill="rgb(54,55,51)"/><path d=" M 52.856 86.517 L 57.484 86.517 L 57.484 87.322 L 51.977 87.322 L 51.977 78.678 L 57.338 78.678 L 57.338 79.483 L 52.856 79.483 L 52.856 82.426 L 57.044 82.426 L 57.044 83.232 L 52.856 83.232 L 52.856 86.517" fill="rgb(54,55,51)"/><path d=" M 65.495 86.297 L 70.123 86.297 L 70.123 87.103 L 64.616 87.103 L 64.616 78.458 L 69.976 78.458 L 69.976 79.264 L 65.495 79.264 L 65.495 82.206 L 69.683 82.206 L 69.683 83.012 L 65.495 83.012 L 65.495 86.297" fill="rgb(54,55,51)"/><path d=" M 77.192 87.103 L 76.313 87.103 L 76.313 83.379 L 73.078 78.458 L 74.176 78.458 L 76.753 82.536 L 79.329 78.458 L 80.428 78.458 L 77.192 83.379 L 77.192 87.103" fill="rgb(54,55,51)"/><path d=" M 84.872 86.297 L 89.5 86.297 L 89.5 87.103 L 83.993 87.103 L 83.993 78.458 L 89.353 78.458 L 89.353 79.264 L 84.872 79.264 L 84.872 82.206 L 89.06 82.206 L 89.06 83.012 L 84.872 83.012 L 84.872 86.297" fill="rgb(54,55,51)"/></g></g></svg>
