<?xml version="1.0" encoding="UTF-8" standalone="no"?><!-- Generator: Gravit.io --><svg xmlns="http://www.w3.org/2000/svg" xmlns:xlink="http://www.w3.org/1999/xlink" style="isolation:isolate" viewBox="0 0 100 100" width="100pt" height="100pt"><defs><clipPath id="_clipPath_VkXa9TLBf8Y4KAZ71beEaH14g2wKPQNS"><rect width="100" height="100"/></clipPath></defs><g clip-path="url(#_clipPath_VkXa9TLBf8Y4KAZ71beEaH14g2wKPQNS)"><linearGradient id="_lgradient_0" x1="0" y1="0.5" x2="1" y2="0.5" gradientTransform="matrix(58.336,0,0,8.737,20.879,79.202)" gradientUnits="userSpaceOnUse"><stop offset="0%" stop-opacity="1" style="stop-color:rgb(54,169,225)"/><stop offset="10.551607538585824%" stop-opacity="1" style="stop-color:rgb(47,157,217)"/><stop offset="32.19277853435641%" stop-opacity="1" style="stop-color:rgb(37,126,194)"/><stop offset="62.63475922641535%" stop-opacity="1" style="stop-color:rgb(40,76,156)"/><stop offset="77.77054811183154%" stop-opacity="1" style="stop-color:rgb(39,52,139)"/><stop offset="100%" stop-opacity="1" style="stop-color:rgb(39,52,139)"/></linearGradient><path d=" M 67.915 87.856 C 65.823 87.338 64.631 85.851 63.627 84.615 C 62.392 83.096 61.537 82.241 59.828 82.241 C 58.118 82.241 57.359 83.096 56.029 84.615 C 54.795 86.135 53.18 87.939 50.046 87.939 C 46.912 87.939 45.393 86.04 44.158 84.52 C 42.924 83.001 42.069 82.146 40.36 82.146 C 40.36 82.146 40.36 82.146 40.36 82.146 C 38.65 82.146 37.891 83.001 36.561 84.52 C 35.539 85.778 34.258 87.23 32.123 87.692 C 27.885 85.54 24.081 82.657 20.879 79.205 C 20.914 79.203 20.95 79.202 20.986 79.202 C 20.986 79.202 20.986 79.202 20.986 79.202 C 24.12 79.202 25.64 81.102 26.874 82.621 C 28.109 84.141 28.964 84.995 30.673 84.995 C 30.673 84.995 30.673 84.995 30.673 84.995 C 32.383 84.995 33.142 84.141 34.472 82.621 C 35.706 81.102 37.321 79.297 40.36 79.297 C 40.36 79.297 40.36 79.297 40.36 79.297 C 43.494 79.297 45.013 81.197 46.248 82.716 C 47.482 84.236 48.337 85.09 50.046 85.09 C 50.046 85.09 50.046 85.09 50.046 85.09 C 51.756 85.09 52.515 84.236 53.845 82.716 C 55.08 81.197 56.694 79.392 59.828 79.392 C 62.962 79.392 64.481 81.292 65.716 82.811 C 66.95 84.33 67.805 85.185 69.515 85.185 C 69.515 85.185 69.515 85.185 69.515 85.185 C 71.224 85.185 71.984 84.33 73.313 82.811 C 74.548 81.292 76.162 79.487 79.201 79.487 C 79.201 79.487 79.201 79.487 79.201 79.487 C 79.206 79.487 79.211 79.487 79.216 79.488 C 75.995 82.91 72.17 85.752 67.915 87.856 Z " fill-rule="evenodd" fill="url(#_lgradient_0)"/><linearGradient id="_lgradient_1" x1="0" y1="0.5" x2="1" y2="0.5" gradientTransform="matrix(68.735,0,0,8.832,15.68,69.706)" gradientUnits="userSpaceOnUse"><stop offset="0%" stop-opacity="1" style="stop-color:rgb(54,169,225)"/><stop offset="10.407744549491397%" stop-opacity="1" style="stop-color:rgb(47,157,217)"/><stop offset="32.048915542627995%" stop-opacity="1" style="stop-color:rgb(37,126,194)"/><stop offset="62.49089623098178%" stop-opacity="1" style="stop-color:rgb(40,76,156)"/><stop offset="77.6266851145558%" stop-opacity="1" style="stop-color:rgb(39,52,139)"/><stop offset="100%" stop-opacity="1" style="stop-color:rgb(39,52,139)"/></linearGradient><path d=" M 82.787 74.975 C 81.653 73.604 80.801 72.84 79.184 72.84 C 79.184 72.84 79.184 72.84 79.184 72.84 C 77.475 72.84 76.715 73.694 75.385 75.214 C 74.151 76.733 72.536 78.538 69.497 78.538 C 69.497 78.538 69.497 78.538 69.497 78.538 C 66.364 78.538 64.844 76.638 63.61 75.119 C 62.375 73.599 61.52 72.745 59.811 72.745 C 59.811 72.745 59.811 72.745 59.811 72.745 C 58.101 72.745 57.342 73.599 56.012 75.119 C 54.778 76.638 53.163 78.443 50.124 78.443 C 50.124 78.443 50.124 78.443 50.124 78.443 C 47.085 78.443 45.471 76.543 44.236 75.024 C 43.002 73.504 42.147 72.65 40.438 72.65 C 40.438 72.65 40.438 72.65 40.438 72.65 C 38.728 72.65 37.969 73.504 36.639 75.024 C 35.404 76.543 33.79 78.348 30.751 78.348 C 30.751 78.348 30.751 78.348 30.751 78.348 C 27.617 78.348 26.098 76.448 24.863 74.929 C 23.629 73.409 22.774 72.555 21.064 72.555 C 21.064 72.555 21.064 72.555 21.064 72.555 C 19.372 72.555 18.611 73.392 17.305 74.884 C 16.721 74.094 16.186 73.267 15.68 72.421 C 16.86 71.067 18.425 69.706 21.064 69.706 C 21.064 69.706 21.064 69.706 21.064 69.706 C 24.198 69.706 25.718 71.605 26.952 73.124 C 28.187 74.644 29.042 75.499 30.751 75.499 C 32.46 75.499 33.22 74.644 34.55 73.124 C 35.784 71.605 37.399 69.801 40.438 69.801 C 40.438 69.801 40.438 69.801 40.438 69.801 C 43.477 69.801 45.091 71.7 46.326 73.219 C 47.56 74.739 48.415 75.594 50.124 75.594 C 50.124 75.594 50.124 75.594 50.124 75.594 C 51.834 75.594 52.593 74.739 53.923 73.219 C 55.157 71.7 56.772 69.896 59.811 69.896 C 59.811 69.896 59.811 69.896 59.811 69.896 C 62.945 69.896 64.464 71.795 65.699 73.314 C 66.933 74.834 67.788 75.689 69.497 75.689 C 69.497 75.689 69.497 75.689 69.497 75.689 C 71.207 75.689 71.967 74.834 73.296 73.314 C 74.531 71.795 76.145 69.991 79.279 69.991 C 81.821 69.991 83.301 71.24 84.415 72.527 C 83.905 73.366 83.37 74.188 82.787 74.975 Z " fill-rule="evenodd" fill="url(#_lgradient_1)"/><linearGradient id="_lgradient_2" x1="0" y1="0.5" x2="1" y2="0.5" gradientTransform="matrix(75.029,0,0,8.832,12.533,60.209)" gradientUnits="userSpaceOnUse"><stop offset="0%" stop-opacity="1" style="stop-color:rgb(54,169,225)"/><stop offset="10.55895543534964%" stop-opacity="1" style="stop-color:rgb(47,157,217)"/><stop offset="32.2208604882728%" stop-opacity="1" style="stop-color:rgb(37,126,194)"/><stop offset="62.692007151416675%" stop-opacity="1" style="stop-color:rgb(40,76,156)"/><stop offset="77.84229739222907%" stop-opacity="1" style="stop-color:rgb(39,52,139)"/><stop offset="100%" stop-opacity="1" style="stop-color:rgb(39,52,139)"/></linearGradient><path d=" M 86.486 68.658 C 84.904 67.993 83.873 66.765 83.022 65.717 C 81.787 64.198 80.932 63.343 79.223 63.343 C 79.223 63.343 79.223 63.343 79.223 63.343 C 77.514 63.343 76.754 64.198 75.424 65.717 C 74.19 67.236 72.575 69.041 69.441 69.041 C 66.308 69.041 64.788 67.142 63.553 65.622 C 62.319 64.103 61.464 63.248 59.755 63.248 C 58.14 63.248 57.286 64.103 55.956 65.622 C 54.722 67.142 53.107 68.946 50.068 68.946 C 50.068 68.946 50.068 68.946 50.068 68.946 C 46.934 68.946 45.415 67.047 44.18 65.527 C 42.946 64.008 42.091 63.153 40.382 63.153 C 40.382 63.153 40.382 63.153 40.382 63.153 C 38.672 63.153 37.912 64.008 36.583 65.527 C 35.348 67.047 33.734 68.851 30.695 68.851 C 30.695 68.851 30.695 68.851 30.695 68.851 C 27.561 68.851 26.042 66.952 24.807 65.432 C 23.572 63.913 22.718 63.058 21.008 63.058 C 21.008 63.058 21.008 63.058 21.008 63.058 C 19.299 63.058 18.539 63.913 17.21 65.432 C 16.329 66.516 15.255 67.745 13.605 68.355 C 13.215 67.484 12.855 66.598 12.533 65.693 C 13.493 65.386 14.157 64.634 15.12 63.533 C 16.355 62.013 17.969 60.209 21.008 60.209 C 21.008 60.209 21.008 60.209 21.008 60.209 C 24.142 60.209 25.662 62.108 26.896 63.628 C 28.131 65.147 28.986 66.002 30.695 66.002 C 32.309 66.002 33.164 65.147 34.494 63.628 C 35.728 62.108 37.343 60.304 40.382 60.304 C 40.382 60.304 40.382 60.304 40.382 60.304 C 43.421 60.304 45.035 62.203 46.27 63.723 C 47.504 65.242 48.359 66.097 50.068 66.097 C 50.068 66.097 50.068 66.097 50.068 66.097 C 51.778 66.097 52.537 65.242 53.867 63.723 C 55.101 62.203 56.716 60.399 59.755 60.399 C 59.755 60.399 59.755 60.399 59.755 60.399 C 62.889 60.399 64.408 62.298 65.643 63.818 C 66.877 65.337 67.732 66.192 69.441 66.192 C 69.441 66.192 69.441 66.192 69.441 66.192 C 71.151 66.192 71.911 65.337 73.24 63.818 C 74.475 62.298 76.089 60.494 79.128 60.494 C 79.128 60.494 79.128 60.494 79.128 60.494 C 82.262 60.494 83.781 62.393 85.016 63.913 C 85.903 65.004 86.594 65.753 87.562 66.065 C 87.237 66.947 86.877 67.811 86.486 68.658 Z " fill-rule="evenodd" fill="url(#_lgradient_2)"/><g><g><linearGradient id="_lgradient_3" x1="0" y1="0.5" x2="1" y2="0.5" gradientTransform="matrix(41.026,0,0,45.204,29.535,19.848)" gradientUnits="userSpaceOnUse"><stop offset="0%" stop-opacity="1" style="stop-color:rgb(54,169,225)"/><stop offset="4.961000313929789%" stop-opacity="1" style="stop-color:rgb(48,159,218)"/><stop offset="22.916253618652394%" stop-opacity="1" style="stop-color:rgb(37,126,194)"/><stop offset="40.51513017395194%" stop-opacity="1" style="stop-color:rgb(37,98,173)"/><stop offset="57.382806963436536%" stop-opacity="1" style="stop-color:rgb(40,78,157)"/><stop offset="73.31895528414319%" stop-opacity="1" style="stop-color:rgb(41,63,146)"/><stop offset="87.9629834707385%" stop-opacity="1" style="stop-color:rgb(40,55,141)"/><stop offset="100%" stop-opacity="1" style="stop-color:rgb(39,52,139)"/></linearGradient><path d=" M 66.857 46.534 L 62.393 46.534 L 56.6 22.982 C 56.6 22.887 56.505 22.792 56.505 22.697 L 57.835 22.697 C 58.594 22.697 59.259 22.032 59.259 21.273 C 59.259 20.513 58.594 19.848 57.835 19.848 L 42.45 19.848 C 41.69 19.848 41.026 20.513 41.026 21.273 C 41.026 22.032 41.69 22.697 42.45 22.697 L 43.685 22.697 C 43.685 22.792 43.59 22.887 43.59 22.982 L 37.797 46.534 L 33.333 46.534 C 31.244 46.534 29.535 48.243 29.535 50.332 L 29.535 63.818 C 29.535 64.482 30.104 65.052 30.769 65.052 C 31.434 65.052 32.004 64.482 32.004 63.818 L 32.004 50.332 C 32.004 49.668 32.574 49.098 33.238 49.098 L 38.746 49.098 L 61.349 49.098 L 66.857 49.098 C 67.521 49.098 68.091 49.668 68.091 50.332 L 68.091 63.818 C 68.091 64.482 68.661 65.052 69.326 65.052 C 69.991 65.052 70.56 64.482 70.56 63.818 L 70.56 50.332 C 70.56 48.243 68.851 46.534 66.857 46.534 Z  M 44.255 30.959 C 48.148 30.294 52.042 30.294 55.935 30.959 L 57.835 38.462 C 52.707 37.702 47.578 37.702 42.45 38.462 L 44.255 30.959 Z  M 53.371 22.697 C 53.751 22.887 54.036 23.172 54.131 23.552 L 55.461 28.87 C 51.947 28.395 48.338 28.395 44.824 28.87 L 46.154 23.552 C 46.249 23.172 46.534 22.887 46.914 22.697 L 53.371 22.697 Z  M 40.361 46.534 L 41.88 40.361 C 47.293 39.506 52.802 39.506 58.215 40.361 L 59.734 46.534 L 40.361 46.534 Z " fill="url(#_lgradient_3)"/><linearGradient id="_lgradient_4" x1="0" y1="0.5" x2="1" y2="0.5" gradientTransform="matrix(81.481,0,0,86.325,9.307,6.838)" gradientUnits="userSpaceOnUse"><stop offset="0%" stop-opacity="1" style="stop-color:rgb(54,169,225)"/><stop offset="4.999339662752254%" stop-opacity="1" style="stop-color:rgb(48,159,218)"/><stop offset="22.939171356148467%" stop-opacity="1" style="stop-color:rgb(37,126,194)"/><stop offset="40.522932389020625%" stop-opacity="1" style="stop-color:rgb(37,98,173)"/><stop offset="57.37612167721453%" stop-opacity="1" style="stop-color:rgb(40,78,157)"/><stop offset="73.29858257835261%" stop-opacity="1" style="stop-color:rgb(41,63,146)"/><stop offset="87.93003313615517%" stop-opacity="1" style="stop-color:rgb(40,55,141)"/><stop offset="100%" stop-opacity="1" style="stop-color:rgb(39,52,139)"/></linearGradient><path d=" M 55.745 12.061 C 55.271 9.117 52.612 6.838 49.573 6.838 C 46.344 6.838 43.78 9.212 43.305 12.251 C 24.027 15.48 9.307 32.289 9.307 52.422 C 9.307 74.929 27.635 93.162 50.047 93.162 C 72.46 93.162 90.788 74.834 90.788 52.422 C 90.788 31.909 75.499 14.815 55.745 12.061 Z  M 49.478 8.547 C 52.042 8.547 54.036 10.541 54.036 13.105 C 54.036 15.67 52.042 17.664 49.478 17.664 C 46.914 17.664 44.919 15.67 44.919 13.105 C 44.919 10.541 47.009 8.547 49.478 8.547 Z  M 50.047 90.978 C 28.775 90.978 11.586 73.694 11.586 52.517 C 11.586 33.523 25.356 17.759 43.4 14.625 C 44.065 17.379 46.534 19.468 49.573 19.468 C 52.612 19.468 55.176 17.284 55.745 14.435 C 74.359 17.189 88.604 33.238 88.604 52.517 C 88.509 73.694 71.32 90.978 50.047 90.978 Z " fill="url(#_lgradient_4)"/></g></g></g></svg>