<?xml version="1.0" encoding="UTF-8"?>
<svg width="178px" height="51px" viewBox="0 0 178 51" version="1.1" xmlns="http://www.w3.org/2000/svg" xmlns:xlink="http://www.w3.org/1999/xlink">
    <!-- Generator: Sketch 50.2 (55047) - http://www.bohemiancoding.com/sketch -->
    <title>LOGOS/ cabecera</title>
    <desc>Created with Sketch.</desc>
    <defs>
        <path d="M0.919,12.082 C0.919,5.509 6.267,0.162 12.84,0.162 C19.411,0.162 24.758,5.509 24.758,12.082 C24.758,18.655 19.411,24.003 12.84,24.003 M3.537,12.082 C3.537,17.212 7.71,21.384 12.84,21.384 C17.968,21.384 22.141,17.212 22.141,12.082 C22.141,6.953 17.968,2.781 12.84,2.781" id="path-1"></path>
        <linearGradient x1="0%" y1="50%" x2="100%" y2="50%" id="linearGradient-3">
            <stop stop-color="#009B74" offset="0%"></stop>
            <stop stop-color="#0075B1" offset="100%"></stop>
        </linearGradient>
    </defs>
    <g id="page-1" stroke="none" stroke-width="1" fill="none" fill-rule="evenodd">
        <g id="About-us" transform="translate(-160.000000, -15.000000)">
            <g id="LOGOS/-cabecera" transform="translate(160.000000, 15.000000)">
                <g id="Group-3" transform="translate(4.000000, 19.000000)">
                    <mask id="mask-2" fill="white">
                        <use xlink:href="#path-1"></use>
                    </mask>
                    <g id="Clip-2"></g>
                    <path d="M0.919,12.082 C0.919,18.655 6.267,24.003 12.84,24.003 C19.411,24.003 24.758,18.655 24.758,12.082 C24.758,5.509 19.411,0.162 12.84,0.162 C6.267,0.162 0.919,5.509 0.919,12.082 M12.84,2.781 C17.968,2.781 22.141,6.953 22.141,12.082 C22.141,17.212 17.968,21.384 12.84,21.384 C7.71,21.384 3.537,17.212 3.537,12.082 C3.537,6.953 7.71,2.781 12.84,2.781 Z" id="Fill-1" fill="url(#linearGradient-3)"></path>
                </g>
                <path d="M16.839,17.512 C9.356,17.512 3.268,23.6 3.268,31.083 C3.268,38.565 9.356,44.653 16.839,44.653 C24.322,44.653 30.409,38.565 30.409,31.083 C30.409,23.6 24.322,17.512 16.839,17.512 M16.839,47.066 C8.026,47.066 0.855,39.896 0.855,31.083 C0.855,27.4 2.143,23.805 4.482,20.957 C4.556,20.783 4.624,20.667 4.708,20.57 L18.229,4.977 C18.44,4.732 18.733,4.585 19.053,4.562 L19.073,4.562 C19.443,4.562 19.715,4.666 19.931,4.852 C20.175,5.063 20.323,5.356 20.346,5.677 C20.37,5.998 20.266,6.309 20.055,6.554 L11.997,15.847 L12.403,15.73 C13.85,15.311 15.342,15.099 16.839,15.099 C25.653,15.099 32.823,22.269 32.823,31.083 C32.823,39.896 25.653,47.066 16.839,47.066" id="Fill-5" fill="#0E9C81"></path>
                <path d="M17.145,50.778 C11.025,50.778 5.374,47.979 1.64,43.098 C1.309,42.666 1.283,42.073 1.576,41.659 C1.808,41.33 2.165,41.138 2.555,41.131 C2.959,41.131 3.304,41.299 3.537,41.605 C6.81,45.9 11.781,48.363 17.177,48.363 C17.325,48.363 17.474,48.361 17.623,48.358 C26.349,48.137 33.658,41.149 34.263,32.448 C34.594,27.697 33.005,23.152 29.79,19.651 C26.625,16.205 22.136,14.181 17.474,14.1 C17.375,14.116 17.3,14.123 17.226,14.123 C17.055,14.123 16.888,14.087 16.729,14.014 C16.16,13.756 15.874,13.186 15.993,12.635 C16.061,12.32 16.257,12.041 16.531,11.868 L24.489,2.718 L3.629,2.718 C3.003,2.718 2.494,2.209 2.494,1.583 C2.494,0.958 3.003,0.448 3.629,0.448 L26.621,0.448 C26.96,0.448 27.278,0.603 27.497,0.873 L27.612,0.958 C28.115,1.393 28.171,2.156 27.737,2.66 L19.743,11.85 L19.97,11.883 C30.206,13.356 37.673,22.956 36.614,33.283 C35.655,42.634 27.853,50.137 18.468,50.736 C18.024,50.764 17.583,50.778 17.145,50.778" id="Fill-7" fill="#0075B1"></path>
                <polyline id="Fill-9" fill="#343534" points="40.224 3.275 57.081 3.275 57.081 5.574 42.55 5.574 42.55 11.194 54.727 11.194 54.727 13.549 42.55 13.549 42.55 22.149 40.224 22.149 40.224 3.275"></polyline>
                <path d="M60.012,15.168 L60.012,3.275 L62.338,3.275 L62.338,14.684 C62.338,18.289 64.695,20.474 69.179,20.474 C73.635,20.474 76.019,18.289 76.019,14.684 L76.019,3.275 L78.347,3.275 L78.347,15.168 C78.347,19.736 74.912,22.83 69.179,22.83 C63.447,22.83 60.012,19.736 60.012,15.168" id="Fill-10" fill="#343534"></path>
                <polyline id="Fill-11" fill="#343534" points="102.817 22.149 100.376 22.149 86.327 6.852 86.327 22.149 84 22.149 84 3.275 86.355 3.275 100.489 18.743 100.489 3.275 102.817 3.275 102.817 22.149"></polyline>
                <path d="M116.998,19.907 C121.737,19.907 124.632,16.756 124.632,12.244 C124.632,8.129 121.681,5.461 117.026,5.461 C114.273,5.461 111.634,5.517 110.669,5.517 L110.669,19.935 L116.998,19.907 Z M127.158,12.159 C127.158,17.891 123.44,22.149 117.679,22.149 L108.342,22.149 L108.342,3.275 L117.707,3.219 C123.326,3.19 127.158,6.88 127.158,12.159 Z" id="Fill-12" fill="#343534"></path>
                <polygon id="Fill-13" fill="#343534" points="40.198 44.538 42.525 44.538 42.525 25.664 40.198 25.664"></polygon>
                <polyline id="Fill-14" fill="#343534" points="69.062 44.538 66.622 44.538 52.572 29.241 52.572 44.538 50.246 44.538 50.246 25.664 52.601 25.664 66.734 41.132 66.734 25.664 69.062 25.664 69.062 44.538"></polyline>
                <path d="M75.136,39.628 L77.151,38.834 C78.001,42.127 81.521,42.836 84.7,42.836 C87.481,42.836 91.823,42.041 91.823,38.805 C91.823,33.157 75.249,38.947 75.249,31.113 C75.249,26.402 80.953,25.041 84.586,25.041 C88.616,25.041 93.101,25.948 93.98,30.659 L91.966,31.454 C91.115,28.162 87.623,27.282 84.445,27.282 C81.578,27.282 77.946,28.162 77.946,30.916 C77.946,35.881 94.35,30.744 94.35,38.634 C94.35,43.715 89.071,45.247 84.927,45.247 C80.896,45.247 76.015,44.339 75.136,39.628" id="Fill-15" fill="#343534"></path>
                <polygon id="Fill-16" fill="#343534" points="100.394 44.538 102.721 44.538 102.721 25.664 100.394 25.664"></polygon>
                <path d="M111.378,35.059 C111.378,39.827 114.698,42.807 119.41,42.807 C123.298,42.807 125.994,40.338 126.505,36.477 L119.183,36.477 L119.183,34.377 L129.03,34.377 C128.889,42.523 124.093,45.163 119.126,45.163 C113.081,45.163 108.88,40.99 108.88,35.059 C108.88,28.73 113.194,25.04 119.183,25.04 C123.213,25.04 127.697,26.715 128.577,31.426 L126.562,32.221 C125.711,28.928 122.305,27.339 119.126,27.339 C114.443,27.339 111.378,30.262 111.378,35.059" id="Fill-17" fill="#343534"></path>
                <polyline id="Fill-18" fill="#343534" points="153.098 44.538 150.77 44.538 150.77 35.996 137.459 35.996 137.459 44.538 135.133 44.538 135.133 25.664 137.459 25.664 137.459 33.64 150.77 33.64 150.77 25.664 153.098 25.664 153.098 44.538"></polyline>
                <polyline id="Fill-19" fill="#343534" points="177.874 27.964 169.048 27.964 169.048 44.538 166.721 44.538 166.721 27.964 157.895 27.964 157.895 25.665 177.874 25.665 177.874 27.964"></polyline>
            </g>
        </g>
    </g>
</svg>