<?xml version="1.0" encoding="UTF-8"?>
<svg width="221px" height="96px" viewBox="0 0 221 96" version="1.1" xmlns="http://www.w3.org/2000/svg" xmlns:xlink="http://www.w3.org/1999/xlink">
    <!-- Generator: Sketch 51.1 (57501) - http://www.bohemiancoding.com/sketch -->
    <title>Logo/completo blanco</title>
    <desc>Created with Sketch.</desc>
    <defs>
        <path d="M0.0798372881,14.8397559 C0.0798372881,22.9519729 6.68013559,29.5535186 14.7936,29.5535186 C22.9058169,29.5535186 29.5061153,22.9519729 29.5061153,14.8397559 C29.5061153,6.72629153 22.9058169,0.12599322 14.7936,0.12599322 C6.68013559,0.12599322 0.0798372881,6.72629153 0.0798372881,14.8397559 M3.03256949,14.8397559 C3.03256949,8.35422373 8.30931525,3.07872542 14.7936,3.07872542 C21.2778847,3.07872542 26.5533831,8.35422373 26.5533831,14.8397559 C26.5533831,21.3240407 21.2778847,26.5982915 14.7936,26.5982915 C8.30931525,26.5982915 3.03256949,21.3240407 3.03256949,14.8397559" id="path-1"></path>
    </defs>
    <g id="Symbols" stroke="none" stroke-width="1" fill="none" fill-rule="evenodd">
        <g id="Pie" transform="translate(-238.000000, -24.000000)">
            <g id="Logo/completo-blanco" transform="translate(238.000000, 23.000000)">
                <g id="Group-93">
                    <g id="Group-3" transform="translate(4.989831, 24.466262)">
                        <mask id="mask-2" fill="white">
                            <use xlink:href="#path-1"></use>
                        </mask>
                        <g id="Clip-2"></g>
                        <path d="M0.0798372881,14.8397559 C0.0798372881,22.9519729 6.68013559,29.5535186 14.7936,29.5535186 C22.9058169,29.5535186 29.5061153,22.9519729 29.5061153,14.8397559 C29.5061153,6.72629153 22.9058169,0.12599322 14.7936,0.12599322 C6.68013559,0.12599322 0.0798372881,6.72629153 0.0798372881,14.8397559 M3.03256949,14.8397559 C3.03256949,8.35422373 8.30931525,3.07872542 14.7936,3.07872542 C21.2778847,3.07872542 26.5533831,8.35422373 26.5533831,14.8397559 C26.5533831,21.3240407 21.2778847,26.5982915 14.7936,26.5982915 C8.30931525,26.5982915 3.03256949,21.3240407 3.03256949,14.8397559" id="Fill-1" fill="#FFFFFF" mask="url(#mask-2)"></path>
                    </g>
                    <g id="Group-92" transform="translate(0.000000, 0.764567)" fill="#FFFFFF">
                        <g id="Group-6" transform="translate(0.000000, 4.989831)">
                            <path d="M19.7830563,50.6356773 C10.3622563,50.6356773 2.69912407,42.9712976 2.69912407,33.5517451 C2.69912407,24.1309451 10.3622563,16.4665654 19.7830563,16.4665654 C29.2038563,16.4665654 36.8682359,24.1309451 36.8682359,33.5517451 C36.8682359,42.9712976 29.2038563,50.6356773 19.7830563,50.6356773 M19.7830563,13.7683146 C17.9305817,13.7683146 16.0843444,14.0302807 14.2929953,14.5492231 L13.2800597,14.8423756 L13.9711512,14.0452502 L23.6788664,2.84931797 C23.9146359,2.5773722 24.029402,2.22933153 24.0032054,1.87006373 C23.9770088,1.51079593 23.8110969,1.18271458 23.5391512,0.946945085 C23.293402,0.736124746 22.9827851,0.618863729 22.6646834,0.618863729 C22.6297546,0.618863729 22.5948258,0.620111186 22.5598969,0.622606102 C22.1993817,0.650050169 21.8713003,0.814714576 21.6355308,1.08666034 L4.76740881,20.5395146 C4.67384949,20.6467959 4.59900203,20.7765315 4.53787661,20.9337112 L4.5204122,20.9798671 L4.48797831,21.0185383 C1.59387661,24.5438536 -0.000374237288,28.9947824 -0.000374237288,33.5517451 C-0.000374237288,44.4595146 8.87403932,53.3351756 19.7830563,53.3351756 C30.6920732,53.3351756 39.5664868,44.4595146 39.5664868,33.5517451 C39.5664868,22.6427281 30.6920732,13.7683146 19.7830563,13.7683146" id="Fill-4"></path>
                        </g>
                        <g id="Group-9">
                            <path d="M23.6667661,14.7456976 L23.0991729,14.6646129 L23.4759051,14.2317451 L33.2597153,2.9821722 C33.7449763,2.42081627 33.6826034,1.5663078 33.12,1.08104678 L33.1137627,1.07730441 L33.0189559,1.01118915 L32.9840271,0.987487458 L32.9578305,0.953806102 C32.7145763,0.654416271 32.3602983,0.482267119 31.9848136,0.482267119 L3.30451525,0.482267119 C2.60968136,0.482267119 2.04458305,1.04861288 2.04458305,1.74219932 C2.04458305,2.43703322 2.60968136,3.00213153 3.30451525,3.00213153 L28.9834305,3.00213153 L29.6682847,3.00213153 L29.2192,3.51857898 L19.5514034,14.6446536 L19.5202169,14.6795824 L19.4815458,14.7045315 C19.1746712,14.8978875 18.9563661,15.2097519 18.8802712,15.5615349 C18.7467932,16.177779 19.0661424,16.8152298 19.6412203,17.0759485 L19.7098305,17.1071349 C19.8882169,17.1882197 20.0753356,17.2293858 20.2661966,17.2293858 C20.3497763,17.2293858 20.4333559,17.221901 20.5156881,17.2056841 L20.5468746,17.2006942 L20.578061,17.2006942 C26.436122,17.3029858 32.075878,19.8453044 36.0540203,24.1764773 C40.0932881,28.5750129 42.0904678,34.2858739 41.6750644,40.2562061 C40.9141153,51.1889247 31.7303322,59.969779 20.7651797,60.247962 C20.578061,60.2517044 20.3909424,60.2541993 20.2038237,60.2541993 C13.425139,60.2541993 7.17787119,57.1592569 3.06500339,51.7627553 C2.80428475,51.4209519 2.41882034,51.2325858 1.97971525,51.2325858 C1.52938305,51.2400705 1.13019661,51.4558807 0.870725424,51.8251281 C0.542644068,52.2866875 0.575077966,52.9490875 0.946820339,53.4368434 C5.57488814,59.4857654 12.5793627,62.9549451 20.1651525,62.9549451 C20.7090441,62.9549451 21.2616678,62.9374807 21.8043119,62.9025519 C33.4381017,62.161562 43.1071458,52.8617654 44.2959729,41.2703892 C45.6082983,28.4702264 36.3534102,16.5707281 23.6667661,14.7456976" id="Fill-7"></path>
                        </g>
                        <polygon id="Fill-10" points="48.9546034 3.85302237 69.9842441 3.85302237 69.9842441 6.72092746 51.8574373 6.72092746 51.8574373 13.7316393 67.0464814 13.7316393 67.0464814 16.669402 51.8574373 16.669402 51.8574373 27.3975376 48.9546034 27.3975376"></polygon>
                        <path d="M73.6394197,18.6879132 L73.6394197,3.85314712 L76.5422536,3.85314712 L76.5422536,18.0853912 C76.5422536,22.5824759 79.4812637,25.3081708 85.0748637,25.3081708 C90.6335349,25.3081708 93.6074739,22.5824759 93.6074739,18.0853912 L93.6074739,3.85314712 L96.5103078,3.85314712 L96.5103078,18.6879132 C96.5103078,24.3875471 92.2265383,28.247181 85.0748637,28.247181 C77.9231892,28.247181 73.6394197,24.3875471 73.6394197,18.6879132" id="Fill-12"></path>
                        <polygon id="Fill-14" points="127.036968 27.3969139 123.991924 27.3969139 106.466392 8.31455458 106.466392 27.3969139 103.563558 27.3969139 103.563558 3.85239864 106.502568 3.85239864 124.134134 23.1480732 124.134134 3.85239864 127.036968 3.85239864"></polygon>
                        <path d="M144.726791,24.6004881 C150.638492,24.6004881 154.249882,20.6697492 154.249882,15.0412203 C154.249882,9.9079322 150.568635,6.57971525 144.761719,6.57971525 C141.327468,6.57971525 138.035428,6.64957288 136.831631,6.64957288 L136.831631,24.6354169 L144.726791,24.6004881 Z M157.402207,14.9351864 C157.402207,22.0856136 152.762913,27.3972881 145.576309,27.3972881 L133.928797,27.3972881 L133.928797,3.85277288 L145.611238,3.78291525 C152.62195,3.74673898 157.402207,8.34985763 157.402207,14.9351864 Z" id="Fill-16"></path>
                        <polygon id="Fill-18" points="48.9227932 55.3272407 51.8256271 55.3272407 51.8256271 31.7827254 48.9227932 31.7827254"></polygon>
                        <polygon id="Fill-20" points="84.9291607 55.3264922 81.8841166 55.3264922 64.3585844 36.2441329 64.3585844 55.3264922 61.4557505 55.3264922 61.4557505 31.7819769 64.3947607 31.7819769 82.0250793 51.0776515 82.0250793 31.7819769 84.9291607 31.7819769"></polygon>
                        <path d="M92.5053451,49.2018495 L95.0189722,48.2101207 C96.0818061,52.3179986 100.471609,53.2024461 104.43603,53.2024461 C107.906457,53.2024461 113.321671,52.2107173 113.321671,48.1751919 C113.321671,41.1295512 92.6463078,48.3523308 92.6463078,38.5797478 C92.6463078,32.7029749 99.7630536,31.0039376 104.295067,31.0039376 C109.322321,31.0039376 114.915921,32.1366292 116.013684,38.013402 L113.500057,39.0051308 C112.438471,34.8985003 108.082348,33.8007376 104.117928,33.8007376 C100.541467,33.8007376 96.010701,34.8985003 96.010701,38.3327512 C96.010701,44.5276258 116.473996,38.1194359 116.473996,47.9618766 C116.473996,54.3002088 109.888667,56.2113139 104.719203,56.2113139 C99.6919485,56.2113139 93.6018603,55.0786224 92.5053451,49.2018495" id="Fill-21"></path>
                        <polygon id="Fill-22" points="124.014753 55.3272407 126.917586 55.3272407 126.917586 31.7827254 124.014753 31.7827254"></polygon>
                        <path d="M137.716578,43.5018414 C137.716578,49.4497193 141.858137,53.1671431 147.736157,53.1671431 C152.586273,53.1671431 155.949418,50.0871702 156.586869,45.2707363 L147.452984,45.2707363 L147.452984,42.6510753 L159.737947,42.6510753 C159.560808,52.8128651 153.578001,56.1061532 147.381879,56.1061532 C139.840998,56.1061532 134.600428,50.9005125 134.600428,43.5018414 C134.600428,35.606682 139.981961,31.0035634 147.452984,31.0035634 C152.480239,31.0035634 158.073839,33.0930549 159.171601,38.9698278 L156.657974,39.9615566 C155.596388,35.8536786 151.3463,33.8714685 147.381879,33.8714685 C141.540035,33.8714685 137.716578,37.5177871 137.716578,43.5018414" id="Fill-23"></path>
                        <polygon id="Fill-24" points="189.760136 55.3264922 186.857302 55.3264922 186.857302 44.6707092 170.252393 44.6707092 170.252393 55.3264922 167.349559 55.3264922 167.349559 31.7819769 170.252393 31.7819769 170.252393 41.731699 186.857302 41.731699 186.857302 31.7819769 189.760136 31.7819769"></polygon>
                        <polygon id="Fill-25" points="220.667645 34.65088 209.656336 34.65088 209.656336 55.3262427 206.753502 55.3262427 206.753502 34.65088 195.743441 34.65088 195.743441 31.7829749 220.667645 31.7829749"></polygon>
                        <path d="M2.99714169,74.9672136 L5.09411797,74.9672136 C5.98480271,74.9672136 6.63597559,74.7888271 7.04763661,74.4308068 C7.45929763,74.0740339 7.66512814,73.5962576 7.66512814,72.9987254 C7.66512814,72.3662644 7.45929763,71.8747661 7.04763661,71.5267254 C6.63597559,71.1786847 6.01723661,71.0040407 5.18892475,71.0040407 L2.99714169,71.0040407 L2.99714169,74.9672136 Z M5.18892475,70.3129492 C6.24676881,70.3129492 7.06011119,70.5437288 7.62895186,71.0040407 C8.19654508,71.4656 8.48096542,72.1329898 8.48096542,73.0062102 C8.48096542,73.5214102 8.32752814,73.9854644 8.02439593,74.3971254 C7.72251119,74.8087864 7.29463322,75.1069288 6.74325695,75.2928 C7.35326373,75.4462373 7.79361627,75.7219254 8.06306712,76.1173695 C8.33127051,76.514061 8.46724339,77.0130441 8.46724339,77.6143186 L8.46724339,78.5162305 C8.46724339,78.8655186 8.52088407,79.1237424 8.62941288,79.2896542 C8.73794169,79.458061 8.9026061,79.547878 9.12465356,79.5616 L9.45772475,79.5815593 L9.45772475,80.1865763 L8.94252475,80.1865763 C8.46225356,80.1865763 8.12668746,80.0231593 7.9370739,79.6975729 C7.74746034,79.3719864 7.6514061,78.9728 7.6514061,78.5025085 L7.6514061,77.6280407 C7.6514061,77.0305085 7.46054508,76.5564746 7.07757559,76.205939 C6.69585356,75.8554034 6.16318915,75.6732746 5.47958237,75.6595525 L2.99714169,75.6595525 L2.99714169,79.5004746 L4.10363661,79.5952814 L4.10363661,80.1865763 L1.08354169,80.1865763 L1.08354169,79.5952814 L2.19003661,79.5004746 L2.19003661,71.0040407 L1.08354169,70.9092339 L1.08354169,70.3129492 L5.18892475,70.3129492 Z" id="Fill-26"></path>
                        <path d="M13.712678,73.3994088 C13.1151458,73.3994088 12.6111729,73.628941 12.2020068,74.0880054 C11.7928407,74.5470698 11.5545763,75.1233953 11.4859661,75.8157342 L11.4996881,75.8494156 L15.8021695,75.8494156 L15.8021695,75.64608 C15.8021695,75.0086292 15.6138034,74.4747173 15.2395661,74.0443444 C14.8640814,73.6139715 14.3551186,73.3994088 13.712678,73.3994088 M13.8212068,80.3290359 C12.8980881,80.3290359 12.1321492,79.9909749 11.5271322,79.3136054 C10.9208678,78.6374834 10.6177356,77.7767376 10.6177356,76.7313681 L10.6177356,76.3583783 C10.6177356,75.3092664 10.9196203,74.438541 11.5233898,73.746202 C12.1271593,73.0538631 12.856922,72.7070698 13.712678,72.7070698 C14.6133424,72.7070698 15.3206508,72.9927376 15.8358508,73.5628258 C16.3522983,74.1329139 16.6092746,74.8926156 16.6092746,75.8419308 L16.6092746,76.5355173 L11.4248407,76.5355173 L11.4248407,76.7313681 C11.4248407,77.5559376 11.6456407,78.2457817 12.0859932,78.8046427 C12.5275932,79.3635037 13.1064136,79.6429342 13.8212068,79.6429342 C14.3226847,79.6429342 14.7530576,79.5730766 15.1098305,79.4321139 C15.4666034,79.2923986 15.7722305,79.091558 16.0254644,78.8295919 L16.3722576,79.3847105 C16.0965695,79.6753681 15.7485288,79.9049003 15.3268881,80.0745546 C14.9064949,80.2442088 14.4050169,80.3290359 13.8212068,80.3290359" id="Fill-27"></path>
                        <path d="M23.3889573,75.109798 L22.7253098,75.109798 L22.6305031,74.0706658 C22.42592,73.858598 22.1689437,73.6939336 21.8583268,73.5766725 C21.5489573,73.4581641 21.1921844,73.3995336 20.7905031,73.3995336 C20.1967132,73.3995336 19.7526183,73.5267742 19.4569708,73.7837505 C19.1600759,74.0394793 19.0116285,74.3388692 19.0116285,74.68192 C19.0116285,75.0212285 19.1401166,75.3019064 19.3958454,75.5239539 C19.6515742,75.7460014 20.1617844,75.9406047 20.9252285,76.1077641 C21.7996963,76.3023675 22.4533641,76.5680759 22.8874793,76.9048895 C23.3215946,77.2417031 23.5386522,77.7007675 23.5386522,78.2795878 C23.5386522,78.8895946 23.2916556,79.3848353 22.7951675,79.7615675 C22.2999268,80.1395471 21.646259,80.3291607 20.8304217,80.3291607 C20.2890251,80.3291607 19.7937844,80.2530658 19.348442,80.1008759 C18.9018522,79.9499336 18.5176353,79.7353708 18.1908014,79.4596827 L18.1908014,77.980198 L18.849459,77.980198 L18.9642251,79.0255675 C19.1825302,79.2426251 19.4569708,79.3998047 19.7887946,79.4971064 C20.1218658,79.5944081 20.468659,79.643059 20.8304217,79.643059 C21.4192217,79.643059 21.8832759,79.5145708 22.2213369,79.2563471 C22.5618929,78.9981234 22.7315471,78.686259 22.7315471,78.3195064 C22.7315471,77.9764556 22.5893369,77.6758183 22.3074115,77.4175946 C22.0242386,77.1593708 21.5140285,76.9485505 20.776781,76.786381 C19.9035607,76.59552 19.2561302,76.3435336 18.833242,76.0291742 C18.4091064,75.7148149 18.1982861,75.2744624 18.1982861,74.7093641 C18.1982861,74.1480081 18.4353031,73.6752217 18.9105844,73.2885098 C19.3858658,72.9005505 20.0120895,72.7071946 20.7905031,72.7071946 C21.3294047,72.7071946 21.8209031,72.7907742 22.2662454,72.9554386 C22.7115878,73.1201031 23.074598,73.343398 23.3565234,73.6240759 L23.3889573,75.109798 Z" id="Fill-28"></path>
                        <path d="M28.1473844,73.3994088 C27.5498522,73.3994088 27.0458793,73.628941 26.6367132,74.0880054 C26.2275471,74.5470698 25.9892827,75.1233953 25.9206725,75.8157342 L25.9343946,75.8494156 L30.2368759,75.8494156 L30.2368759,75.64608 C30.2368759,75.0086292 30.0485098,74.4747173 29.6742725,74.0443444 C29.2987878,73.6139715 28.7898251,73.3994088 28.1473844,73.3994088 M28.2559132,80.3290359 C27.3327946,80.3290359 26.5668556,79.9909749 25.9618386,79.3136054 C25.3555742,78.6374834 25.052442,77.7767376 25.052442,76.7313681 L25.052442,76.3583783 C25.052442,75.3092664 25.3543268,74.438541 25.9580963,73.746202 C26.5618658,73.0538631 27.2916285,72.7070698 28.1473844,72.7070698 C29.0480488,72.7070698 29.7553573,72.9927376 30.2705573,73.5628258 C30.7870047,74.1329139 31.043981,74.8926156 31.043981,75.8419308 L31.043981,76.5355173 L25.8595471,76.5355173 L25.8595471,76.7313681 C25.8595471,77.5559376 26.0803471,78.2457817 26.5206997,78.8046427 C26.9622997,79.3635037 27.54112,79.6429342 28.2559132,79.6429342 C28.7573912,79.6429342 29.1877641,79.5730766 29.5445369,79.4321139 C29.9013098,79.2923986 30.2069369,79.091558 30.4601708,78.8295919 L30.8069641,79.3847105 C30.5312759,79.6753681 30.1832353,79.9049003 29.7615946,80.0745546 C29.3412014,80.2442088 28.8397234,80.3290359 28.2559132,80.3290359" id="Fill-29"></path>
                        <path d="M34.8926373,79.6092529 C35.4814373,79.6092529 35.9991322,79.47328 36.4469695,79.2013342 C36.8935593,78.9306359 37.2178983,78.5801003 37.4162441,78.1509749 L37.4162441,76.6777275 L35.7820746,76.6777275 C35.0435797,76.6777275 34.4547797,76.8299173 34.0131797,77.1355444 C33.5715797,77.4411715 33.3520271,77.8266359 33.3520271,78.2919376 C33.3520271,78.6861342 33.4892475,79.0042359 33.7624407,79.2462427 C34.0356339,79.4882495 34.4123661,79.6092529 34.8926373,79.6092529 Z M37.5671864,80.1855783 C37.5122983,79.9373342 37.4736271,79.7227715 37.4511729,79.5418902 C37.4274712,79.3610088 37.4162441,79.1776325 37.4162441,78.9917614 C37.1455458,79.3759783 36.7837831,79.6953275 36.3309559,79.9485614 C35.8781288,80.2017953 35.3704136,80.3290359 34.8040678,80.3290359 C34.0855322,80.3290359 33.5279186,80.1431647 33.1349695,79.7714224 C32.7407729,79.4009275 32.5436746,78.8994495 32.5436746,78.265741 C32.5436746,77.5871241 32.8368271,77.0482224 33.4193898,76.6502834 C34.0032,76.2523444 34.7953356,76.0527512 35.7957966,76.0527512 L37.4162441,76.0527512 L37.4162441,75.0822292 C37.4162441,74.5582969 37.2490847,74.1466359 36.9110237,73.8472461 C36.5742102,73.5491037 36.1026712,73.3994088 35.4964068,73.3994088 C35.0884881,73.3994088 34.7167458,73.4542969 34.3799322,73.5653207 C34.0431186,73.6763444 33.7611932,73.8272868 33.5354034,74.0169003 L33.4667932,75.0011444 L32.7944136,75.0011444 L32.8018983,73.5890224 C33.1424542,73.3270563 33.547878,73.113741 34.0206644,72.9515715 C34.4934508,72.789402 34.9961763,72.7070698 35.5313356,72.7070698 C36.3396881,72.7070698 36.9921085,72.9129003 37.4848542,73.3245614 C37.9788475,73.7362224 38.2245966,74.3275173 38.2245966,75.0959512 L38.2245966,78.7060936 C38.2245966,78.8557885 38.228339,78.9992461 38.2358237,79.1377139 C38.242061,79.2749342 38.2557831,79.4096597 38.2794847,79.5418902 L39.0117424,79.5892936 L39.0117424,80.1855783 L37.5671864,80.1855783 Z" id="Fill-30"></path>
                        <path d="M41.923059,72.8432922 L42.0253505,74.0645532 L42.0253505,74.1531227 C42.2336759,73.7002956 42.5180963,73.3460176 42.8773641,73.0902888 C43.2366319,72.8358075 43.6632624,72.7073193 44.1560081,72.7073193 C44.2595471,72.7073193 44.3605912,72.7148041 44.4578929,72.731021 C44.5551946,72.747238 44.6362793,72.7647024 44.6998997,72.7821668 L44.5913708,73.5418685 L43.9863539,73.5007024 C43.4748963,73.5007024 43.0557505,73.6454075 42.7276692,73.9323227 C42.3995878,74.2204854 42.1650658,74.614682 42.0253505,75.11616 L42.0253505,79.5009736 L43.1318454,79.5895431 L43.1318454,80.1858278 L40.1117505,80.1858278 L40.1117505,79.5895431 L41.2182454,79.5009736 L41.2182454,73.5356312 L40.1117505,73.4470617 L40.1117505,72.8432922 L41.2182454,72.8432922 L41.923059,72.8432922 Z" id="Fill-31"></path>
                        <path d="M48.7572556,79.6434332 C49.2961573,79.6434332 49.7701912,79.4887485 50.1830997,79.1818739 C50.5947607,78.8737519 50.8005912,78.4471214 50.8005912,77.8994875 L51.5191268,77.8994875 L51.5340963,77.9394061 C51.5553031,78.6180231 51.2846047,79.1868637 50.7220014,79.6434332 C50.1581505,80.1000027 49.5044827,80.3282875 48.7572556,80.3282875 C47.7617844,80.3282875 46.9908556,79.9852366 46.4432217,79.3003824 C45.8955878,78.6155281 45.6211471,77.7335756 45.6211471,76.6570197 L45.6211471,76.3713519 C45.6211471,75.3035281 45.8955878,74.4265654 46.4432217,73.7392163 C46.9908556,73.0506197 47.7592895,72.7075688 48.7510183,72.7075688 C49.3161166,72.7075688 49.8338115,72.8136027 50.3041031,73.026918 C50.7743946,73.2389858 51.1573641,73.5283959 51.4517641,73.8951485 L51.4866929,75.4968841 L50.7931064,75.4968841 L50.6633708,74.1932908 C50.4463132,73.9500366 50.1768624,73.7554332 49.8537708,73.6132231 C49.5294319,73.4710129 49.1614319,73.3999078 48.7510183,73.3999078 C47.9626251,73.3999078 47.3800624,73.6818332 47.0033302,74.2444366 C46.6253505,74.8082875 46.4369844,75.5168434 46.4369844,76.3713519 L46.4369844,76.6570197 C46.4369844,77.5252502 46.6241031,78.2400434 46.9995878,78.8013993 C47.3750725,79.3627553 47.9601302,79.6434332 48.7572556,79.6434332" id="Fill-32"></path>
                        <path d="M52.8077505,70.2040461 L52.8077505,69.6002766 L54.7213505,69.6002766 L54.7213505,74.0986088 C54.9658522,73.6607512 55.2914386,73.3189478 55.6993573,73.0744461 C56.1072759,72.8286969 56.5813098,72.7076936 57.1239539,72.7076936 C57.8986251,72.7076936 58.4924149,72.9472054 58.9065708,73.4262292 C59.3207268,73.9065003 59.5278047,74.6499851 59.5278047,75.6604258 L59.5278047,79.5013478 L60.6330522,79.5886698 L60.6330522,80.186202 L57.60672,80.186202 L57.60672,79.5886698 L58.7119675,79.5013478 L58.7119675,75.6454563 C58.7119675,74.8495783 58.5547878,74.2782427 58.2404285,73.9326969 C57.9273166,73.5859037 57.4932014,73.4137546 56.9405776,73.4137546 C56.3842115,73.4137546 55.9201573,73.5584597 55.54592,73.8503647 C55.1729302,74.1422698 54.8984895,74.5302292 54.7213505,75.0142427 L54.7213505,79.5013478 L55.8278454,79.5886698 L55.8278454,80.186202 L52.8077505,80.186202 L52.8077505,79.5886698 L53.9142454,79.5013478 L53.9142454,70.2913681 L52.8077505,70.2040461 Z" id="Fill-33"></path>
                        <polygon id="Fill-34" points="65.5938169 82.0178441 66.2786712 82.0178441 66.2786712 70.3054644 65.5938169 70.3054644"></polygon>
                        <path d="M79.2541017,79.1000407 C79.0195797,79.3894508 78.6091661,79.6676339 78.0266034,79.9320949 C77.4427932,80.1965559 76.7117831,80.3287864 75.8348203,80.3287864 C74.549939,80.3287864 73.5045695,79.8647322 72.6987119,78.9378712 C71.8941017,78.0097627 71.4899254,76.8022237 71.4899254,75.3127593 L71.4899254,75.1031864 C71.4899254,73.6374237 71.8941017,72.4473492 72.6987119,71.5342102 C73.5045695,70.6198237 74.5599186,70.1632542 75.8672542,70.1632542 C76.6094915,70.1632542 77.2656542,70.2867525 77.8357424,70.5325017 C78.4058305,70.7794983 78.8698847,71.1175593 79.2279051,71.5479322 L79.2279051,73.2644339 L78.5966915,73.2644339 L78.4532339,71.8186305 C78.1875254,71.525478 77.8407322,71.2909559 77.4153492,71.1163119 C76.9899661,70.9416678 76.4947254,70.8555932 75.9296271,70.8555932 C74.8069153,70.8555932 73.9224678,71.2485424 73.2750373,72.0356881 C72.6276068,72.8228339 72.3057627,73.8407593 72.3057627,75.0894644 L72.3057627,75.3127593 C72.3057627,76.5988881 72.6238644,77.6417627 73.2575729,78.4426305 C73.8937763,79.2422508 74.7532746,79.6439322 75.8348203,79.6439322 C76.4760136,79.6439322 77.0261424,79.5591051 77.4827119,79.3919458 C77.9392814,79.2247864 78.2611254,79.0464 78.4469966,78.855539 L78.4469966,76.4604203 L76.5458712,76.426739 L76.5458712,75.7680814 L79.2541017,75.7680814 L79.2541017,79.1000407 Z" id="Fill-35"></path>
                        <path d="M81.9560949,76.6300746 C81.9560949,77.4808407 82.1706576,78.1956339 82.6010305,78.7744542 C83.0301559,79.3532746 83.6301831,79.6439322 84.3986169,79.6439322 C85.1545763,79.6439322 85.7471186,79.3532746 86.1774915,78.7744542 C86.6078644,78.1956339 86.8211797,77.4808407 86.8211797,76.6300746 L86.8211797,76.4055322 C86.8211797,75.5684881 86.6066169,74.8586847 86.1737492,74.2748746 C85.7408814,73.6910644 85.1458441,73.3991593 84.3848949,73.3991593 C83.6251932,73.3991593 83.0301559,73.6910644 82.6010305,74.2748746 C82.1706576,74.8586847 81.9560949,75.5684881 81.9560949,76.4055322 L81.9560949,76.6300746 Z M81.1415051,76.4055322 C81.1415051,75.3252339 81.4384,74.4382915 82.0309424,73.7459525 C82.6234847,73.0536136 83.4081356,72.7068203 84.3848949,72.7068203 C85.3666441,72.7068203 86.1537898,73.0536136 86.7475797,73.7459525 C87.3388746,74.4382915 87.6370169,75.3252339 87.6370169,76.4055322 L87.6370169,76.6300746 C87.6370169,77.7153627 87.340122,78.6035525 86.751322,79.2933966 C86.1600271,79.9832407 85.3766237,80.3287864 84.3986169,80.3287864 C83.4131254,80.3287864 82.6234847,79.9832407 82.0309424,79.2933966 C81.4384,78.6035525 81.1415051,77.7153627 81.1415051,76.6300746 L81.1415051,76.4055322 Z" id="Fill-36"></path>
                        <polygon id="Fill-37" points="90.9904325 73.4469369 90.0747986 73.5155471 91.9060664 78.3469505 92.1443308 79.2089437 92.1842495 79.2089437 92.4424732 78.3469505 94.2475444 73.5155471 93.3319105 73.4469369 93.3319105 72.8431675 95.8006292 72.8431675 95.8006292 73.4469369 95.0820936 73.5080624 92.4898766 80.1857031 91.8387037 80.1857031 89.239002 73.5080624 88.5204664 73.4469369 88.5204664 72.8431675 90.9904325 72.8431675"></polygon>
                        <path d="M99.7373559,73.3994088 C99.1398237,73.3994088 98.6358508,73.628941 98.2266847,74.0880054 C97.8175186,74.5470698 97.5792542,75.1233953 97.5106441,75.8157342 L97.5243661,75.8494156 L101.826847,75.8494156 L101.826847,75.64608 C101.826847,75.0086292 101.638481,74.4747173 101.264244,74.0443444 C100.888759,73.6139715 100.379797,73.3994088 99.7373559,73.3994088 M99.8458847,80.3290359 C98.9227661,80.3290359 98.1568271,79.9909749 97.5518102,79.3136054 C96.9455458,78.6374834 96.6424136,77.7767376 96.6424136,76.7313681 L96.6424136,76.3583783 C96.6424136,75.3092664 96.9442983,74.438541 97.5480678,73.746202 C98.1518373,73.0538631 98.8816,72.7070698 99.7373559,72.7070698 C100.63802,72.7070698 101.345329,72.9927376 101.860529,73.5628258 C102.376976,74.1329139 102.633953,74.8926156 102.633953,75.8419308 L102.633953,76.5355173 L97.4495186,76.5355173 L97.4495186,76.7313681 C97.4495186,77.5559376 97.6703186,78.2457817 98.1106712,78.8046427 C98.5522712,79.3635037 99.1310915,79.6429342 99.8458847,79.6429342 C100.347363,79.6429342 100.777736,79.5730766 101.134508,79.4321139 C101.491281,79.2923986 101.796908,79.091558 102.050142,78.8295919 L102.396936,79.3847105 C102.121247,79.6753681 101.773207,79.9049003 101.351566,80.0745546 C100.931173,80.2442088 100.429695,80.3290359 99.8458847,80.3290359" id="Fill-38"></path>
                        <path d="M105.844285,72.8432922 L105.946576,74.0645532 L105.946576,74.1531227 C106.154902,73.7002956 106.439322,73.3460176 106.79859,73.0902888 C107.157858,72.8358075 107.584488,72.7073193 108.077234,72.7073193 C108.180773,72.7073193 108.281817,72.7148041 108.379119,72.731021 C108.47642,72.747238 108.557505,72.7647024 108.621125,72.7821668 L108.512597,73.5418685 L107.90758,73.5007024 C107.396122,73.5007024 106.976976,73.6454075 106.648895,73.9323227 C106.320814,74.2204854 106.086292,74.614682 105.946576,75.11616 L105.946576,79.5009736 L107.053071,79.5895431 L107.053071,80.1858278 L104.032976,80.1858278 L104.032976,79.5895431 L105.139471,79.5009736 L105.139471,73.5356312 L104.032976,73.4470617 L104.032976,72.8432922 L105.139471,72.8432922 L105.844285,72.8432922 Z" id="Fill-39"></path>
                        <path d="M109.523287,79.5891688 L110.629782,79.5005993 L110.629782,73.5352569 L109.523287,73.4466875 L109.523287,72.842918 L111.348317,72.842918 L111.423165,74.1265519 C111.658934,73.6737247 111.977036,73.3244366 112.376222,73.07744 C112.776656,72.8304434 113.25069,72.7069451 113.798324,72.7069451 C114.594202,72.7069451 115.201714,72.9501993 115.617117,73.4367078 C116.033768,73.9232163 116.242094,74.6816705 116.242094,75.7145654 L116.242094,79.5005993 L117.347341,79.5891688 L117.347341,80.186701 L114.321009,80.186701 L114.321009,79.5891688 L115.426256,79.5005993 L115.426256,75.7208027 C115.426256,74.8787688 115.269077,74.284979 114.954717,73.9356908 C114.641605,73.5876502 114.193768,73.4130061 113.614948,73.4130061 C113.04486,73.4130061 112.579558,73.5639485 112.22029,73.8645858 C111.861022,74.1652231 111.601551,74.5644095 111.443124,75.0621451 L111.443124,79.5005993 L112.549619,79.5891688 L112.549619,80.186701 L109.523287,80.186701 L109.523287,79.5891688 Z" id="Fill-40"></path>
                        <path d="M121.019607,79.6092529 C121.608407,79.6092529 122.124854,79.47328 122.572692,79.2013342 C123.020529,78.9306359 123.34362,78.5801003 123.541966,78.1509749 L123.541966,76.6777275 L121.907797,76.6777275 C121.170549,76.6777275 120.581749,76.8299173 120.140149,77.1355444 C119.698549,77.4411715 119.478997,77.8266359 119.478997,78.2919376 C119.478997,78.6861342 119.616217,79.0042359 119.88941,79.2462427 C120.162603,79.4882495 120.539336,79.6092529 121.019607,79.6092529 Z M123.692908,80.1855783 C123.63802,79.9373342 123.599349,79.7227715 123.576895,79.5418902 C123.553193,79.3610088 123.541966,79.1776325 123.541966,78.9917614 C123.271268,79.3759783 122.909505,79.6953275 122.456678,79.9485614 C122.003851,80.2017953 121.497383,80.3290359 120.931037,80.3290359 C120.212502,80.3290359 119.654888,80.1431647 119.261939,79.7714224 C118.867742,79.4009275 118.670644,78.8994495 118.670644,78.265741 C118.670644,77.5871241 118.963797,77.0482224 119.546359,76.6502834 C120.130169,76.2523444 120.922305,76.0527512 121.921519,76.0527512 L123.541966,76.0527512 L123.541966,75.0822292 C123.541966,74.5582969 123.374807,74.1466359 123.036746,73.8472461 C122.699932,73.5491037 122.228393,73.3994088 121.623376,73.3994088 C121.215458,73.3994088 120.843715,73.4542969 120.506902,73.5653207 C120.170088,73.6763444 119.888163,73.8272868 119.662373,74.0169003 L119.593763,75.0011444 L118.921383,75.0011444 L118.928868,73.5890224 C119.269424,73.3270563 119.674847,73.113741 120.147634,72.9515715 C120.62042,72.789402 121.123146,72.7070698 121.657058,72.7070698 C122.46541,72.7070698 123.117831,72.9129003 123.610576,73.3245614 C124.104569,73.7362224 124.350319,74.3275173 124.350319,75.0959512 L124.350319,78.7060936 C124.350319,78.8557885 124.354061,78.9992461 124.361546,79.1377139 C124.367783,79.2749342 124.381505,79.4096597 124.405207,79.5418902 L125.137464,79.5892936 L125.137464,80.1855783 L123.692908,80.1855783 Z" id="Fill-41"></path>
                        <path d="M126.142167,79.5891688 L127.248662,79.5005993 L127.248662,73.5352569 L126.142167,73.4466875 L126.142167,72.842918 L127.967197,72.842918 L128.042045,74.1265519 C128.277814,73.6737247 128.595916,73.3244366 128.995102,73.07744 C129.395536,72.8304434 129.86957,72.7069451 130.417204,72.7069451 C131.213082,72.7069451 131.820594,72.9501993 132.235997,73.4367078 C132.652648,73.9232163 132.860974,74.6816705 132.860974,75.7145654 L132.860974,79.5005993 L133.966221,79.5891688 L133.966221,80.186701 L130.939889,80.186701 L130.939889,79.5891688 L132.045136,79.5005993 L132.045136,75.7208027 C132.045136,74.8787688 131.887957,74.284979 131.573597,73.9356908 C131.260485,73.5876502 130.812648,73.4130061 130.233828,73.4130061 C129.66374,73.4130061 129.198438,73.5639485 128.83917,73.8645858 C128.479902,74.1652231 128.220431,74.5644095 128.062004,75.0621451 L128.062004,79.5005993 L129.168499,79.5891688 L129.168499,80.186701 L126.142167,80.186701 L126.142167,79.5891688 Z" id="Fill-42"></path>
                        <path d="M138.310991,79.6434332 C138.849893,79.6434332 139.323927,79.4887485 139.736835,79.1818739 C140.148496,78.8737519 140.354327,78.4471214 140.354327,77.8994875 L141.072862,77.8994875 L141.087832,77.9394061 C141.109039,78.6180231 140.83834,79.1868637 140.275737,79.6434332 C139.711886,80.1000027 139.058218,80.3282875 138.310991,80.3282875 C137.31552,80.3282875 136.544591,79.9852366 135.996957,79.3003824 C135.449323,78.6155281 135.174883,77.7335756 135.174883,76.6570197 L135.174883,76.3713519 C135.174883,75.3035281 135.449323,74.4265654 135.996957,73.7392163 C136.544591,73.0506197 137.313025,72.7075688 138.304754,72.7075688 C138.869852,72.7075688 139.387547,72.8136027 139.857839,73.026918 C140.32813,73.2389858 140.7111,73.5283959 141.0055,73.8951485 L141.040428,75.4968841 L140.346842,75.4968841 L140.217106,74.1932908 C140.000049,73.9500366 139.730598,73.7554332 139.407506,73.6132231 C139.083167,73.4710129 138.715167,73.3999078 138.304754,73.3999078 C137.516361,73.3999078 136.933798,73.6818332 136.557066,74.2444366 C136.179086,74.8082875 135.99072,75.5168434 135.99072,76.3713519 L135.99072,76.6570197 C135.99072,77.5252502 136.177839,78.2400434 136.553323,78.8013993 C136.928808,79.3627553 137.513866,79.6434332 138.310991,79.6434332" id="Fill-43"></path>
                        <path d="M145.728748,73.3994088 C145.131216,73.3994088 144.627243,73.628941 144.218077,74.0880054 C143.808911,74.5470698 143.570647,75.1233953 143.502037,75.8157342 L143.515759,75.8494156 L147.81824,75.8494156 L147.81824,75.64608 C147.81824,75.0086292 147.629874,74.4747173 147.255637,74.0443444 C146.880152,73.6139715 146.371189,73.3994088 145.728748,73.3994088 M145.837277,80.3290359 C144.914159,80.3290359 144.14822,79.9909749 143.543203,79.3136054 C142.936938,78.6374834 142.633806,77.7767376 142.633806,76.7313681 L142.633806,76.3583783 C142.633806,75.3092664 142.935691,74.438541 143.53946,73.746202 C144.14323,73.0538631 144.872993,72.7070698 145.728748,72.7070698 C146.629413,72.7070698 147.336721,72.9927376 147.851921,73.5628258 C148.368369,74.1329139 148.625345,74.8926156 148.625345,75.8419308 L148.625345,76.5355173 L143.440911,76.5355173 L143.440911,76.7313681 C143.440911,77.5559376 143.661711,78.2457817 144.102064,78.8046427 C144.543664,79.3635037 145.122484,79.6429342 145.837277,79.6429342 C146.338755,79.6429342 146.769128,79.5730766 147.125901,79.4321139 C147.482674,79.2923986 147.788301,79.091558 148.041535,78.8295919 L148.388328,79.3847105 C148.11264,79.6753681 147.764599,79.9049003 147.342959,80.0745546 C146.922565,80.2442088 146.421087,80.3290359 145.837277,80.3290359" id="Fill-44"></path>
                        <polygon id="Fill-45" points="153.816515 82.0178441 154.501369 82.0178441 154.501369 70.3054644 153.816515 70.3054644"></polygon>
                        <path d="M166.527485,73.2367403 L165.86259,73.2367403 L165.747824,71.8383403 C165.503322,71.5314658 165.170251,71.2907064 164.749858,71.1160624 C164.328217,70.9426658 163.836719,70.8553437 163.270373,70.8553437 C162.455783,70.8553437 161.822075,71.0312353 161.366753,71.3842658 C160.911431,71.7372963 160.684393,72.1751539 160.684393,72.7003336 C160.684393,73.1980692 160.888976,73.6134725 161.29939,73.9452963 C161.708556,74.2783675 162.417112,74.57152 163.426305,74.8247539 C164.489139,75.0966997 165.298739,75.4622047 165.85261,75.9237641 C166.406481,76.3853234 166.683417,76.9940827 166.683417,77.750042 C166.683417,78.5371878 166.36282,79.1634115 165.72038,79.6299607 C165.077939,80.0965098 164.257112,80.3285369 163.256651,80.3285369 C162.55059,80.3285369 161.895675,80.2037912 161.291905,79.9555471 C160.688136,79.7073031 160.194142,79.3517776 159.808678,78.8902183 L159.808678,77.1599946 L160.473573,77.1599946 L160.589586,78.6045505 C160.887729,78.943859 161.270698,79.2020827 161.736,79.3779742 C162.202549,79.5551132 162.709017,79.6436827 163.256651,79.6436827 C164.035064,79.6436827 164.665031,79.4715336 165.147797,79.1272353 C165.628068,78.7841844 165.870075,78.3288624 165.870075,77.7625166 C165.870075,77.2248624 165.669234,76.7845098 165.265058,76.4427064 C164.863376,76.1021505 164.162305,75.8002658 163.161844,75.5370522 C162.081546,75.2651064 161.260719,74.9133234 160.7056,74.4792081 C160.149234,74.0438454 159.869803,73.4587878 159.869803,72.7202929 C159.869803,71.965581 160.186658,71.3505844 160.820366,70.8753031 C161.454075,70.4012692 162.271159,70.1630047 163.270373,70.1630047 C163.990156,70.1630047 164.630102,70.2877505 165.1952,70.5359946 C165.757803,70.7854861 166.201898,71.1222997 166.527485,71.5476827 L166.527485,73.2367403 Z" id="Fill-46"></path>
                        <path d="M168.82131,76.6300746 C168.82131,77.4808407 169.035873,78.1956339 169.466245,78.7744542 C169.895371,79.3532746 170.495398,79.6439322 171.263832,79.6439322 C172.019791,79.6439322 172.612334,79.3532746 173.042706,78.7744542 C173.473079,78.1956339 173.686395,77.4808407 173.686395,76.6300746 L173.686395,76.4055322 C173.686395,75.5684881 173.471832,74.8586847 173.038964,74.2748746 C172.606096,73.6910644 172.011059,73.3991593 171.25011,73.3991593 C170.490408,73.3991593 169.895371,73.6910644 169.466245,74.2748746 C169.035873,74.8586847 168.82131,75.5684881 168.82131,76.4055322 L168.82131,76.6300746 Z M168.00672,76.4055322 C168.00672,75.3252339 168.303615,74.4382915 168.896157,73.7459525 C169.4887,73.0536136 170.273351,72.7068203 171.25011,72.7068203 C172.231859,72.7068203 173.019005,73.0536136 173.612795,73.7459525 C174.204089,74.4382915 174.502232,75.3252339 174.502232,76.4055322 L174.502232,76.6300746 C174.502232,77.7153627 174.205337,78.6035525 173.616537,79.2933966 C173.025242,79.9832407 172.241839,80.3287864 171.263832,80.3287864 C170.27834,80.3287864 169.4887,79.9832407 168.896157,79.2933966 C168.303615,78.6035525 168.00672,77.7153627 168.00672,76.6300746 L168.00672,76.4055322 Z" id="Fill-47"></path>
                        <polygon id="Fill-48" points="175.526395 70.2040461 175.526395 69.6002766 177.439995 69.6002766 177.439995 79.5013478 178.546489 79.5886698 178.546489 80.186202 175.526395 80.186202 175.526395 79.5886698 176.632889 79.5013478 176.632889 70.2913681"></polygon>
                        <path d="M185.223506,78.9782888 C184.992727,79.4086617 184.678367,79.7404854 184.276686,79.9762549 C183.876252,80.2107769 183.404713,80.3292854 182.862069,80.3292854 C182.087398,80.3292854 181.483628,80.0660719 181.045771,79.5421397 C180.610408,79.01696 180.392103,78.2023702 180.392103,77.0983702 L180.392103,73.5356312 L179.481459,73.4470617 L179.481459,72.8432922 L180.392103,72.8432922 L181.199208,72.8432922 L181.199208,77.1120922 C181.199208,78.0077668 181.351398,78.6502075 181.658273,79.0394142 C181.962652,79.428621 182.39552,79.6232244 182.958123,79.6232244 C183.57312,79.6232244 184.062123,79.4872515 184.426381,79.2153058 C184.790639,78.9446075 185.046367,78.5691227 185.19731,78.0888515 L185.19731,73.5356312 L184.15194,73.4470617 L184.15194,72.8432922 L185.19731,72.8432922 L186.010652,72.8432922 L186.010652,79.5009736 L186.994896,79.5895431 L186.994896,80.1858278 L185.298354,80.1858278 L185.223506,78.9782888 Z" id="Fill-49"></path>
                        <path d="M190.05491,70.9636231 L190.05491,72.8435417 L191.670367,72.8435417 L191.670367,73.5084366 L190.05491,73.5084366 L190.05491,78.2924366 C190.05491,78.7727078 190.142232,79.1132637 190.316876,79.3141044 C190.49152,79.5149451 190.7223,79.6159892 191.012957,79.6159892 C191.14394,79.6159892 191.271181,79.6109993 191.395927,79.5985247 C191.520673,79.5885451 191.66413,79.5685858 191.8263,79.5411417 L191.949798,80.1449112 C191.812578,80.2047892 191.647913,80.2496976 191.45331,80.2808841 C191.258706,80.313318 191.064103,80.3282875 190.8695,80.3282875 C190.353052,80.3282875 189.952618,80.166118 189.665703,79.8405315 C189.37754,79.5136976 189.234083,78.9984976 189.234083,78.2924366 L189.234083,73.5084366 L187.971656,73.5084366 L187.971656,72.8435417 L189.234083,72.8435417 L189.234083,70.9636231 L190.05491,70.9636231 Z" id="Fill-50"></path>
                        <path d="M194.215431,70.7395797 L195.022536,70.7395797 L195.022536,69.5994034 L194.215431,69.5994034 L194.215431,70.7395797 Z M193.108936,79.5890441 L194.215431,79.5004746 L194.215431,73.5351322 L193.108936,73.4465627 L193.108936,72.8427932 L195.022536,72.8427932 L195.022536,79.5004746 L196.129031,79.5890441 L196.129031,80.1865763 L193.108936,80.1865763 L193.108936,79.5890441 Z" id="Fill-51"></path>
                        <path d="M198.307216,76.6300746 C198.307216,77.4808407 198.521779,78.1956339 198.952152,78.7744542 C199.381277,79.3532746 199.981304,79.6439322 200.749738,79.6439322 C201.505698,79.6439322 202.09824,79.3532746 202.528613,78.7744542 C202.958986,78.1956339 203.172301,77.4808407 203.172301,76.6300746 L203.172301,76.4055322 C203.172301,75.5684881 202.957738,74.8586847 202.524871,74.2748746 C202.092003,73.6910644 201.496965,73.3991593 200.736016,73.3991593 C199.976315,73.3991593 199.381277,73.6910644 198.952152,74.2748746 C198.521779,74.8586847 198.307216,75.5684881 198.307216,76.4055322 L198.307216,76.6300746 Z M197.492626,76.4055322 C197.492626,75.3252339 197.789521,74.4382915 198.382064,73.7459525 C198.974606,73.0536136 199.759257,72.7068203 200.736016,72.7068203 C201.717765,72.7068203 202.504911,73.0536136 203.098701,73.7459525 C203.689996,74.4382915 203.988138,75.3252339 203.988138,76.4055322 L203.988138,76.6300746 C203.988138,77.7153627 203.691243,78.6035525 203.102443,79.2933966 C202.511148,79.9832407 201.727745,80.3287864 200.749738,80.3287864 C199.764247,80.3287864 198.974606,79.9832407 198.382064,79.2933966 C197.789521,78.6035525 197.492626,77.7153627 197.492626,76.6300746 L197.492626,76.4055322 Z" id="Fill-52"></path>
                        <path d="M205.162121,79.5891688 L206.268616,79.5005993 L206.268616,73.5352569 L205.162121,73.4466875 L205.162121,72.842918 L206.987151,72.842918 L207.061999,74.1265519 C207.297768,73.6737247 207.61587,73.3244366 208.015056,73.07744 C208.41549,72.8304434 208.889524,72.7069451 209.437158,72.7069451 C210.233036,72.7069451 210.840548,72.9501993 211.255951,73.4367078 C211.672602,73.9232163 211.880927,74.6816705 211.880927,75.7145654 L211.880927,79.5005993 L212.986175,79.5891688 L212.986175,80.186701 L209.959843,80.186701 L209.959843,79.5891688 L211.06509,79.5005993 L211.06509,75.7208027 C211.06509,74.8787688 210.907911,74.284979 210.593551,73.9356908 C210.280439,73.5876502 209.832602,73.4130061 209.253782,73.4130061 C208.683694,73.4130061 208.218392,73.5639485 207.859124,73.8645858 C207.499856,74.1652231 207.240385,74.5644095 207.081958,75.0621451 L207.081958,79.5005993 L208.188453,79.5891688 L208.188453,80.186701 L205.162121,80.186701 L205.162121,79.5891688 Z" id="Fill-53"></path>
                        <path d="M219.589467,75.109798 L218.92582,75.109798 L218.831013,74.0706658 C218.62643,73.858598 218.369454,73.6939336 218.058837,73.5766725 C217.749467,73.4581641 217.392694,73.3995336 216.991013,73.3995336 C216.397223,73.3995336 215.953128,73.5267742 215.657481,73.7837505 C215.360586,74.0394793 215.212138,74.3388692 215.212138,74.68192 C215.212138,75.0212285 215.340626,75.3019064 215.596355,75.5239539 C215.852084,75.7460014 216.362294,75.9406047 217.125738,76.1077641 C218.000206,76.3023675 218.653874,76.5680759 219.087989,76.9048895 C219.522104,77.2417031 219.739162,77.7007675 219.739162,78.2795878 C219.739162,78.8895946 219.492165,79.3848353 218.995677,79.7615675 C218.500437,80.1395471 217.846769,80.3291607 217.030932,80.3291607 C216.489535,80.3291607 215.994294,80.2530658 215.548952,80.1008759 C215.102362,79.9499336 214.718145,79.7353708 214.391311,79.4596827 L214.391311,77.980198 L215.049969,77.980198 L215.164735,79.0255675 C215.38304,79.2426251 215.657481,79.3998047 215.989304,79.4971064 C216.322376,79.5944081 216.669169,79.643059 217.030932,79.643059 C217.619732,79.643059 218.083786,79.5145708 218.421847,79.2563471 C218.762403,78.9981234 218.932057,78.686259 218.932057,78.3195064 C218.932057,77.9764556 218.789847,77.6758183 218.507921,77.4175946 C218.224748,77.1593708 217.714538,76.9485505 216.977291,76.786381 C216.104071,76.59552 215.45664,76.3435336 215.033752,76.0291742 C214.609616,75.7148149 214.398796,75.2744624 214.398796,74.7093641 C214.398796,74.1480081 214.635813,73.6752217 215.111094,73.2885098 C215.586376,72.9005505 216.212599,72.7071946 216.991013,72.7071946 C217.529915,72.7071946 218.021413,72.7907742 218.466755,72.9554386 C218.912098,73.1201031 219.275108,73.343398 219.557033,73.6240759 L219.589467,75.109798 Z" id="Fill-54"></path>
                        <polygon id="Fill-55" points="2.83759186 86.1651417 2.07040542 86.2200298 4.22850712 90.1120976 6.39908339 86.2200298 5.63189695 86.1651417 5.63189695 85.6773858 7.83116475 85.6773858 7.83116475 86.1651417 7.15130034 86.2200298 4.5528461 90.7433112 4.5528461 93.1047485 5.44727322 93.177101 5.44727322 93.6598671 3.00100881 93.6598671 3.00100881 93.177101 3.89543593 93.1047485 3.89543593 90.70464 1.31818847 86.2200298 0.644561356 86.1651417 0.644561356 85.6773858 2.83759186 85.6773858"></polygon>
                        <path d="M9.24178983,90.7870969 C9.24178983,91.4744461 9.4164339,92.052019 9.76322712,92.5198156 C10.1100203,92.9876122 10.5940339,93.2208868 11.2152678,93.2208868 C11.8252746,93.2208868 12.3042983,92.9876122 12.652339,92.5198156 C12.9991322,92.052019 13.1725288,91.4744461 13.1725288,90.7870969 L13.1725288,90.6049681 C13.1725288,89.9300936 12.9991322,89.3562631 12.6485966,88.8847241 C12.3005559,88.4131851 11.8190373,88.1774156 11.2052881,88.1774156 C10.591539,88.1774156 10.1100203,88.4131851 9.76322712,88.8847241 C9.4164339,89.3562631 9.24178983,89.9300936 9.24178983,90.6049681 L9.24178983,90.7870969 Z M8.58437966,90.6049681 C8.58437966,89.7317478 8.82389153,89.0157071 9.30291525,88.4568461 C9.78193898,87.8979851 10.4156475,87.6185546 11.2052881,87.6185546 C11.9974237,87.6185546 12.6336271,87.8979851 13.1138983,88.4568461 C13.5904271,89.0157071 13.8311864,89.7317478 13.8311864,90.6049681 L13.8311864,90.7870969 C13.8311864,91.6640597 13.5916746,92.3813478 13.1151458,92.9389614 C12.6386169,93.4965749 12.0049085,93.774758 11.2152678,93.774758 C10.4181424,93.774758 9.78193898,93.4965749 9.30291525,92.9389614 C8.82389153,92.3813478 8.58437966,91.6640597 8.58437966,90.7870969 L8.58437966,90.6049681 Z" id="Fill-56"></path>
                        <path d="M19.1690576,92.6838563 C18.9831864,93.0306495 18.7274576,93.2988529 18.4043661,93.4897139 C18.0812746,93.6793275 17.6995525,93.7741342 17.2616949,93.7741342 C16.6367186,93.7741342 16.1477153,93.5620664 15.7946847,93.1379308 C15.4429017,92.7137953 15.2657627,92.0563851 15.2657627,91.1644529 L15.2657627,88.2878156 L14.5310102,88.2154631 L14.5310102,87.7277071 L15.2657627,87.7277071 L15.9194305,87.7277071 L15.9194305,91.17568 C15.9194305,91.8992054 16.0416814,92.4181478 16.2874305,92.7325071 C16.5356746,93.0468664 16.8849627,93.2040461 17.3377898,93.2040461 C17.8355254,93.2040461 18.2309695,93.0942698 18.524122,92.8747173 C18.8197695,92.6564122 19.0268475,92.3520325 19.1466034,91.9653207 L19.1466034,88.2878156 L18.303322,88.2154631 L18.303322,87.7277071 L19.1466034,87.7277071 L19.805261,87.7277071 L19.805261,93.1054969 L20.5986441,93.1778495 L20.5986441,93.6593681 L19.2301831,93.6593681 L19.1690576,92.6838563 Z" id="Fill-57"></path>
                        <path d="M22.8943403,87.7280814 L22.9766725,88.7148203 L22.9766725,88.7859254 C23.1438319,88.4204203 23.3746115,88.1347525 23.6640217,87.9276746 C23.9559268,87.7218441 24.2989776,87.6183051 24.6969166,87.6183051 C24.7817437,87.6183051 24.8628285,87.6245424 24.9426658,87.6382644 C25.0200081,87.650739 25.0848759,87.6632136 25.1360217,87.6781831 L25.0486997,88.2919322 L24.5609437,88.2594983 C24.1480353,88.2594983 23.8087268,88.3767593 23.5442658,88.607539 C23.2798047,88.8408136 23.0889437,89.1576678 22.9766725,89.564339 L22.9766725,93.1058712 L23.8698522,93.1769763 L23.8698522,93.6597424 L21.4298251,93.6597424 L21.4298251,93.1769763 L22.3242522,93.1058712 L22.3242522,88.2869424 L21.4298251,88.2158373 L21.4298251,87.7280814 L22.3242522,87.7280814 L22.8943403,87.7280814 Z" id="Fill-58"></path>
                        <path d="M30.0441437,86.2089275 L30.0441437,87.7283308 L31.3489844,87.7283308 L31.3489844,88.2647376 L30.0441437,88.2647376 L30.0441437,92.1293614 C30.0441437,92.5173207 30.1152488,92.7917614 30.2549641,92.9551783 C30.3959268,93.1173478 30.5830454,93.19968 30.81632,93.19968 C30.9223539,93.19968 31.0258929,93.1946902 31.1269369,93.185958 C31.2267336,93.1759783 31.3427471,93.1597614 31.4737302,93.1385546 L31.5747742,93.6263105 C31.464998,93.6737139 31.3302725,93.7111376 31.1730929,93.7360868 C31.0159132,93.7622834 30.8587336,93.7735105 30.7015539,93.7735105 C30.2849031,93.7735105 29.9618115,93.6425275 29.7285369,93.3793139 C29.4977573,93.1161003 29.3817437,92.6994495 29.3817437,92.1293614 L29.3817437,88.2647376 L28.3600759,88.2647376 L28.3600759,87.7283308 L29.3817437,87.7283308 L29.3817437,86.2089275 L30.0441437,86.2089275 Z" id="Fill-59"></path>
                        <path d="M33.886438,87.7280814 L33.9687702,88.7148203 L33.9687702,88.7859254 C34.1359295,88.4204203 34.3667092,88.1347525 34.6561193,87.9276746 C34.9480244,87.7218441 35.2910753,87.6183051 35.6890142,87.6183051 C35.7738414,87.6183051 35.8549261,87.6245424 35.9347634,87.6382644 C36.0121058,87.650739 36.0769736,87.6632136 36.1281193,87.6781831 L36.0407973,88.2919322 L35.5530414,88.2594983 C35.1401329,88.2594983 34.8008244,88.3767593 34.5363634,88.607539 C34.2719024,88.8408136 34.0810414,89.1576678 33.9687702,89.564339 L33.9687702,93.1058712 L34.8619498,93.1769763 L34.8619498,93.6597424 L32.4219227,93.6597424 L32.4219227,93.1769763 L33.3163498,93.1058712 L33.3163498,88.2869424 L32.4219227,88.2158373 L32.4219227,87.7280814 L33.3163498,87.7280814 L33.886438,87.7280814 Z" id="Fill-60"></path>
                        <path d="M41.2469369,92.6838563 C41.0610658,93.0306495 40.8053369,93.2988529 40.4822454,93.4897139 C40.1591539,93.6793275 39.7774319,93.7741342 39.3395742,93.7741342 C38.714598,93.7741342 38.2255946,93.5620664 37.8725641,93.1379308 C37.520781,92.7137953 37.343642,92.0563851 37.343642,91.1644529 L37.343642,88.2878156 L36.6088895,88.2154631 L36.6088895,87.7277071 L37.343642,87.7277071 L37.9973098,87.7277071 L37.9973098,91.17568 C37.9973098,91.8992054 38.1195607,92.4181478 38.3653098,92.7325071 C38.6135539,93.0468664 38.962842,93.2040461 39.4156692,93.2040461 C39.9134047,93.2040461 40.3088488,93.0942698 40.6020014,92.8747173 C40.8976488,92.6564122 41.1047268,92.3520325 41.2244827,91.9653207 L41.2244827,88.2878156 L40.3812014,88.2154631 L40.3812014,87.7277071 L41.2244827,87.7277071 L41.8831403,87.7277071 L41.8831403,93.1054969 L42.6765234,93.1778495 L42.6765234,93.6593681 L41.3080624,93.6593681 L41.2469369,92.6838563 Z" id="Fill-61"></path>
                        <path d="M47.855718,89.5590997 L47.3180637,89.5590997 L47.2419688,88.7195607 C47.0773044,88.5474115 46.8702264,88.415181 46.6194875,88.3203742 C46.3699959,88.2255675 46.0805858,88.1781641 45.7562468,88.1781641 C45.2772231,88.1781641 44.9192027,88.2817031 44.6784434,88.4875336 C44.440179,88.6946115 44.3191756,88.9353708 44.3191756,89.2135539 C44.3191756,89.4867471 44.4227146,89.7137844 44.6297925,89.8934183 C44.8356231,90.0718047 45.2472841,90.2289844 45.8660231,90.3649573 C46.5708366,90.5208895 47.0997586,90.7366997 47.4502942,91.0086454 C47.8008298,91.2818386 47.9767214,91.6510861 47.9767214,92.1188827 C47.9767214,92.6116285 47.7771281,93.0120624 47.3754468,93.3176895 C46.9762603,93.6220692 46.4460908,93.774259 45.7886807,93.774259 C45.3495756,93.774259 44.9516366,93.7131336 44.5911214,93.5908827 C44.2318536,93.4686319 43.9199892,93.2952353 43.6567756,93.0719403 L43.6567756,91.8768759 L44.1881925,91.8768759 L44.2817519,92.7214047 C44.4563959,92.8972963 44.6784434,93.0245369 44.9478942,93.1031268 C45.2160976,93.1817166 45.4955281,93.2216353 45.7886807,93.2216353 C46.263962,93.2216353 46.6381993,93.1168488 46.91264,92.9085234 C47.1870807,92.700198 47.3230536,92.4469641 47.3230536,92.1513166 C47.3230536,91.8731336 47.2095349,91.6311268 46.9812502,91.4228014 C46.7529654,91.2144759 46.3400569,91.0435742 45.7450197,90.9125912 C45.0389586,90.7591539 44.5162739,90.5558183 44.1744705,90.3025844 C43.8326671,90.0481031 43.6617654,89.6913302 43.6617654,89.2347607 C43.6617654,88.7819336 43.8538739,88.3989641 44.2380908,88.0870997 C44.6210603,87.7739878 45.1262807,87.6180556 45.7562468,87.6180556 C46.190362,87.6180556 46.588301,87.6854183 46.9475688,87.8176488 C47.3093315,87.9523742 47.6012366,88.1307607 47.8282739,88.357798 L47.855718,89.5590997 Z" id="Fill-62"></path>
                        <path d="M50.5881492,86.2089275 L50.5881492,87.7283308 L51.8929898,87.7283308 L51.8929898,88.2647376 L50.5881492,88.2647376 L50.5881492,92.1293614 C50.5881492,92.5173207 50.6592542,92.7917614 50.7989695,92.9551783 C50.9399322,93.1173478 51.1270508,93.19968 51.3603254,93.19968 C51.4663593,93.19968 51.5698983,93.1946902 51.6709424,93.185958 C51.770739,93.1759783 51.8867525,93.1597614 52.0177356,93.1385546 L52.1187797,93.6263105 C52.0090034,93.6737139 51.874278,93.7111376 51.7170983,93.7360868 C51.5599186,93.7622834 51.402739,93.7735105 51.2455593,93.7735105 C50.8289085,93.7735105 50.5058169,93.6425275 50.2725424,93.3793139 C50.0417627,93.1161003 49.9257492,92.6994495 49.9257492,92.1293614 L49.9257492,88.2647376 L48.9040814,88.2647376 L48.9040814,87.7283308 L49.9257492,87.7283308 L49.9257492,86.2089275 L50.5881492,86.2089275 Z" id="Fill-63"></path>
                        <path d="M55.5365641,88.1776651 C55.053798,88.1776651 54.6471268,88.3622888 54.3165505,88.7340312 C53.9859742,89.1045261 53.7938658,89.5698278 53.7389776,90.1286888 L53.7489573,90.1561329 L57.2256217,90.1561329 L57.2256217,89.9914685 C57.2256217,89.4762685 57.0721844,89.0446481 56.7702997,88.6978549 C56.46592,88.3510617 56.0555064,88.1776651 55.5365641,88.1776651 M55.6238861,93.77376 C54.8791539,93.77376 54.2616624,93.5018142 53.7714115,92.9554278 C53.2811607,92.4090414 53.036659,91.71296 53.036659,90.8684312 L53.036659,90.5677939 C53.036659,89.7195227 53.2799132,89.0159566 53.7689166,88.4570956 C54.2566725,87.8969871 54.8454725,87.6188041 55.5365641,87.6188041 C56.2638319,87.6188041 56.8364149,87.8483363 57.2530658,88.3086481 C57.6697166,88.7702075 57.8767946,89.3839566 57.8767946,90.1511431 L57.8767946,90.7100041 L53.6890793,90.7100041 L53.6890793,90.8684312 C53.6890793,91.5333261 53.8674658,92.0934346 54.2229912,92.5437668 C54.5797641,92.9953464 55.0463132,93.2211363 55.6238861,93.2211363 C56.0305573,93.2211363 56.3773505,93.1637532 56.6655132,93.0502346 C56.9549234,92.9367159 57.2006725,92.7757939 57.4065031,92.5637261 L57.6859336,93.0128108 C57.4626386,93.2460854 57.1807132,93.4319566 56.8414047,93.5691769 C56.5008488,93.7063973 56.0954251,93.77376 55.6238861,93.77376" id="Fill-64"></path>
                        <path d="M59.6237342,90.8577031 C59.6237342,91.5737437 59.7671919,92.1438319 60.0541071,92.5679675 C60.3410224,92.9921031 60.7726427,93.2041708 61.3502156,93.2041708 C61.7706088,93.2041708 62.1223919,93.1093641 62.4055647,92.9185031 C62.6887376,92.7288895 62.9095376,92.4681708 63.0667173,92.1350997 L63.0667173,89.32832 C62.9207647,88.9927539 62.7099444,88.7183132 62.4330088,88.5062454 C62.1573207,88.2941776 61.8005478,88.1881437 61.3626902,88.1881437 C60.7838698,88.1881437 60.3497546,88.4251607 60.0603444,88.8991946 C59.7684393,89.371981 59.6237342,89.9869776 59.6237342,90.7429369 L59.6237342,90.8577031 Z M63.0816868,92.8049844 C62.8845885,93.1156014 62.6313546,93.3538658 62.3207376,93.5222725 C62.0101207,93.6906793 61.6446156,93.774259 61.2242224,93.774259 C60.5156664,93.774259 59.9617953,93.509798 59.5601139,92.9796285 C59.1609275,92.449459 58.9600868,91.7421505 58.9600868,90.8577031 L58.9600868,90.7429369 C58.9600868,89.7961166 59.1609275,89.0389098 59.5601139,88.4713166 C59.9617953,87.9024759 60.5194088,87.6180556 61.2354495,87.6180556 C61.648358,87.6180556 62.0063783,87.7053776 62.3095105,87.8787742 C62.6126427,88.0521708 62.8658766,88.2991675 63.0667173,88.6210115 L63.0667173,85.6670319 L62.1735376,85.5946793 L62.1735376,85.1081708 L63.0667173,85.1081708 L63.7241275,85.1081708 L63.7241275,93.1056217 L64.6173071,93.1767268 L64.6173071,93.6594929 L63.1378224,93.6594929 L63.0816868,92.8049844 Z" id="Fill-65"></path>
                        <path d="M73.0131959,90.7431864 C73.0131959,89.989722 72.8622536,89.3759729 72.5628637,88.9006915 C72.2622264,88.4266576 71.8243688,88.1883932 71.2467959,88.1883932 C70.8039485,88.1883932 70.4459281,88.2931797 70.17024,88.504 C69.8945519,88.7135729 69.6862264,88.9867661 69.5490061,89.3223322 L69.5490061,92.1727729 C69.6974536,92.4983593 69.9145112,92.7540881 70.1976841,92.9412068 C70.4808569,93.127078 70.8338875,93.2206373 71.2592705,93.2206373 C71.8318536,93.2206373 72.2672163,93.0048271 72.5666061,92.5744542 C72.863501,92.1428339 73.0131959,91.5702508 73.0131959,90.8579525 L73.0131959,90.7431864 Z M68.0009112,88.2158373 L68.0009112,87.7280814 L69.4442197,87.7280814 L69.5265519,88.6487051 C69.7261451,88.3206237 69.9831214,88.0661424 70.2962332,87.8865085 C70.6080976,87.7068746 70.9748502,87.6183051 71.3952434,87.6183051 C72.1075417,87.6183051 72.6651553,87.9027254 73.0668366,88.4715661 C73.468518,89.0391593 73.6706061,89.7963661 73.6706061,90.7431864 L73.6706061,90.8579525 C73.6706061,91.7461424 73.468518,92.4546983 73.0668366,92.9823729 C72.6651553,93.5112949 72.1112841,93.7745085 71.4064705,93.7745085 C70.9898197,93.7745085 70.625562,93.6946712 70.3124502,93.5362441 C70.0005858,93.3765695 69.7461044,93.1520271 69.5490061,92.8588746 L69.5490061,95.3812339 L70.4409383,95.4510915 L70.4409383,95.9400949 L68.0009112,95.9400949 L68.0009112,95.4510915 L68.8953383,95.3812339 L68.8953383,88.2869424 L68.0009112,88.2158373 Z" id="Fill-66"></path>
                        <path d="M76.5837939,93.1930685 C77.0590753,93.1930685 77.4769736,93.0832922 77.8399837,92.8637397 C78.200499,92.6454346 78.4624651,92.3622617 78.6233871,92.0154685 L78.6233871,90.8253939 L77.301082,90.8253939 C76.7060447,90.8253939 76.2307634,90.9488922 75.8739905,91.1946414 C75.5184651,91.4428854 75.3400786,91.7535024 75.3400786,92.1289871 C75.3400786,92.4470888 75.4498549,92.7040651 75.6719024,92.9011634 C75.8914549,93.0957668 76.1958346,93.1930685 76.5837939,93.1930685 Z M78.7431431,93.6596176 C78.699482,93.4587769 78.6682956,93.2841329 78.6508312,93.1381803 C78.6321193,92.9922278 78.6233871,92.8450278 78.6233871,92.6953329 C78.4038346,93.0059498 78.1119295,93.2629261 77.7464244,93.4675092 C77.3809193,93.6720922 76.9692583,93.7743837 76.5114414,93.7743837 C75.932621,93.7743837 75.4810414,93.6246888 75.1641871,93.3240515 C74.844838,93.0246617 74.6864108,92.619238 74.6864108,92.1077803 C74.6864108,91.558899 74.9234278,91.1247837 75.3937193,90.8029397 C75.8665058,90.4810956 76.5052041,90.3201736 77.3135566,90.3201736 L78.6233871,90.3201736 L78.6233871,89.5367702 C78.6233871,89.1126346 78.4861668,88.7808108 78.2154685,88.5400515 C77.9422753,88.2980447 77.5605532,88.1770414 77.0727973,88.1770414 C76.7434685,88.1770414 76.4428312,88.2231973 76.169638,88.3117668 C75.8976922,88.4015837 75.6706549,88.5225871 75.4872786,88.6760244 L75.4323905,89.4719024 L74.8897464,89.4719024 L74.8947363,88.3317261 C75.1691769,88.1196583 75.4972583,87.9475092 75.8802278,87.8152786 C76.2607024,87.6842956 76.6673736,87.6181803 77.0989939,87.6181803 C77.7526617,87.6181803 78.2790888,87.7840922 78.6782753,88.1171634 C79.0762142,88.4489871 79.27456,88.9267634 79.27456,89.5479973 L79.27456,92.4645532 C79.27456,92.5855566 79.2783024,92.7003227 79.2832922,92.8125939 C79.2895295,92.9236176 79.3007566,93.0321464 79.318221,93.1381803 L79.9107634,93.1768515 L79.9107634,93.6596176 L78.7431431,93.6596176 Z" id="Fill-67"></path>
                        <path d="M82.1730278,87.7280814 L82.25536,88.7148203 L82.25536,88.7859254 C82.4225193,88.4204203 82.653299,88.1347525 82.9427092,87.9276746 C83.2346142,87.7218441 83.5776651,87.6183051 83.9756041,87.6183051 C84.0604312,87.6183051 84.1415159,87.6245424 84.2213532,87.6382644 C84.2986956,87.650739 84.3635634,87.6632136 84.4147092,87.6781831 L84.3273871,88.2919322 L83.8396312,88.2594983 C83.4267227,88.2594983 83.0874142,88.3767593 82.8229532,88.607539 C82.5584922,88.8408136 82.3676312,89.1576678 82.25536,89.564339 L82.25536,93.1058712 L83.1485397,93.1769763 L83.1485397,93.6597424 L80.7085125,93.6597424 L80.7085125,93.1769763 L81.6029397,93.1058712 L81.6029397,88.2869424 L80.7085125,88.2158373 L80.7085125,87.7280814 L81.6029397,87.7280814 L82.1730278,87.7280814 Z" id="Fill-68"></path>
                        <path d="M86.6815892,86.2089275 L86.6815892,87.7283308 L87.9864298,87.7283308 L87.9864298,88.2647376 L86.6815892,88.2647376 L86.6815892,92.1293614 C86.6815892,92.5173207 86.7526942,92.7917614 86.8924095,92.9551783 C87.0333722,93.1173478 87.2204908,93.19968 87.4537654,93.19968 C87.5597993,93.19968 87.6633383,93.1946902 87.7643824,93.185958 C87.864179,93.1759783 87.9801925,93.1597614 88.1111756,93.1385546 L88.2122197,93.6263105 C88.1024434,93.6737139 87.967718,93.7111376 87.8105383,93.7360868 C87.6533586,93.7622834 87.496179,93.7735105 87.3389993,93.7735105 C86.9223485,93.7735105 86.5992569,93.6425275 86.3659824,93.3793139 C86.1352027,93.1161003 86.0191892,92.6994495 86.0191892,92.1293614 L86.0191892,88.2647376 L84.9975214,88.2647376 L84.9975214,87.7283308 L86.0191892,87.7283308 L86.0191892,86.2089275 L86.6815892,86.2089275 Z" id="Fill-69"></path>
                        <path d="M88.982899,93.1772258 L89.8760786,93.1048732 L89.8760786,88.2871919 L88.982899,88.2148393 L88.982899,87.7283308 L90.4573939,87.7283308 L90.5172719,88.7637207 C90.7068854,88.3982156 90.9638617,88.1162902 91.2882007,87.9166969 C91.6100447,87.7183512 91.9930142,87.6185546 92.4358617,87.6185546 C93.0783024,87.6185546 93.5685532,87.8144054 93.9041193,88.208602 C94.2409329,88.6003037 94.4093397,89.2128054 94.4093397,90.0461071 L94.4093397,93.1048732 L95.3025193,93.1772258 L95.3025193,93.6599919 L92.8575024,93.6599919 L92.8575024,93.1772258 L93.750682,93.1048732 L93.750682,90.0523444 C93.750682,89.37248 93.6246888,88.8909614 93.3714549,88.6102834 C93.1157261,88.328358 92.7552108,88.1886427 92.2874142,88.1886427 C91.8271024,88.1886427 91.4516176,88.3108936 91.16096,88.5529003 C90.8715498,88.7961546 90.6619769,89.1179986 90.5334888,89.51968 L90.5334888,93.1048732 L91.4266685,93.1772258 L91.4266685,93.6599919 L88.982899,93.6599919 L88.982899,93.1772258 Z" id="Fill-70"></path>
                        <path d="M98.7712,88.1776651 C98.2884339,88.1776651 97.8817627,88.3622888 97.5511864,88.7340312 C97.2206102,89.1045261 97.0285017,89.5698278 96.9736136,90.1286888 L96.9835932,90.1561329 L100.460258,90.1561329 L100.460258,89.9914685 C100.460258,89.4762685 100.30682,89.0446481 100.004936,88.6978549 C99.7005559,88.3510617 99.2901424,88.1776651 98.7712,88.1776651 M98.858522,93.77376 C98.1137898,93.77376 97.4962983,93.5018142 97.0060475,92.9554278 C96.5157966,92.4090414 96.2712949,91.71296 96.2712949,90.8684312 L96.2712949,90.5677939 C96.2712949,89.7195227 96.5145492,89.0159566 97.0035525,88.4570956 C97.4913085,87.8969871 98.0801085,87.6188041 98.7712,87.6188041 C99.4984678,87.6188041 100.071051,87.8483363 100.487702,88.3086481 C100.904353,88.7702075 101.111431,89.3839566 101.111431,90.1511431 L101.111431,90.7100041 L96.9237153,90.7100041 L96.9237153,90.8684312 C96.9237153,91.5333261 97.1021017,92.0934346 97.4576271,92.5437668 C97.8144,92.9953464 98.2809492,93.2211363 98.858522,93.2211363 C99.2651932,93.2211363 99.6119864,93.1637532 99.9001492,93.0502346 C100.189559,92.9367159 100.435308,92.7757939 100.641139,92.5637261 L100.920569,93.0128108 C100.697275,93.2460854 100.415349,93.4319566 100.076041,93.5691769 C99.7354847,93.7063973 99.330061,93.77376 98.858522,93.77376" id="Fill-71"></path>
                        <path d="M103.614953,87.7280814 L103.697285,88.7148203 L103.697285,88.7859254 C103.864445,88.4204203 104.095224,88.1347525 104.384635,87.9276746 C104.67654,87.7218441 105.019591,87.6183051 105.417529,87.6183051 C105.502357,87.6183051 105.583441,87.6245424 105.663279,87.6382644 C105.740621,87.650739 105.805489,87.6632136 105.856635,87.6781831 L105.769313,88.2919322 L105.281557,88.2594983 C104.868648,88.2594983 104.52934,88.3767593 104.264879,88.607539 C104.000418,88.8408136 103.809557,89.1576678 103.697285,89.564339 L103.697285,93.1058712 L104.590465,93.1769763 L104.590465,93.6597424 L102.150438,93.6597424 L102.150438,93.1769763 L103.044865,93.1058712 L103.044865,88.2869424 L102.150438,88.2158373 L102.150438,87.7280814 L103.044865,87.7280814 L103.614953,87.7280814 Z" id="Fill-72"></path>
                        <path d="M109.163894,88.2653614 L109.163894,87.7277071 L110.145643,87.7277071 L110.145643,86.8619715 C110.145643,86.2656868 110.294091,85.8053749 110.593481,85.4810359 C110.894118,85.1554495 111.313264,84.9920325 111.849671,84.9920325 C111.966932,84.9920325 112.087935,85.0020122 112.211433,85.0194766 C112.336179,85.0381885 112.462172,85.0643851 112.589413,85.096819 L112.508328,85.6394631 C112.419759,85.6170088 112.329942,85.5995444 112.238877,85.5883173 C112.147813,85.5745953 112.040532,85.568358 111.915786,85.568358 C111.557765,85.568358 111.282077,85.6818766 111.091216,85.9076664 C110.899108,86.1347037 110.803054,86.4528054 110.803054,86.8619715 L110.803054,87.7277071 L112.216423,87.7277071 L112.216423,88.2653614 L110.803054,88.2653614 L110.803054,93.1054969 L111.696233,93.1778495 L111.696233,93.6593681 L109.251216,93.6593681 L109.251216,93.1778495 L110.145643,93.1054969 L110.145643,88.2653614 L109.163894,88.2653614 Z" id="Fill-73"></path>
                        <path d="M113.799197,90.7870969 C113.799197,91.4744461 113.973841,92.052019 114.320635,92.5198156 C114.667428,92.9876122 115.151441,93.2208868 115.772675,93.2208868 C116.382682,93.2208868 116.861706,92.9876122 117.209746,92.5198156 C117.55654,92.052019 117.729936,91.4744461 117.729936,90.7870969 L117.729936,90.6049681 C117.729936,89.9300936 117.55654,89.3562631 117.206004,88.8847241 C116.857963,88.4131851 116.376445,88.1774156 115.762696,88.1774156 C115.148946,88.1774156 114.667428,88.4131851 114.320635,88.8847241 C113.973841,89.3562631 113.799197,89.9300936 113.799197,90.6049681 L113.799197,90.7870969 Z M113.141787,90.6049681 C113.141787,89.7317478 113.381299,89.0157071 113.860323,88.4568461 C114.339346,87.8979851 114.973055,87.6185546 115.762696,87.6185546 C116.554831,87.6185546 117.191035,87.8979851 117.671306,88.4568461 C118.147835,89.0157071 118.388594,89.7317478 118.388594,90.6049681 L118.388594,90.7870969 C118.388594,91.6640597 118.149082,92.3813478 117.672553,92.9389614 C117.196024,93.4965749 116.562316,93.774758 115.772675,93.774758 C114.97555,93.774758 114.339346,93.4965749 113.860323,92.9389614 C113.381299,92.3813478 113.141787,91.6640597 113.141787,90.7870969 L113.141787,90.6049681 Z" id="Fill-74"></path>
                        <path d="M120.786956,87.7280814 L120.869288,88.7148203 L120.869288,88.7859254 C121.036447,88.4204203 121.267227,88.1347525 121.556637,87.9276746 C121.847295,87.7218441 122.190346,87.6183051 122.588285,87.6183051 C122.673112,87.6183051 122.754197,87.6245424 122.834034,87.6382644 C122.911376,87.650739 122.976244,87.6632136 123.02739,87.6781831 L122.940068,88.2919322 L122.452312,88.2594983 C122.039403,88.2594983 121.700095,88.3767593 121.436881,88.607539 C121.17242,88.8408136 120.981559,89.1576678 120.869288,89.564339 L120.869288,93.1058712 L121.76122,93.1769763 L121.76122,93.6597424 L119.322441,93.6597424 L119.322441,93.1769763 L120.216868,93.1058712 L120.216868,88.2869424 L119.322441,88.2158373 L119.322441,87.7280814 L120.216868,87.7280814 L120.786956,87.7280814 Z" id="Fill-75"></path>
                        <path d="M127.279349,86.0284203 L127.931769,86.0284203 L127.931769,85.1077966 L127.279349,85.1077966 L127.279349,86.0284203 Z M126.384922,93.1776 L127.279349,93.1052475 L127.279349,88.2875661 L126.384922,88.2152136 L126.384922,87.7287051 L127.931769,87.7287051 L127.931769,93.1052475 L128.824949,93.1776 L128.824949,93.6591186 L126.384922,93.6591186 L126.384922,93.1776 Z" id="Fill-76"></path>
                        <path d="M129.716507,93.1772258 L130.609687,93.1048732 L130.609687,88.2871919 L129.716507,88.2148393 L129.716507,87.7283308 L131.191002,87.7283308 L131.25088,88.7637207 C131.440494,88.3982156 131.69747,88.1162902 132.021809,87.9166969 C132.343653,87.7183512 132.726622,87.6185546 133.16947,87.6185546 C133.811911,87.6185546 134.302161,87.8144054 134.637727,88.208602 C134.974541,88.6003037 135.142948,89.2128054 135.142948,90.0461071 L135.142948,93.1048732 L136.036127,93.1772258 L136.036127,93.6599919 L133.591111,93.6599919 L133.591111,93.1772258 L134.48429,93.1048732 L134.48429,90.0523444 C134.48429,89.37248 134.358297,88.8909614 134.105063,88.6102834 C133.849334,88.328358 133.488819,88.1886427 133.021022,88.1886427 C132.560711,88.1886427 132.185226,88.3108936 131.894568,88.5529003 C131.605158,88.7961546 131.395585,89.1179986 131.267097,89.51968 L131.267097,93.1048732 L132.160277,93.1772258 L132.160277,93.6599919 L129.716507,93.6599919 L129.716507,93.1772258 Z" id="Fill-77"></path>
                        <polygon id="Fill-78" points="138.699699 88.2153383 137.958709 88.2702264 139.439441 92.1735214 139.630302 92.8696027 139.663984 92.8696027 139.871062 92.1735214 141.330587 88.2702264 140.590845 88.2153383 140.590845 87.7275824 142.585529 87.7275824 142.585529 88.2153383 142.004214 88.2652366 139.91098 93.6592434 139.384553 93.6592434 137.283835 88.2652366 136.703767 88.2153383 136.703767 87.7275824 138.699699 87.7275824"></polygon>
                        <path d="M145.748209,88.1776651 C145.265443,88.1776651 144.858772,88.3622888 144.528195,88.7340312 C144.197619,89.1045261 144.005511,89.5698278 143.950622,90.1286888 L143.960602,90.1561329 L147.437266,90.1561329 L147.437266,89.9914685 C147.437266,89.4762685 147.283829,89.0446481 146.981944,88.6978549 C146.677565,88.3510617 146.267151,88.1776651 145.748209,88.1776651 M145.835531,93.77376 C145.090799,93.77376 144.473307,93.5018142 143.983056,92.9554278 C143.492805,92.4090414 143.248304,91.71296 143.248304,90.8684312 L143.248304,90.5677939 C143.248304,89.7195227 143.491558,89.0159566 143.980561,88.4570956 C144.468317,87.8969871 145.057117,87.6188041 145.748209,87.6188041 C146.475477,87.6188041 147.04806,87.8483363 147.464711,88.3086481 C147.881361,88.7702075 148.088439,89.3839566 148.088439,90.1511431 L148.088439,90.7100041 L143.900724,90.7100041 L143.900724,90.8684312 C143.900724,91.5333261 144.079111,92.0934346 144.434636,92.5437668 C144.791409,92.9953464 145.257958,93.2211363 145.835531,93.2211363 C146.242202,93.2211363 146.588995,93.1637532 146.877158,93.0502346 C147.166568,92.9367159 147.412317,92.7757939 147.618148,92.5637261 L147.897578,93.0128108 C147.674283,93.2460854 147.392358,93.4319566 147.053049,93.5691769 C146.712494,93.7063973 146.30707,93.77376 145.835531,93.77376" id="Fill-79"></path>
                        <path d="M153.47546,89.5590997 L152.937806,89.5590997 L152.861711,88.7195607 C152.697047,88.5474115 152.489969,88.415181 152.23923,88.3203742 C151.989738,88.2255675 151.700328,88.1781641 151.375989,88.1781641 C150.896965,88.1781641 150.538945,88.2817031 150.298186,88.4875336 C150.059921,88.6946115 149.938918,88.9353708 149.938918,89.2135539 C149.938918,89.4867471 150.042457,89.7137844 150.249535,89.8934183 C150.455365,90.0718047 150.867026,90.2289844 151.485765,90.3649573 C152.190579,90.5208895 152.719501,90.7366997 153.070037,91.0086454 C153.420572,91.2818386 153.596464,91.6510861 153.596464,92.1188827 C153.596464,92.6116285 153.396871,93.0120624 152.995189,93.3176895 C152.596003,93.6220692 152.065833,93.774259 151.408423,93.774259 C150.969318,93.774259 150.571379,93.7131336 150.210864,93.5908827 C149.851596,93.4686319 149.539732,93.2952353 149.276518,93.0719403 L149.276518,91.8768759 L149.807935,91.8768759 L149.901494,92.7214047 C150.076138,92.8972963 150.298186,93.0245369 150.567637,93.1031268 C150.83584,93.1817166 151.115271,93.2216353 151.408423,93.2216353 C151.883704,93.2216353 152.257942,93.1168488 152.532382,92.9085234 C152.806823,92.700198 152.942796,92.4469641 152.942796,92.1513166 C152.942796,91.8731336 152.829277,91.6311268 152.600993,91.4228014 C152.372708,91.2144759 151.959799,91.0435742 151.364762,90.9125912 C150.658701,90.7591539 150.136016,90.5558183 149.794213,90.3025844 C149.452409,90.0481031 149.281508,89.6913302 149.281508,89.2347607 C149.281508,88.7819336 149.473616,88.3989641 149.857833,88.0870997 C150.240803,87.7739878 150.746023,87.6180556 151.375989,87.6180556 C151.810104,87.6180556 152.208043,87.6854183 152.567311,87.8176488 C152.929074,87.9523742 153.220979,88.1307607 153.448016,88.357798 L153.47546,89.5590997 Z" id="Fill-80"></path>
                        <path d="M156.209139,86.2089275 L156.209139,87.7283308 L157.51398,87.7283308 L157.51398,88.2647376 L156.209139,88.2647376 L156.209139,92.1293614 C156.209139,92.5173207 156.280244,92.7917614 156.419959,92.9551783 C156.560922,93.1173478 156.748041,93.19968 156.981315,93.19968 C157.087349,93.19968 157.190888,93.1946902 157.291932,93.185958 C157.391729,93.1759783 157.507742,93.1597614 157.638725,93.1385546 L157.739769,93.6263105 C157.629993,93.6737139 157.495268,93.7111376 157.338088,93.7360868 C157.180908,93.7622834 157.023729,93.7735105 156.866549,93.7735105 C156.449898,93.7735105 156.126807,93.6425275 155.893532,93.3793139 C155.662753,93.1161003 155.546739,92.6994495 155.546739,92.1293614 L155.546739,88.2647376 L154.525071,88.2647376 L154.525071,87.7283308 L155.546739,87.7283308 L155.546739,86.2089275 L156.209139,86.2089275 Z" id="Fill-81"></path>
                        <path d="M159.479973,86.0284203 L160.132393,86.0284203 L160.132393,85.1077966 L159.479973,85.1077966 L159.479973,86.0284203 Z M158.584298,93.1776 L159.478725,93.1052475 L159.478725,88.2875661 L158.584298,88.2152136 L158.584298,87.7287051 L160.132393,87.7287051 L160.132393,93.1052475 L161.024325,93.1776 L161.024325,93.6591186 L158.584298,93.6591186 L158.584298,93.1776 Z" id="Fill-82"></path>
                        <path d="M161.917755,93.1772258 L162.810934,93.1048732 L162.810934,88.2871919 L161.917755,88.2148393 L161.917755,87.7283308 L163.392249,87.7283308 L163.452127,88.7637207 C163.641741,88.3982156 163.898717,88.1162902 164.223056,87.9166969 C164.5449,87.7183512 164.92787,87.6185546 165.370717,87.6185546 C166.013158,87.6185546 166.503409,87.8144054 166.838975,88.208602 C167.175788,88.6003037 167.344195,89.2128054 167.344195,90.0461071 L167.344195,93.1048732 L168.237375,93.1772258 L168.237375,93.6599919 L165.792358,93.6599919 L165.792358,93.1772258 L166.685538,93.1048732 L166.685538,90.0523444 C166.685538,89.37248 166.559544,88.8909614 166.306311,88.6102834 C166.050582,88.328358 165.690066,88.1886427 165.22227,88.1886427 C164.761958,88.1886427 164.386473,88.3108936 164.095816,88.5529003 C163.806405,88.7961546 163.596833,89.1179986 163.468344,89.51968 L163.468344,93.1048732 L164.361524,93.1772258 L164.361524,93.6599919 L161.917755,93.6599919 L161.917755,93.1772258 Z" id="Fill-83"></path>
                        <path d="M169.862937,90.8577031 C169.862937,91.5700014 170.007642,92.1400895 170.299547,92.5654725 C170.588957,92.9921031 171.023073,93.2041708 171.601893,93.2041708 C172.027276,93.2041708 172.384049,93.1081166 172.667222,92.9135132 C172.950395,92.7201573 173.167452,92.4532014 173.320889,92.1138929 L173.320889,89.3620014 C173.174937,89.0139607 172.965364,88.7320353 172.692171,88.5149776 C172.41773,88.2966725 172.057215,88.1881437 171.610625,88.1881437 C171.033052,88.1881437 170.598937,88.4264081 170.304537,88.9016895 C170.010137,89.3769708 169.862937,89.99072 169.862937,90.7429369 L169.862937,90.8577031 Z M169.205527,90.7429369 C169.205527,89.7961166 169.407615,89.0389098 169.810544,88.4713166 C170.21472,87.9024759 170.773581,87.6180556 171.492117,87.6180556 C171.911262,87.6180556 172.276767,87.7116149 172.584889,87.8949912 C172.894259,88.0796149 173.14874,88.3390861 173.349581,88.6758997 L173.425676,87.7278319 L173.979547,87.7278319 L173.979547,93.583398 C173.979547,94.346842 173.773717,94.9493641 173.360808,95.3922115 C172.9479,95.8338115 172.371574,96.0546115 171.633079,96.0546115 C171.347412,96.0546115 171.044279,96.0209302 170.71994,95.9510725 C170.398096,95.8812149 170.114923,95.7864081 169.874164,95.6654047 L170.048808,95.1115336 C170.287073,95.2250522 170.536564,95.3123742 170.797283,95.3747471 C171.059249,95.43712 171.333689,95.4683064 171.6231,95.4683064 C172.184456,95.4683064 172.609839,95.3023946 172.895506,94.9693234 C173.179927,94.6362522 173.320889,94.1746929 173.320889,93.583398 L173.320889,92.831181 C173.120049,93.1343132 172.866815,93.3688353 172.55994,93.5310047 C172.253066,93.6919268 171.892551,93.774259 171.479642,93.774259 C170.768591,93.774259 170.20973,93.509798 169.808049,92.9796285 C169.406367,92.449459 169.205527,91.7421505 169.205527,90.8577031 L169.205527,90.7429369 Z" id="Fill-84"></path>
                        <path d="M178.871702,86.0284203 L179.524122,86.0284203 L179.524122,85.1077966 L178.871702,85.1077966 L178.871702,86.0284203 Z M177.977275,93.1776 L178.871702,93.1052475 L178.871702,88.2875661 L177.977275,88.2152136 L177.977275,87.7287051 L179.524122,87.7287051 L179.524122,93.1052475 L180.417302,93.1776 L180.417302,93.6591186 L177.977275,93.6591186 L177.977275,93.1776 Z" id="Fill-85"></path>
                        <path d="M181.309359,93.1772258 L182.202538,93.1048732 L182.202538,88.2871919 L181.309359,88.2148393 L181.309359,87.7283308 L182.783854,87.7283308 L182.843732,88.7637207 C183.033345,88.3982156 183.290321,88.1162902 183.61466,87.9166969 C183.936504,87.7183512 184.319474,87.6185546 184.762321,87.6185546 C185.404762,87.6185546 185.895013,87.8144054 186.230579,88.208602 C186.567393,88.6003037 186.735799,89.2128054 186.735799,90.0461071 L186.735799,93.1048732 L187.628979,93.1772258 L187.628979,93.6599919 L185.183962,93.6599919 L185.183962,93.1772258 L186.077142,93.1048732 L186.077142,90.0523444 C186.077142,89.37248 185.951148,88.8909614 185.697915,88.6102834 C185.442186,88.328358 185.081671,88.1886427 184.613874,88.1886427 C184.153562,88.1886427 183.778077,88.3108936 183.48742,88.5529003 C183.198009,88.7961546 182.988437,89.1179986 182.859948,89.51968 L182.859948,93.1048732 L183.753128,93.1772258 L183.753128,93.6599919 L181.309359,93.6599919 L181.309359,93.1772258 Z" id="Fill-86"></path>
                        <path d="M191.117245,88.2653614 L191.117245,87.7277071 L192.098994,87.7277071 L192.098994,86.8619715 C192.098994,86.2656868 192.247441,85.8053749 192.546831,85.4810359 C192.847468,85.1554495 193.266614,84.9920325 193.803021,84.9920325 C193.920282,84.9920325 194.041285,85.0020122 194.164784,85.0194766 C194.289529,85.0381885 194.415523,85.0643851 194.542763,85.096819 L194.461679,85.6394631 C194.373109,85.6170088 194.283292,85.5995444 194.192228,85.5883173 C194.101163,85.5745953 193.993882,85.568358 193.869136,85.568358 C193.511116,85.568358 193.235428,85.6818766 193.044567,85.9076664 C192.852458,86.1347037 192.756404,86.4528054 192.756404,86.8619715 L192.756404,87.7277071 L194.169774,87.7277071 L194.169774,88.2653614 L192.756404,88.2653614 L192.756404,93.1054969 L193.649584,93.1778495 L193.649584,93.6593681 L191.204567,93.6593681 L191.204567,93.1778495 L192.098994,93.1054969 L192.098994,88.2653614 L191.117245,88.2653614 Z" id="Fill-87"></path>
                        <path d="M199.454753,92.6838563 C199.268881,93.0306495 199.013153,93.2988529 198.690061,93.4897139 C198.366969,93.6793275 197.985247,93.7741342 197.54739,93.7741342 C196.922414,93.7741342 196.43341,93.5620664 196.08038,93.1379308 C195.728597,92.7137953 195.551458,92.0563851 195.551458,91.1644529 L195.551458,88.2878156 L194.816705,88.2154631 L194.816705,87.7277071 L195.551458,87.7277071 L196.205125,87.7277071 L196.205125,91.17568 C196.205125,91.8992054 196.327376,92.4181478 196.573125,92.7325071 C196.821369,93.0468664 197.170658,93.2040461 197.623485,93.2040461 C198.12122,93.2040461 198.516664,93.0942698 198.809817,92.8747173 C199.105464,92.6564122 199.312542,92.3520325 199.432298,91.9653207 L199.432298,88.2878156 L198.589017,88.2154631 L198.589017,87.7277071 L199.432298,87.7277071 L200.090956,87.7277071 L200.090956,93.1054969 L200.884339,93.1778495 L200.884339,93.6593681 L199.515878,93.6593681 L199.454753,92.6838563 Z" id="Fill-88"></path>
                        <path d="M201.640174,93.1772258 L202.533353,93.1048732 L202.533353,88.2871919 L201.640174,88.2148393 L201.640174,87.7283308 L203.114668,87.7283308 L203.174546,88.7637207 C203.36416,88.3982156 203.621136,88.1162902 203.945475,87.9166969 C204.267319,87.7183512 204.650289,87.6185546 205.093136,87.6185546 C205.735577,87.6185546 206.225828,87.8144054 206.561394,88.208602 C206.898207,88.6003037 207.066614,89.2128054 207.066614,90.0461071 L207.066614,93.1048732 L207.959794,93.1772258 L207.959794,93.6599919 L205.514777,93.6599919 L205.514777,93.1772258 L206.407957,93.1048732 L206.407957,90.0523444 C206.407957,89.37248 206.281963,88.8909614 206.028729,88.6102834 C205.773001,88.328358 205.412485,88.1886427 204.944689,88.1886427 C204.484377,88.1886427 204.108892,88.3108936 203.818235,88.5529003 C203.528824,88.7961546 203.319252,89.1179986 203.190763,89.51968 L203.190763,93.1048732 L204.083943,93.1772258 L204.083943,93.6599919 L201.640174,93.6599919 L201.640174,93.1772258 Z" id="Fill-89"></path>
                        <path d="M209.564773,90.8577031 C209.564773,91.5737437 209.708231,92.1438319 209.995146,92.5679675 C210.282061,92.9921031 210.713681,93.2041708 211.291254,93.2041708 C211.711647,93.2041708 212.063431,93.1093641 212.346603,92.9185031 C212.629776,92.7288895 212.850576,92.4681708 213.007756,92.1350997 L213.007756,89.32832 C212.861803,88.9927539 212.650983,88.7183132 212.374047,88.5062454 C212.098359,88.2941776 211.741586,88.1881437 211.303729,88.1881437 C210.724908,88.1881437 210.290793,88.4251607 210.001383,88.8991946 C209.709478,89.371981 209.564773,89.9869776 209.564773,90.7429369 L209.564773,90.8577031 Z M213.022725,92.8049844 C212.825627,93.1156014 212.572393,93.3538658 212.261776,93.5222725 C211.951159,93.6906793 211.585654,93.774259 211.165261,93.774259 C210.456705,93.774259 209.902834,93.509798 209.501153,92.9796285 C209.101966,92.449459 208.901125,91.7421505 208.901125,90.8577031 L208.901125,90.7429369 C208.901125,89.7961166 209.101966,89.0389098 209.501153,88.4713166 C209.902834,87.9024759 210.460447,87.6180556 211.176488,87.6180556 C211.589397,87.6180556 211.947417,87.7053776 212.250549,87.8787742 C212.553681,88.0521708 212.806915,88.2991675 213.007756,88.6210115 L213.007756,85.6670319 L212.114576,85.5946793 L212.114576,85.1081708 L213.007756,85.1081708 L213.665166,85.1081708 L213.665166,93.1056217 L214.558346,93.1767268 L214.558346,93.6594929 L213.078861,93.6594929 L213.022725,92.8049844 Z" id="Fill-90"></path>
                        <path d="M219.780702,89.5590997 L219.243048,89.5590997 L219.166953,88.7195607 C219.002289,88.5474115 218.795211,88.415181 218.544472,88.3203742 C218.29498,88.2255675 218.00557,88.1781641 217.681231,88.1781641 C217.202207,88.1781641 216.844187,88.2817031 216.603428,88.4875336 C216.365163,88.6946115 216.24416,88.9353708 216.24416,89.2135539 C216.24416,89.4867471 216.347699,89.7137844 216.554777,89.8934183 C216.760607,90.0718047 217.172268,90.2289844 217.791007,90.3649573 C218.495821,90.5208895 219.024743,90.7366997 219.375279,91.0086454 C219.725814,91.2818386 219.901706,91.6510861 219.901706,92.1188827 C219.901706,92.6116285 219.702113,93.0120624 219.300431,93.3176895 C218.901245,93.6220692 218.371075,93.774259 217.713665,93.774259 C217.27456,93.774259 216.876621,93.7131336 216.516106,93.5908827 C216.156838,93.4686319 215.844974,93.2952353 215.58176,93.0719403 L215.58176,91.8768759 L216.113177,91.8768759 L216.206736,92.7214047 C216.38138,92.8972963 216.603428,93.0245369 216.872879,93.1031268 C217.141082,93.1817166 217.420513,93.2216353 217.713665,93.2216353 C218.188946,93.2216353 218.563184,93.1168488 218.837624,92.9085234 C219.112065,92.700198 219.248038,92.4469641 219.248038,92.1513166 C219.248038,91.8731336 219.134519,91.6311268 218.906235,91.4228014 C218.67795,91.2144759 218.265041,91.0435742 217.670004,90.9125912 C216.963943,90.7591539 216.441258,90.5558183 216.099455,90.3025844 C215.757652,90.0481031 215.58675,89.6913302 215.58675,89.2347607 C215.58675,88.7819336 215.778858,88.3989641 216.163075,88.0870997 C216.546045,87.7739878 217.051265,87.6180556 217.681231,87.6180556 C218.115346,87.6180556 218.513285,87.6854183 218.872553,87.8176488 C219.234316,87.9523742 219.526221,88.1307607 219.753258,88.357798 L219.780702,89.5590997 Z" id="Fill-91"></path>
                    </g>
                </g>
            </g>
        </g>
    </g>
</svg>